<svg width="49" height="49" viewBox="0 0 49 49" fill="none" xmlns="http://www.w3.org/2000/svg">
<circle cx="24.5" cy="24.5" r="24.5" fill="#388067"/>
<path d="M24 14C24.6566 14 25.3068 14.1293 25.9134 14.3806C26.52 14.6319 27.0712 15.0002 27.5355 15.4645C27.9998 15.9288 28.3681 16.48 28.6194 17.0866C28.8707 17.6932 29 18.3434 29 19V23C29 24.3261 28.4732 25.5979 27.5355 26.5355C26.5978 27.4732 25.3261 28 24 28C22.6739 28 21.4021 27.4732 20.4645 26.5355C19.5268 25.5979 19 24.3261 19 23V19C19 17.6739 19.5268 16.4021 20.4645 15.4645C21.4021 14.5268 22.6739 14 24 14ZM15.055 24H17.07C17.3123 25.6648 18.1459 27.1867 19.4182 28.2873C20.6906 29.3879 22.3167 29.9936 23.999 29.9936C25.6813 29.9936 27.3074 29.3879 28.5798 28.2873C29.8521 27.1867 30.6857 25.6648 30.928 24H32.944C32.7166 26.0287 31.8066 27.9199 30.3632 29.3635C28.9198 30.8071 27.0287 31.7174 25 31.945V36H23V31.945C20.9711 31.7176 19.0798 30.8074 17.6362 29.3638C16.1926 27.9202 15.2824 26.0289 15.055 24Z" fill="white"/>
</svg>
