<svg width="49" height="49" viewBox="0 0 49 49" fill="none" xmlns="http://www.w3.org/2000/svg">
<circle cx="24.5" cy="24.5" r="23.5" stroke="white" stroke-width="2"/>
<path fill-rule="evenodd" clip-rule="evenodd" d="M20.3333 17.8069C20.3333 16.8108 19.5855 16 18.6667 16C17.7425 16 17 16.8108 17 17.8069C17 18.8031 17.7425 19.6139 18.6667 19.6139C19.5855 19.6139 20.3333 18.8031 20.3333 17.8069ZM20.0983 20.9807H17.2244V31H20.0983V20.9807Z" fill="white"/>
<path d="M22.8333 21.237H25.65V22.5745H25.6883C26.0821 21.807 27.0392 21 28.4722 21C31.4475 21 31.9999 23.0203 31.9999 25.6501V31H29.0629V26.254C29.0629 25.1196 29.0465 23.6637 27.5369 23.6637C26.0055 23.6637 25.7758 24.8995 25.7758 26.1693V31H22.8387L22.8333 21.237Z" fill="white"/>
</svg>
