<svg width="45" height="45" viewBox="0 0 45 45" fill="none" xmlns="http://www.w3.org/2000/svg">
<g clip-path="url(#clip0)">
<path fill-rule="evenodd" clip-rule="evenodd" d="M22.0424 17.6951C22.1078 17.6289 22.1078 17.4963 22.1078 17.3638C22.1078 16.4359 22.2386 15.5081 22.0424 14.514C21.9769 14.0501 22.2386 13.5199 22.631 13.3873C22.958 13.2548 23.3505 13.2548 23.6775 13.3873C24.0046 13.5861 24.397 13.785 24.724 13.9838C25.0511 14.1826 25.4435 14.0501 25.6397 13.6524C25.836 13.321 25.7705 12.9234 25.7051 12.592C25.3781 11.4654 25.0511 10.405 24.724 9.34461C24.5278 8.6156 24.5278 7.88658 24.6586 7.15757C24.724 6.75993 24.724 6.42856 24.9857 6.09719C25.1819 5.76582 25.4435 5.50072 25.7051 5.23563C25.9668 4.97053 26.2284 5.10308 26.49 5.23563C27.0787 5.567 27.6019 5.89837 27.9944 6.49483C28.3214 7.02502 28.7139 7.42267 29.1063 7.88658C29.3025 8.15168 29.4333 8.15168 29.695 7.88658C29.8912 7.68776 29.9566 7.42267 29.9566 7.15757C30.022 6.69365 30.0874 6.22973 30.2182 5.76582C30.4144 4.97053 30.6107 4.17524 30.8069 3.31368C30.8723 3.04859 31.0031 2.84976 31.0685 2.65094C31.1339 2.5184 31.1993 2.31957 31.2647 2.18703C31.3301 1.59056 31.7226 1.12664 32.1804 0.795273C32.5075 0.596451 32.7691 0.39763 33.0961 0.198808C33.1615 0.198808 33.1615 0.132534 33.2269 0.132534C33.8156 -0.132562 34.1426 -0.066288 34.5351 0.463903C34.6005 0.596451 34.6659 0.795273 34.7967 0.927821C34.9275 0.994095 34.9929 1.12664 35.0583 1.19292C35.4508 1.78938 35.5816 2.45212 35.647 3.11486C35.7124 3.64505 35.7124 4.24152 35.7778 4.77171C35.7778 5.10308 35.9086 5.10308 36.1703 4.97053C36.4973 4.83798 36.6935 4.57289 36.7589 4.30779C36.9551 3.7776 37.086 3.31368 37.2822 2.78349C37.3476 2.78349 37.3476 2.84976 37.3476 2.84976C37.413 2.45212 37.5438 2.05448 37.6092 1.72311C37.9362 1.65683 38.0017 1.59056 37.9362 1.32546C38.0671 1.39174 38.1979 1.45801 38.2633 1.52429C38.2633 1.52429 38.2633 1.52429 38.3287 1.52429C38.2633 1.45801 38.1979 1.32546 38.0671 1.19292C38.0671 1.19292 38.1325 1.12664 38.1325 1.06037C38.1979 0.530177 38.6557 0.463903 38.9828 0.265082C39.3752 0.0662599 39.6368 0.265082 39.9639 0.728999C40.2255 1.12664 40.4871 1.45801 40.7487 1.78938C40.8142 1.92193 41.0104 2.05448 41.2066 1.9882C41.8607 1.92193 42.5801 1.72311 43.2342 1.65683C43.6921 1.59056 44.1499 1.45801 44.6078 1.39174C44.804 1.39174 44.9348 1.45801 45.0002 1.65683C45.0656 2.05448 44.9348 2.45212 44.7386 2.84976C44.4769 3.18113 44.4769 3.44623 44.7386 3.7776C45.1964 4.30779 45.0002 4.90426 44.6732 5.36817C44.4115 5.76582 44.0191 6.03091 43.6267 6.36228C43.365 6.62738 43.038 6.89247 42.7764 7.15757C42.6455 7.29012 42.6455 7.48894 42.7764 7.62149C43.038 7.82031 43.2342 8.01913 43.4958 8.15168C43.8883 8.3505 44.1499 8.68187 44.4115 9.01324C44.6078 9.27834 44.5424 9.47716 44.4115 9.74225C44.0845 10.6038 43.4958 11.2003 42.6455 11.3991C41.7953 11.5979 40.8796 11.863 39.9639 11.6642C39.7022 11.5979 39.3752 11.6642 39.1136 11.7305C38.6557 11.863 38.5903 12.1944 38.9174 12.5258C39.2444 12.8571 39.7022 12.9234 40.0947 13.056C40.6179 13.2548 41.2066 13.3873 41.599 13.8512C41.9261 14.2489 42.1877 14.7128 42.4493 15.1104C42.6455 15.3755 42.5147 15.6406 42.3185 15.9057C41.9261 16.3696 41.4028 16.701 40.8142 16.8998C40.6179 16.9661 40.3563 16.9661 40.0947 16.9661C39.7676 17.0324 39.506 17.0324 39.179 17.0987C38.5903 17.2975 38.0671 17.0987 37.5438 17.0324C36.7589 16.8336 35.974 16.5685 35.1892 16.3696C34.7967 16.2371 34.4043 16.1708 34.0118 16.1045C33.6848 16.0383 33.3578 16.1046 33.0961 16.3696C32.8345 16.6347 32.8345 17.0987 33.0961 17.3638C33.4886 17.7614 33.881 18.0928 34.2735 18.4904C34.6659 18.8881 34.7967 19.1532 34.2735 19.6171C33.8156 19.9484 33.3578 20.3461 32.7691 20.4786C32.5729 20.5449 32.3112 20.5449 32.115 20.4786C31.1993 20.2798 30.2182 20.081 29.3025 19.8822C28.9101 19.8159 28.5176 19.7496 28.1252 20.0147C27.7982 20.2135 27.6674 20.4786 27.7328 20.8763C27.7982 21.2076 27.4711 21.8704 27.1441 22.0692C26.9479 22.2018 26.7517 22.3343 26.5554 22.4669C26.2938 22.5994 25.9668 22.7319 25.6397 22.8645C23.1543 22.5331 25.6397 18.8218 26.6208 17.43C29.4987 13.1222 33.2924 10.1399 37.086 8.81442C32.6383 9.60971 27.929 12.9234 24.5278 18.0265C20.6688 23.7923 18.9682 45 22.8926 45H11.8389C14.7822 41.3549 18.5758 24.9853 22.0424 17.6951Z" fill="#388067"/>
<path fill-rule="evenodd" clip-rule="evenodd" d="M27.4054 45C25.9664 43.2106 24.2659 37.8424 22.5653 32.408C22.3691 34.6613 22.2382 36.9146 22.3691 39.1016C22.6307 43.542 23.1539 45 27.4054 45Z" fill="#388067"/>
<path fill-rule="evenodd" clip-rule="evenodd" d="M18.9029 20.81C18.9029 20.4786 18.9029 20.1473 18.9683 19.8159C19.0337 19.4845 18.7721 18.9543 18.5104 18.8881C18.2488 18.8218 17.9218 18.7555 17.6601 18.8881C17.3331 19.0206 17.0715 19.2194 16.8099 19.352C16.5482 19.4845 16.2212 19.4183 16.025 19.0869C15.8942 18.8218 15.8942 18.4904 15.9596 18.2253C16.2212 17.2975 16.4828 16.4359 16.7444 15.5081C16.8753 14.9116 16.9407 14.3152 16.8099 13.7187C16.7444 13.3873 16.7444 13.1222 16.5482 12.8571C16.352 12.592 16.1558 12.3932 15.9596 12.1281C15.7633 11.9293 15.5017 11.9956 15.3055 12.1281C14.8476 12.3932 14.3898 12.7246 14.0628 13.1885C13.8011 13.5862 13.4741 13.9838 13.1471 14.3814C12.9508 14.5803 12.8854 14.5803 12.6892 14.3814C12.493 14.1826 12.493 13.9838 12.493 13.785C12.493 13.3873 12.3622 12.9897 12.2968 12.592C12.166 11.9293 11.9697 11.2666 11.7735 10.6038C11.7081 10.405 11.6427 10.2062 11.5773 10.0736C11.5119 9.94109 11.4465 9.80854 11.4465 9.67599C11.3811 9.1458 11.054 8.81443 10.6616 8.54934C10.4 8.41679 10.1383 8.21797 9.94212 8.08542C9.94212 8.08542 9.87671 8.08542 9.81131 8.01914C9.35346 7.75405 9.02642 7.8866 8.76479 8.28424C8.69939 8.41679 8.69939 8.54934 8.56857 8.61561C8.43776 8.68188 8.43776 8.74816 8.37235 8.8807C8.04532 9.34462 7.9145 9.87481 7.8491 10.4713C7.78369 10.9352 7.78369 11.3991 7.78369 11.863C7.78369 12.1281 7.65287 12.1281 7.45665 12.0619C7.19503 11.9293 7.06421 11.7305 6.9334 11.4654C6.80258 11.0677 6.67177 10.6038 6.54096 10.2062C6.47555 10.2062 6.47555 10.2725 6.47555 10.2725C6.41014 9.94109 6.34474 9.60972 6.27933 9.34462C5.95229 9.1458 5.88689 9.07953 5.88689 8.8807C5.75607 8.94698 5.69067 9.01325 5.62526 9.01325C5.62526 9.01325 5.62526 9.01325 5.55985 9.01325C5.62526 8.94698 5.69067 8.8807 5.75607 8.74816L5.69067 8.68188C5.62526 8.28424 5.29822 8.15169 4.97119 8.01914C4.64415 7.8866 4.44793 8.01914 4.18631 8.41679C3.99008 8.74816 3.79386 9.01325 3.53224 9.27835C3.46683 9.4109 3.27061 9.47717 3.07439 9.4109C2.48572 9.34462 1.96247 9.21207 1.3738 9.07953C0.981363 9.01325 0.654328 8.94698 0.261886 8.8807C0.131072 8.8807 0.00025782 8.94698 -0.0651492 9.1458C-0.130556 9.47717 0.00025782 9.80854 0.131072 10.1399C0.261886 10.405 0.261886 10.6701 0.0656648 10.8689C-0.326777 11.3328 -0.130556 11.7968 0.131072 12.1944C0.327293 12.5258 0.719735 12.7246 0.981363 13.056C1.24299 13.2548 1.43921 13.5199 1.70084 13.7187C1.83165 13.8513 1.83165 13.9838 1.70084 14.1163C1.50462 14.2489 1.3084 14.4477 1.11218 14.5803C0.915956 14.7128 0.654328 14.9779 0.458107 15.243C0.327293 15.4418 0.3927 15.6406 0.458107 15.8395C0.719735 16.5685 1.17758 17.0987 1.89706 17.2312C2.61654 17.3638 3.33601 17.6289 4.1209 17.43C4.31712 17.3638 4.57875 17.43 4.84037 17.4963C5.16741 17.5626 5.23282 17.894 4.97119 18.1591C4.70956 18.4242 4.31712 18.4904 3.99008 18.623C3.53223 18.7555 3.07439 18.8881 2.74735 19.2857C2.48572 19.6171 2.2895 19.9485 2.02787 20.3461C1.89706 20.5449 1.96247 20.81 2.15869 21.0088C2.48572 21.4065 2.94357 21.6716 3.40142 21.8041C3.59764 21.8704 3.79386 21.8704 3.99008 21.8704C4.25171 21.8704 4.51334 21.9367 4.70956 22.0029C5.16741 22.1355 5.62526 22.0029 6.08311 21.9367C6.73718 21.8041 7.39125 21.6053 8.04532 21.4065C8.37235 21.3402 8.69939 21.2739 9.02642 21.2077C9.28805 21.1414 9.54968 21.2077 9.81131 21.4065C10.0729 21.6716 10.0075 22.0029 9.81131 22.268C9.48427 22.5994 9.15724 22.8645 8.8302 23.1959C8.50317 23.5272 8.37235 23.7261 8.8302 24.1237C9.22264 24.3888 9.54968 24.7202 10.0729 24.8527C10.2692 24.8527 10.4654 24.919 10.5962 24.8527C11.3811 24.7202 12.166 24.5214 12.8854 24.3888C13.2125 24.3225 13.5395 24.3225 13.8665 24.5214C14.1282 24.7202 14.259 24.919 14.1936 25.1841C14.1282 25.4492 14.3898 25.9794 14.7168 26.1782C14.913 26.3107 15.0439 26.377 15.2401 26.5096C15.5017 26.6421 15.7633 26.7084 15.9596 26.8409C18.0526 26.5758 15.9596 23.5272 15.1747 22.3343C12.82 18.7555 9.68049 16.3034 6.54096 15.1767C10.2037 15.8395 14.1282 18.5567 16.9407 22.7982C17.2023 23.1959 17.4639 23.7261 17.7255 24.3225C17.9218 23.7923 18.0526 23.2621 18.2488 22.732C18.445 22.0029 18.7067 21.4065 18.9029 20.81Z" fill="#388067"/>
</g>
<defs>
<clipPath id="clip0">
<rect width="45" height="45" fill="white"/>
</clipPath>
</defs>
</svg>
