<svg width="45" height="45" viewBox="0 0 45 45" fill="none" xmlns="http://www.w3.org/2000/svg">
<path d="M5.36133 19.8633C5.36133 20.5918 5.95116 21.1816 6.67969 21.1816H38.3203C39.0488 21.1816 39.6387 20.5918 39.6387 19.8633C39.6387 11.4337 33.4705 5.78465 23.8184 5.3191V3.95508C23.8184 3.22758 24.4092 2.63672 25.1367 2.63672H27.7734C28.502 2.63672 29.0918 2.04689 29.0918 1.31836C29.0918 0.589829 28.502 0 27.7734 0H25.1367C22.9559 0 21.1816 1.77429 21.1816 3.95508V5.3191C11.5295 5.78465 5.36133 11.4337 5.36133 19.8633Z" fill="#388067"/>
<path d="M19.5042 42.55L21.5679 44.6138C21.8254 44.8713 22.1625 45 22.5 45C22.8371 45 23.1746 44.8713 23.4321 44.6138L25.4958 42.55C25.7018 42.3441 25.9604 42.1971 26.2426 42.1264C32.5782 40.5426 37.002 34.8768 37.002 28.3478V23.8184H7.99805V28.3478C7.99805 34.8768 12.4218 40.5426 18.7574 42.1264C19.0393 42.1971 19.2982 42.3441 19.5042 42.55ZM24.3254 34.4531C27.1321 33.7514 29.0918 31.241 29.0918 28.3478C29.0918 27.6193 29.6816 27.0295 30.4102 27.0295C31.1387 27.0295 31.7285 27.6193 31.7285 28.3478C31.7285 32.4522 28.9476 36.0149 24.964 37.0102C24.2664 37.1867 23.544 36.7644 23.3665 36.0509C23.1887 35.3454 23.6189 34.6296 24.3254 34.4531Z" fill="#388067"/>
</svg>
