<svg width="44" height="44" viewBox="0 0 44 44" fill="none" xmlns="http://www.w3.org/2000/svg">
<path d="M21.998 5.1554C21.2861 5.1554 20.709 5.73255 20.709 6.44446C20.709 7.15636 21.2861 7.73352 21.998 7.73352C26.2635 7.73352 29.7337 11.2032 29.7337 15.4679C29.7337 16.1798 30.3109 16.757 31.0228 16.757C31.7347 16.757 32.3118 16.1798 32.3118 15.4679C32.3118 9.78158 27.6851 5.1554 21.998 5.1554Z" fill="#388067"/>
<path d="M18.6774 0.34635C12.8534 1.56331 8.13113 6.24037 6.88856 12.1005C5.83934 17.049 7.13227 22.017 10.4358 25.7308C12.0506 27.5461 12.9767 29.9423 12.9767 32.3117V34.8898C12.9767 36.6051 14.0997 38.0623 15.6488 38.5671C16.1582 41.577 18.7707 43.9991 22.0001 43.9991C25.2287 43.9991 27.8419 41.5778 28.3515 38.5671C29.9006 38.0623 31.0236 36.6051 31.0236 34.8897V32.3116C31.0236 29.9376 31.9527 27.5701 33.6397 25.6455C36.109 22.8285 37.4689 19.2139 37.4689 15.4679C37.4689 5.70842 28.5358 -1.71323 18.6774 0.34635ZM22.0001 41.421C20.3431 41.421 18.8902 40.2808 18.3537 38.7484H25.6465C25.1101 40.2808 23.6572 41.421 22.0001 41.421ZM28.4455 34.8898C28.4455 35.6006 27.8672 36.1788 27.1564 36.1788H16.8439C16.1331 36.1788 15.5548 35.6006 15.5548 34.8898V33.6007H28.4455V34.8898ZM31.7009 23.9462C29.9031 25.9973 28.797 28.4706 28.5164 31.0226H15.4842C15.2039 28.4692 14.1006 25.9716 12.3623 24.0173C9.60899 20.9222 8.53314 16.7736 9.41065 12.6353C10.4349 7.80444 14.3709 3.8801 19.2048 2.87008C27.4568 1.14557 34.8908 7.34269 34.8908 15.4679C34.8908 18.5885 33.7579 21.5995 31.7009 23.9462Z" fill="#388067"/>
<path d="M3.86719 15.4679H1.28906C0.577156 15.4679 0 16.0451 0 16.757C0 17.4689 0.577156 18.046 1.28906 18.046H3.86719C4.57909 18.046 5.15625 17.4689 5.15625 16.757C5.15625 16.0451 4.57909 15.4679 3.86719 15.4679Z" fill="#388067"/>
<path d="M4.40148 9.02258L2.57849 7.19959C2.07515 6.69617 1.25892 6.69617 0.755496 7.19959C0.252074 7.70301 0.252074 8.51916 0.755496 9.02258L2.57849 10.8456C3.08182 11.349 3.89806 11.3491 4.40148 10.8456C4.9049 10.3422 4.9049 9.526 4.40148 9.02258Z" fill="#388067"/>
<path d="M4.40148 22.6683C3.89806 22.1649 3.08182 22.1649 2.57849 22.6683L0.755496 24.4913C0.252074 24.9947 0.252074 25.8109 0.755496 26.3143C1.25883 26.8177 2.07507 26.8178 2.57849 26.3143L4.40148 24.4913C4.9049 23.9879 4.9049 23.1718 4.40148 22.6683Z" fill="#388067"/>
<path d="M42.7109 15.4679H40.1328C39.4209 15.4679 38.8438 16.0451 38.8438 16.757C38.8438 17.4689 39.4209 18.046 40.1328 18.046H42.7109C43.4228 18.046 44 17.4689 44 16.757C44 16.0451 43.4228 15.4679 42.7109 15.4679Z" fill="#388067"/>
<path d="M43.2452 7.19959C42.7419 6.69617 41.9257 6.69617 41.4222 7.19959L39.5992 9.02258C39.0958 9.526 39.0958 10.3421 39.5992 10.8456C40.1026 11.3489 40.9188 11.349 41.4222 10.8456L43.2452 9.02258C43.7487 8.51916 43.7487 7.70301 43.2452 7.19959Z" fill="#388067"/>
<path d="M43.2452 24.4913L41.4222 22.6683C40.9189 22.1649 40.1027 22.1649 39.5992 22.6683C39.0958 23.1718 39.0958 23.9879 39.5992 24.4913L41.4222 26.3143C41.9256 26.8177 42.7418 26.8177 43.2452 26.3143C43.7487 25.8109 43.7487 24.9948 43.2452 24.4913Z" fill="#388067"/>
</svg>
