<svg width="45" height="45" viewBox="0 0 45 45" fill="none" xmlns="http://www.w3.org/2000/svg">
<path d="M29.8269 37.0619C29.8269 36.2805 29.9124 35.5015 30.0819 34.7387L30.6992 31.9612C30.8687 31.1985 30.9542 30.4195 30.9542 29.6383V19.8982C30.9542 19.1963 30.4746 18.5458 29.7817 18.433C28.8989 18.2894 28.136 18.967 28.136 19.8228V17.0801C28.136 16.3782 27.6563 15.7276 26.9635 15.6149C26.0807 15.4713 25.3177 16.1489 25.3177 17.0047V14.8255C25.3177 14.1236 24.8381 13.4731 24.1453 13.3603C23.2626 13.2166 22.4996 13.8942 22.4996 14.75V16.441C22.4996 15.5852 21.7368 14.9076 20.854 15.0512C20.1611 15.1638 19.6815 15.8143 19.6815 16.5162V25.1772V25.4591C19.6815 24.5392 18.947 23.7909 18.0325 23.7687C17.3902 23.753 16.8633 24.2917 16.8633 24.9342V32.5045C16.8633 33.8997 17.5879 35.1244 18.681 35.8254C19.2959 36.2198 19.6814 36.8856 19.6814 37.6161V39.4089H29.8268V37.0619H29.8269Z" fill="#388067"/>
<path d="M30.9548 43.6363V40.1135C30.9548 39.7244 30.6393 39.409 30.2502 39.409H19.6821C19.293 39.409 18.9775 39.7244 18.9775 40.1135V43.6363C18.9775 44.0254 19.293 44.3408 19.6821 44.3408H30.2502C30.6393 44.3408 30.9548 44.0254 30.9548 43.6363Z" fill="#388067"/>
<path d="M21.0911 43.6362C21.0911 42.4689 22.0374 41.5227 23.2047 41.5227H30.9546V40.1136C30.9546 39.7245 30.6392 39.4091 30.2501 39.4091H19.6821C19.293 39.4091 18.9775 39.7245 18.9775 40.1136V43.6363C18.9775 44.0254 19.293 44.3409 19.6821 44.3409H21.0911V43.6362Z" fill="#388067"/>
<path d="M20.8841 36.3738C20.6303 35.7026 20.1496 35.1242 19.5297 34.7054C18.7489 34.1781 18.2723 33.3059 18.2723 32.3636V23.7889C18.0288 23.7478 17.5872 23.7404 17.2363 24.0721C16.8579 24.4297 16.8633 24.7435 16.8633 25.1745V32.5045C16.8633 33.8997 17.5879 35.1245 18.681 35.8255C19.2959 36.2198 19.6814 36.8857 19.6814 37.6162V39.409H29.8268V37.2954H22.2005C21.6111 37.2954 21.0926 36.9251 20.8841 36.3738Z" fill="#388067"/>
<path d="M19.6816 19.6818H19.5407C19.5889 19.6818 19.6344 19.6718 19.6816 19.6678V16.8636H12.4953C11.1002 16.8636 9.87531 17.5882 9.1743 18.6813C8.77993 19.2962 8.11416 19.6817 7.38361 19.6817H5.59082V29.8271H7.93803C8.71938 29.8271 9.49844 29.9126 10.2612 30.0821L13.0387 30.6993C13.8014 30.8688 14.5803 30.9543 15.3616 30.9543H19.6817V19.6818H19.6816Z" fill="#388067"/>
<path d="M1.36371 30.9546H4.88646C5.27555 30.9546 5.59099 30.6391 5.59099 30.25V19.6819C5.59099 19.2928 5.27555 18.9774 4.88646 18.9774H1.36371C0.974619 18.9774 0.65918 19.2928 0.65918 19.6819V30.25C0.65918 30.6391 0.974619 30.9546 1.36371 30.9546Z" fill="#388067"/>
<path d="M4.88646 28.8409C3.71909 28.8409 2.77286 27.8946 2.77286 26.7273V18.9774H1.36371C0.974619 18.9774 0.65918 19.2928 0.65918 19.6819V30.25C0.65918 30.6391 0.974619 30.9546 1.36371 30.9546H4.88646C5.27555 30.9546 5.59099 30.6391 5.59099 30.25V28.841H4.88646V28.8409Z" fill="#388067"/>
<path d="M15.3619 29.5454C14.6834 29.5454 14.0068 29.4712 13.3444 29.324L10.5667 28.7067C10.1987 28.6249 9.60812 28.5538 8.9979 28.5011C8.26735 28.4381 7.7045 27.8304 7.7045 27.0972V19.6818H5.59082V29.8272H7.93803C8.71946 29.8272 9.49844 29.9127 10.2612 30.0823L13.0386 30.6995C13.8013 30.869 14.5802 30.9545 15.3615 30.9545H19.6816V29.5454H15.3619Z" fill="#388067"/>
<path d="M7.85194 28.4383C7.8791 28.4301 7.90283 28.4182 7.93764 28.4182H7.70508V28.4331C7.75421 28.4348 7.80105 28.4362 7.85194 28.4383Z" fill="#388067"/>
<path d="M15.1732 7.93812C15.1732 8.71947 15.0877 9.49853 14.9181 10.2613L14.3009 13.0388C14.1314 13.8015 14.0459 14.5805 14.0459 15.3617V25.1018C14.0459 25.8036 14.5255 26.4542 15.2184 26.567C16.1011 26.7106 16.8641 26.033 16.8641 25.1772V27.9199C16.8641 28.6218 17.3437 29.2723 18.0366 29.3851C18.9193 29.5287 19.6823 28.8511 19.6823 27.9953V30.1745C19.6823 30.8763 20.1619 31.5269 20.8548 31.6397C21.7376 31.7833 22.5005 31.1057 22.5005 30.2499V28.5589C22.5005 29.4147 23.2634 30.0923 24.1462 29.9487C24.839 29.8361 25.3187 29.1856 25.3187 28.4837V19.8227V19.5408C25.3187 20.4607 26.0532 21.209 26.9677 21.2312C27.61 21.2469 28.1369 20.7082 28.1369 20.0657V12.4954C28.1369 11.1003 27.4122 9.8755 26.3191 9.17448C25.7042 8.78012 25.3188 8.11426 25.3188 7.3838V5.591H15.1732V7.93812Z" fill="#388067"/>
<path d="M16.8623 27.9958V20.3868C16.8623 19.9977 17.1777 19.6823 17.5668 19.6823C17.9559 19.6823 18.2714 19.9977 18.2714 20.3868V29.4049C17.4932 29.405 16.8623 28.7741 16.8623 27.9958Z" fill="#388067"/>
<path d="M19.6797 20.3868C19.6797 19.9977 19.9951 19.6823 20.3842 19.6823C20.7733 19.6823 21.0887 19.9977 21.0887 20.3868V31.6595C20.3106 31.6595 19.6797 31.0286 19.6797 30.2504V28.5595V20.3868Z" fill="#388067"/>
<path d="M22.498 19.5413V16.1595C22.498 15.7705 22.8135 15.455 23.2026 15.455C23.5917 15.455 23.9071 15.7705 23.9071 16.1595V29.9686C23.1289 29.9686 22.498 29.3377 22.498 28.5595V19.8232V19.5413Z" fill="#388067"/>
<path d="M14.0459 1.36371V4.88646C14.0459 5.27555 14.3613 5.59099 14.7504 5.59099H25.3186C25.7077 5.59099 26.0231 5.27555 26.0231 4.88646V1.36371C26.0231 0.974619 25.7077 0.65918 25.3186 0.65918H14.7505C14.3613 0.65918 14.0459 0.974619 14.0459 1.36371Z" fill="#388067"/>
<path d="M16.1593 1.36376C16.1593 2.53112 17.1056 3.47735 18.2729 3.47735H26.0231V4.88686C26.0231 5.27595 25.7077 5.59139 25.3186 5.59139H14.7504C14.3613 5.59139 14.0459 5.27595 14.0459 4.88686V1.3642C14.0459 0.975107 14.3613 0.659668 14.7504 0.659668H16.1593V1.36376Z" fill="#388067"/>
<path d="M15.1731 5.591V7.93804C15.1731 8.71956 15.0876 9.4988 14.918 10.2617L14.3009 13.0388C14.1314 13.8015 14.0459 14.5804 14.0459 15.3616V25.0985C14.0459 25.8762 14.6398 26.5976 15.455 26.5874V15.362C15.455 14.6835 15.5292 14.0069 15.6764 13.3445L16.2937 10.5669C16.3988 10.0937 16.4755 9.54468 16.5232 8.99958C16.5873 8.26824 17.1919 7.70469 17.926 7.70469H25.3186V5.591H15.1731Z" fill="#388067"/>
<path d="M37.0627 15.1728C36.2813 15.1728 35.5022 15.0872 34.7394 14.9177L31.962 14.3004C31.1993 14.131 30.4203 14.0455 29.6391 14.0455H19.899C19.1971 14.0455 18.5466 14.5251 18.4338 15.2179C18.2902 16.1007 18.9678 16.8637 19.8236 16.8637H17.0809C16.379 16.8637 15.7284 17.3433 15.6157 18.0361C15.4721 18.9189 16.1497 19.6819 17.0055 19.6819H14.8263C14.1244 19.6819 13.4739 20.1615 13.3611 20.8544C13.2174 21.737 13.895 22.5 14.7508 22.5H16.4418C15.586 22.5 14.9084 23.2629 15.0519 24.1457C15.1646 24.8385 15.8151 25.3181 16.517 25.3181H25.178H25.4599C24.54 25.3181 23.7917 26.0526 23.7695 26.9671C23.7538 27.6095 24.2925 28.1364 24.935 28.1364H32.5053C33.9004 28.1364 35.1252 27.4117 35.8262 26.3186C36.2206 25.7037 36.8864 25.3182 37.6169 25.3182H39.4097V15.1728H37.0627Z" fill="#388067"/>
<path d="M19.8231 16.8637H25.3186C25.7077 16.8637 26.0231 16.5483 26.0231 16.1592C26.0231 15.7701 25.7077 15.4547 25.3186 15.4547H18.4141C18.4141 16.2328 19.0449 16.8637 19.8231 16.8637Z" fill="#388067"/>
<path d="M17.0038 19.6818H24.6128C25.0019 19.6818 25.3173 19.3663 25.3173 18.9772C25.3173 18.5881 25.0019 18.2727 24.6128 18.2727H15.5947C15.5947 19.0509 16.2256 19.6818 17.0038 19.6818Z" fill="#388067"/>
<path d="M24.6135 22.5C25.0026 22.5 25.318 22.1846 25.318 21.7955C25.318 21.4064 25.0026 21.0909 24.6135 21.0909H13.3408C13.3408 21.8691 13.9717 22.5 14.7499 22.5H16.4408H24.6135Z" fill="#388067"/>
<path d="M25.4585 25.3182H28.8403C29.2293 25.3182 29.5448 25.0028 29.5448 24.6137C29.5448 24.2246 29.2293 23.9092 28.8403 23.9092H15.0312C15.0312 24.6874 15.6621 25.3182 16.4403 25.3182H25.1766H25.4585Z" fill="#388067"/>
<path d="M43.6365 14.0455H40.1137C39.7246 14.0455 39.4092 14.3609 39.4092 14.75V25.3181C39.4092 25.7072 39.7246 26.0227 40.1137 26.0227H43.6365C44.0255 26.0227 44.341 25.7072 44.341 25.3181V14.7501C44.341 14.3609 44.0255 14.0455 43.6365 14.0455Z" fill="#388067"/>
<path d="M43.6364 23.9091C42.469 23.9091 41.5228 22.9627 41.5228 21.7955V14.0455H40.1137C39.7246 14.0455 39.4092 14.361 39.4092 14.7501V25.3182C39.4092 25.7073 39.7246 26.0227 40.1137 26.0227H43.6365C44.0255 26.0227 44.341 25.7073 44.341 25.3182V23.9091H43.6364V23.9091Z" fill="#388067"/>
<path d="M37.295 15.1727V22.799C37.295 23.3885 36.9247 23.907 36.3734 24.1155C35.7022 24.3693 35.1237 24.8499 34.7051 25.4698C34.1778 26.2507 33.3055 26.7273 32.3633 26.7273H23.7885C23.7473 26.9708 23.74 27.4124 24.0718 27.7633C24.4294 28.1417 24.7431 28.1363 25.1742 28.1363H32.5042C33.8993 28.1363 35.1242 27.4117 35.8252 26.3186C36.2195 25.7037 36.8854 25.3182 37.6159 25.3182H39.4087V15.1727H37.295Z" fill="#388067"/>
<path d="M43.6363 13.3864H40.1135C39.4423 13.3864 38.8842 13.8742 38.7717 14.5136H37.0618C36.3299 14.5136 35.5964 14.4331 34.8817 14.2743L32.1041 13.6571C31.2958 13.4774 30.4661 13.3864 29.6379 13.3864H28.7954V12.4955C28.7954 10.1741 27.7476 9.30788 26.6743 8.61961C26.2378 8.33968 25.9772 7.87772 25.9772 7.38378V6.07939C26.3968 5.84657 26.6817 5.3993 26.6817 4.88637V1.36371C26.6819 0.611719 26.0701 0 25.3181 0H14.7501C13.9981 0 13.3864 0.611719 13.3864 1.36371V4.88646C13.3864 5.55759 13.8742 6.11578 14.5136 6.22828V7.93819C14.5136 8.67015 14.4331 9.40359 14.2743 10.1183L13.6571 12.8959C13.4774 13.7042 13.3864 14.5339 13.3864 15.3621V16.2046H12.4955C10.1741 16.2046 9.30788 17.2524 8.61961 18.3257C8.33968 18.7622 7.87772 19.0228 7.38378 19.0228H6.07939C5.84657 18.6032 5.3993 18.3183 4.88637 18.3183H1.36371C0.611719 18.3181 0 18.9299 0 19.6819V30.25C0 31.002 0.611719 31.6137 1.36371 31.6137H4.88646C5.55759 31.6137 6.11578 31.1259 6.22828 30.4864H7.93819C8.67015 30.4864 9.40359 30.567 10.1183 30.7258L12.8959 31.343C13.7042 31.5227 14.5339 31.6137 15.3621 31.6137H16.2046V32.5046C16.2046 34.826 17.2524 35.6922 18.3257 36.3805C18.7622 36.6604 19.0228 37.1224 19.0228 37.6163V38.9207C18.6032 39.1535 18.3183 39.6008 18.3183 40.1137V43.6365C18.3183 44.3885 18.93 45.0002 19.682 45.0002H30.2501C31.0021 45.0002 31.6138 44.3885 31.6138 43.6365V40.1137C31.6138 39.4426 31.126 38.8844 30.4865 38.7719V37.062C30.4865 36.33 30.567 35.5966 30.7259 34.8819L31.3431 32.1042C31.5228 31.296 31.6138 30.4663 31.6138 29.6381V28.7955H32.5047C34.826 28.7955 35.6923 27.7477 36.3806 26.6744C36.6605 26.2379 37.1225 25.9773 37.6164 25.9773H38.9208C39.1536 26.397 39.6009 26.6819 40.1138 26.6819H43.6366C44.3885 26.6819 45.0003 26.0702 45.0003 25.3182V14.7501C45 13.9981 44.3883 13.3864 43.6363 13.3864ZM14.7047 1.36371C14.7047 1.33866 14.725 1.31836 14.7501 1.31836H25.3182C25.3433 1.31836 25.3636 1.33866 25.3636 1.36371V4.88646C25.3636 4.9115 25.3433 4.93181 25.3182 4.93181H23.9094C23.5454 4.93181 23.2502 5.22694 23.2502 5.59099C23.2502 5.95503 23.5454 6.25017 23.9094 6.25017H24.659V7.38378C24.659 8.32896 25.1464 9.20584 25.9627 9.7294C26.8776 10.3161 27.4772 10.8255 27.4772 12.4955V13.3864H19.8228C18.6823 13.3864 17.7545 14.3142 17.7545 15.4546C17.7545 15.7191 17.805 15.9718 17.8958 16.2045H17.0046C15.8642 16.2045 14.9364 17.1323 14.9364 18.2727C14.9364 18.5372 14.9868 18.79 15.0777 19.0226H14.7502C14.735 19.0226 14.7199 19.0234 14.7048 19.0238V15.3619C14.7048 14.6297 14.7853 13.8963 14.9441 13.1817L15.5614 10.4041C15.741 9.59572 15.8321 8.76595 15.8321 7.93802V6.25017H21.0913C21.4553 6.25017 21.7505 5.95503 21.7505 5.59099C21.7505 5.22694 21.4553 4.93181 21.0913 4.93181H14.7502C14.7251 4.93181 14.7048 4.9115 14.7048 4.88646V1.36371H14.7047ZM24.6589 28.5104V28.559C24.6589 28.9725 24.3225 29.3089 23.9091 29.3089C23.4956 29.3089 23.1592 28.9724 23.1592 28.559V25.9772H24.0762C23.9233 26.2889 23.8371 26.639 23.8371 27.009C23.837 27.6388 24.1654 28.1922 24.6589 28.5104ZM21.8408 28.5591V30.2499C21.8408 30.6635 21.5044 30.9998 21.0909 30.9998C20.6775 30.9998 20.3411 30.6634 20.3411 30.2499V27.9954V25.9774H21.8408V28.5591ZM19.0227 27.9954C19.0227 28.409 18.6863 28.7453 18.2728 28.7453C17.8594 28.7453 17.5229 28.4089 17.5229 27.9954V25.9774H19.0227V27.9954ZM14.7047 25.0309C15.021 25.5187 15.5367 25.8657 16.1358 25.9546C16.0159 26.2151 15.7525 26.391 15.4546 26.391C15.0411 26.391 14.7047 26.0546 14.7047 25.6411V25.0309ZM13.1818 30.056L10.4042 29.4388C9.59581 29.2591 8.76604 29.1681 7.93811 29.1681H6.25017V23.9089C6.25017 23.5448 5.95503 23.2497 5.59099 23.2497C5.22694 23.2497 4.93181 23.5448 4.93181 23.9089V30.25C4.93181 30.2751 4.9115 30.2954 4.88646 30.2954H1.36371C1.33866 30.2954 1.31836 30.2751 1.31836 30.25V19.6819C1.31836 19.6568 1.33866 19.6365 1.36371 19.6365H4.88646C4.9115 19.6365 4.93181 19.6568 4.93181 19.6819V21.0907C4.93181 21.4547 5.22694 21.7499 5.59099 21.7499C5.95503 21.7499 6.25017 21.4547 6.25017 21.0907V20.3411H7.38378C8.32896 20.3411 9.20584 19.8537 9.7294 19.0374C10.3161 18.1225 10.8255 17.5229 12.4955 17.5229H13.3864V19.538C12.9549 19.9173 12.6818 20.4727 12.6818 21.091C12.6818 21.7093 12.9549 22.2647 13.3864 22.6441V25.6412C13.3864 26.7817 14.3142 27.7095 15.4546 27.7095C15.7177 27.7095 15.9706 27.6584 16.2045 27.5671V27.9955C16.2045 29.136 17.1323 30.0638 18.2727 30.0638C18.5372 30.0638 18.79 30.0133 19.0226 29.9225V30.25C19.0226 30.2652 19.0234 30.2803 19.0238 30.2954H15.3619C14.6298 30.2953 13.8963 30.2148 13.1818 30.056ZM30.2953 29.638C30.2953 30.3702 30.2148 31.1036 30.056 31.8182L29.4387 34.5958C29.2591 35.4042 29.168 36.234 29.168 37.0619V38.7499H23.9088C23.5448 38.7499 23.2496 39.0451 23.2496 39.4091C23.2496 39.7731 23.5448 40.0683 23.9088 40.0683H30.2499C30.275 40.0683 30.2953 40.0886 30.2953 40.1136V43.6364C30.2953 43.6614 30.275 43.6817 30.2499 43.6817H19.6819C19.6568 43.6817 19.6365 43.6614 19.6365 43.6364V40.1136C19.6365 40.0886 19.6568 40.0683 19.6819 40.0683H21.0907C21.4547 40.0683 21.7499 39.7731 21.7499 39.4091C21.7499 39.0451 21.4547 38.7499 21.0907 38.7499H20.3411V37.6163C20.3411 36.6711 19.8537 35.7942 19.0374 35.2707C18.1225 34.684 17.5229 34.1746 17.5229 32.5046V31.6137H19.538C19.9173 32.0452 20.4727 32.3183 21.091 32.3183C22.1534 32.3183 23.0309 31.513 23.1461 30.4808C23.3824 30.575 23.6397 30.6273 23.9091 30.6273C24.9696 30.6273 25.8457 29.825 25.9635 28.7955H30.2954V29.638H30.2953ZM43.6816 25.3181C43.6816 25.3432 43.6613 25.3635 43.6363 25.3635H40.1135C40.0885 25.3635 40.0682 25.3432 40.0682 25.3181V23.9093C40.0682 23.5453 39.7731 23.2501 39.409 23.2501C39.045 23.2501 38.7498 23.5453 38.7498 23.9093V24.6589H37.6162C36.671 24.6589 35.7942 25.1463 35.2706 25.9626C34.6839 26.8775 34.1745 27.4771 32.5045 27.4771H25.6235C25.3653 27.4771 25.1554 27.2671 25.1554 27.009C25.1554 26.44 25.6182 25.9772 26.1871 25.9772H28.559C28.923 25.9772 29.2182 25.6821 29.2182 25.318C29.2182 24.954 28.923 24.6589 28.559 24.6589H16.4409C16.0274 24.6589 15.691 24.3224 15.691 23.909C15.691 23.4955 16.0275 23.1591 16.4409 23.1591H25.1772C25.5413 23.1591 25.8364 22.864 25.8364 22.4999C25.8364 22.1359 25.5413 21.8407 25.1772 21.8407H14.7501C14.3365 21.8407 14.0002 21.5043 14.0002 21.0908C14.0002 20.6774 14.3366 20.341 14.7501 20.341H25.1773C25.5414 20.341 25.8365 20.0458 25.8365 19.6818C25.8365 19.3177 25.5414 19.0226 25.1773 19.0226H17.0046C16.5911 19.0226 16.2548 18.6862 16.2548 18.2727C16.2548 17.8593 16.5912 17.5228 17.0046 17.5228H25.741C26.105 17.5228 26.4001 17.2277 26.4001 16.8637C26.4001 16.4996 26.105 16.2045 25.741 16.2045H19.8229C19.4093 16.2045 19.073 15.868 19.073 15.4546C19.073 15.0412 19.4094 14.7047 19.8229 14.7047H29.6382C30.3703 14.7047 31.1038 14.7852 31.8183 14.944L34.5959 15.5613C35.4044 15.7409 36.2341 15.832 37.0621 15.832H38.7501V21.0912C38.7501 21.4552 39.0452 21.7504 39.4093 21.7504C39.7733 21.7504 40.0685 21.4552 40.0685 21.0912V14.7501C40.0685 14.725 40.0888 14.7047 40.1138 14.7047H43.6366C43.6616 14.7047 43.6819 14.725 43.6819 14.7501V25.3181H43.6816Z" fill="#F1F1F1"/>
</svg>
