<svg width="16" height="16" viewBox="0 0 16 16" fill="none" xmlns="http://www.w3.org/2000/svg">
<path d="M13.5267 5.02954L13.5268 5.02955C13.6434 4.91684 13.7997 4.85448 13.962 4.85589C14.1242 4.8573 14.2794 4.92237 14.3941 5.03709C14.5088 5.15181 14.5739 5.307 14.5753 5.46924C14.5767 5.63147 14.5144 5.78777 14.4017 5.90446L14.3999 5.90634L14.3998 5.90632L8.62171 11.6844L8.6217 11.6845C8.50566 11.8005 8.34831 11.8656 8.18424 11.8656C8.02017 11.8656 7.86282 11.8005 7.74678 11.6845L7.74677 11.6844L1.96864 5.90632L1.96861 5.90629C1.91116 5.84881 1.8656 5.78057 1.83453 5.70547C1.80346 5.63039 1.78749 5.54992 1.78752 5.46866L13.5267 5.02954ZM13.5267 5.02954L13.5249 5.03138M13.5267 5.02954L13.5249 5.03138M13.5249 5.03138L8.1844 10.3719L2.84393 5.03141C2.84392 5.0314 2.84391 5.03139 2.8439 5.03138C2.75739 4.94483 2.64717 4.88588 2.52716 4.86197C2.40714 4.83806 2.28272 4.85028 2.16964 4.89708C2.05656 4.94389 1.9599 5.02317 1.89188 5.12491C1.82387 5.22664 1.78755 5.34626 1.78752 5.46863L13.5249 5.03138Z" fill="white" stroke="white" stroke-width="0.3"/>
</svg>
