<svg width="16" height="16" viewBox="0 0 16 16" fill="none" xmlns="http://www.w3.org/2000/svg">
<path d="M2.47326 9.97046L2.47325 9.97044C2.35655 10.0832 2.20025 10.1455 2.03802 10.1441C1.87578 10.1427 1.72059 10.0776 1.60587 9.96291C1.49115 9.84819 1.42608 9.693 1.42467 9.53076C1.42326 9.36853 1.48563 9.21223 1.59834 9.09553L1.60015 9.09366L1.60016 9.09367L7.37829 3.31555L7.3783 3.31553C7.49434 3.19954 7.65169 3.13437 7.81576 3.13437C7.97983 3.13437 8.13718 3.19954 8.25322 3.31553L8.25323 3.31555L14.0314 9.09367L14.0314 9.09371C14.0888 9.15119 14.1344 9.21943 14.1655 9.29452C14.1965 9.36961 14.2125 9.45008 14.2125 9.53133L2.47326 9.97046ZM2.47326 9.97046L2.47511 9.96862M2.47326 9.97046L2.47511 9.96862M2.47511 9.96862L7.8156 4.62812L13.1561 9.96858C13.1561 9.96859 13.1561 9.9686 13.1561 9.96862C13.2426 10.0552 13.3528 10.1141 13.4728 10.138C13.5929 10.1619 13.7173 10.1497 13.8304 10.1029C13.9434 10.0561 14.0401 9.97682 14.1081 9.87508C14.1761 9.77335 14.2124 9.65374 14.2125 9.53137L2.47511 9.96862Z" fill="white" stroke="white" stroke-width="0.3"/>
</svg>
