<svg width="49" height="49" viewBox="0 0 49 49" fill="none" xmlns="http://www.w3.org/2000/svg">
<circle cx="24.5" cy="24.5" r="24.5" fill="#F1F1F1"/>
<path d="M23.9999 14C24.6565 14 25.3067 14.1293 25.9133 14.3806C26.52 14.6319 27.0712 15.0002 27.5355 15.4645C27.9998 15.9288 28.3681 16.48 28.6193 17.0866C28.8706 17.6932 28.9999 18.3434 28.9999 19V23C28.9999 24.3261 28.4731 25.5979 27.5355 26.5355C26.5978 27.4732 25.326 28 23.9999 28C22.6738 28 21.4021 27.4732 20.4644 26.5355C19.5267 25.5979 18.9999 24.3261 18.9999 23V19C18.9999 17.6739 19.5267 16.4021 20.4644 15.4645C21.4021 14.5268 22.6738 14 23.9999 14ZM15.0549 24H17.0699C17.3122 25.6648 18.1458 27.1867 19.4182 28.2873C20.6905 29.3879 22.3166 29.9936 23.9989 29.9936C25.6813 29.9936 27.3073 29.3879 28.5797 28.2873C29.8521 27.1867 30.6856 25.6648 30.9279 24H32.9439C32.7166 26.0287 31.8066 27.9199 30.3631 29.3635C28.9197 30.8071 27.0286 31.7174 24.9999 31.945V36H22.9999V31.945C20.9711 31.7176 19.0797 30.8074 17.6361 29.3638C16.1925 27.9202 15.2823 26.0289 15.0549 24Z" fill="#388067"/>
</svg>
