<svg width="49" height="49" viewBox="0 0 49 49" fill="none" xmlns="http://www.w3.org/2000/svg">
<circle cx="24.5" cy="24.5" r="24.5" fill="#F1F1F1"/>
<path d="M15 16.993C15 16.445 15.445 16 15.993 16H32.007C32.555 16 33 16.445 33 16.993V33.007C32.9997 33.2703 32.895 33.5227 32.7089 33.7089C32.5227 33.895 32.2703 33.9997 32.007 34H15.993C15.7297 33.9997 15.4773 33.895 15.2911 33.7089C15.105 33.5227 15.0003 33.2703 15 33.007V16.993ZM22.622 21.415C22.5618 21.3748 22.4919 21.3518 22.4196 21.3482C22.3473 21.3447 22.2755 21.3608 22.2116 21.3949C22.1478 21.4289 22.0944 21.4797 22.0572 21.5417C22.0199 21.6037 22.0001 21.6747 22 21.747V28.253C22.0001 28.3253 22.0199 28.3963 22.0572 28.4583C22.0944 28.5203 22.1478 28.5711 22.2116 28.6051C22.2755 28.6392 22.3473 28.6553 22.4196 28.6518C22.4919 28.6482 22.5618 28.6252 22.622 28.585L27.501 25.333C27.5559 25.2965 27.6009 25.247 27.632 25.1889C27.6631 25.1308 27.6794 25.0659 27.6794 25C27.6794 24.9341 27.6631 24.8692 27.632 24.8111C27.6009 24.753 27.5559 24.7035 27.501 24.667L22.621 21.415H22.622Z" fill="#388067"/>
</svg>
