<svg width="47" height="47" viewBox="0 0 47 47" fill="none" xmlns="http://www.w3.org/2000/svg">
<circle cx="23.5" cy="23.5" r="23.5" fill="white"/>
<path fill-rule="evenodd" clip-rule="evenodd" d="M19.3333 16.8069C19.3333 15.8108 18.5855 15 17.6667 15C16.7425 15 16 15.8108 16 16.8069C16 17.8031 16.7425 18.6139 17.6667 18.6139C18.5855 18.6139 19.3333 17.8031 19.3333 16.8069ZM19.0983 19.9807H16.2244V30H19.0983V19.9807Z" fill="#388067"/>
<path d="M21.8333 20.237H24.65V21.5745H24.6883C25.0821 20.807 26.0392 20 27.4722 20C30.4475 20 30.9999 22.0203 30.9999 24.6501V30H28.0629V25.254C28.0629 24.1196 28.0465 22.6637 26.5369 22.6637C25.0055 22.6637 24.7758 23.8995 24.7758 25.1693V30H21.8387L21.8333 20.237Z" fill="#388067"/>
</svg>
