<svg width="264" height="68" viewBox="0 0 264 68" fill="none" xmlns="http://www.w3.org/2000/svg">
<path d="M36.0249 42.3634C35.8301 42.5284 36.7916 42.7777 36.3015 42.9663C35.8102 43.1537 35.5311 43.872 35.5311 43.872C35.5311 43.872 33.9492 43.2839 34.2768 42.9848C34.4976 42.7801 33.2334 41.6785 33.3686 41.4514C33.5163 41.2045 35.1837 41.6561 35.2358 41.9874C35.2631 42.1648 36.1911 42.2218 36.0248 42.3633L36.0249 42.3634ZM42.414 44.0046L41.9177 42.5853C41.7403 42.0395 41.5517 41.5184 42.1398 40.9514C42.641 40.4663 43.3333 40.4712 43.7923 40.8062C44.6148 41.4031 44.3605 42.7094 43.7154 43.5878C43.7154 43.5878 43.9325 43.7751 43.8296 43.9836C43.6931 44.259 43.4474 44.919 43.1832 45.027C42.9214 45.1336 42.6138 45.5802 42.558 45.7999C42.4116 46.3842 42.6671 44.7106 42.414 44.0047L42.414 44.0046ZM44.4015 39.3311C44.7874 39.7157 45.8208 39.521 46.3332 39.4577C46.8469 39.3932 46.7712 40.1574 46.729 40.6438C46.6843 41.1586 45.9598 41.7206 45.9598 41.7206L45.7191 41.5469C45.512 41.7331 45.2936 41.7032 45.1447 41.5941C45.0381 41.5172 44.9512 41.4068 44.9103 41.3112C44.7428 40.9502 44.3582 40.5743 44.1634 40.434C43.7466 40.1302 43.2515 39.9812 42.7354 39.975C42.7354 39.975 44.0183 38.9477 44.4016 39.3311L44.4015 39.3311ZM42.7267 61.0387C44.0778 60.8141 46.1038 61.9406 48.1296 61.7149C50.1568 61.4903 49.3529 61.102 49.3529 61.102C49.3529 61.102 47.5713 60.7807 46.4386 58.9992C45.3059 57.2176 45.4672 51.713 45.9523 50.5794C46.4386 49.4467 47.8951 48.7991 47.8951 48.7991C47.8951 48.7991 49.8392 49.2854 50.4856 49.1229L52.7523 49.608C52.7523 49.608 52.591 50.5794 53.3999 50.9044C54.2101 51.227 55.6665 51.5509 56.638 51.227C57.6095 50.9044 57.1243 50.0944 57.9333 50.0944C58.7434 50.0944 59.2285 51.3896 60.0387 51.8746C60.8474 52.3609 60.6862 51.7133 61.6576 52.3609C62.6291 53.0085 63.5992 53.4949 64.4094 52.8473C65.2183 52.1997 64.8957 51.8746 65.2183 51.227C65.542 50.5794 66.6748 50.0943 66.5148 49.4468C66.3522 48.7992 65.7046 48.3128 66.0283 47.5039C66.3522 46.695 67.1611 45.5598 67.1611 45.5598C67.1611 45.5598 68.6177 45.5598 69.2664 45.236C69.9129 44.9135 70.3992 45.0748 69.7516 44.2658C69.1053 43.457 68.7801 42.6467 68.7801 42.6467C68.7801 42.6467 69.9129 41.8378 69.7516 41.1902C69.5903 40.5426 69.7516 40.7038 70.3992 40.0575C71.0481 39.4086 70.2379 39.0835 70.2379 38.1134C70.2379 37.1431 70.3992 36.6568 70.8855 36.3331C71.3694 36.0092 71.0481 35.3616 72.0182 35.2003C72.9897 35.0378 72.8967 34.5255 73.2204 33.8766C73.5443 33.229 72.6647 32.2848 71.8569 31.7997C71.0481 31.3134 71.8569 30.6658 70.7242 30.5045C69.5902 30.3419 69.2664 31.4759 69.2664 30.5045C69.2664 29.533 69.5903 28.5617 69.5903 28.5617C69.5903 28.5617 69.7515 28.2378 68.7801 27.4277C67.81 26.6188 67.9713 26.4562 67.1611 26.4562C66.3523 26.4562 65.3809 26.6188 64.8957 25.8099C64.4094 24.9998 65.8672 25.161 65.2183 24.3521C64.572 23.5432 64.0856 23.7045 63.5992 22.8955C63.1141 22.0855 63.5992 21.4378 62.7904 21.114C61.9803 20.7902 61.9803 20.7902 60.8474 21.114C59.7147 21.4379 59.2285 21.7616 59.391 20.9527C59.5522 20.1427 59.8761 20.304 59.8761 19.495C59.8761 18.686 60.5236 18.5235 60.1999 17.5521C59.8761 16.5806 59.5522 16.4193 59.5522 15.7717C59.5522 15.1241 59.391 15.6093 58.9047 14.9629C58.4196 14.3154 59.2285 13.8289 58.257 13.5051C57.2856 13.1813 56.153 13.8289 55.8291 13.1813C55.5054 12.5337 55.5054 12.2099 54.8577 11.7235C54.2101 11.2384 53.8862 11.7235 53.2386 10.9134C52.5911 10.1058 52.2672 10.5908 51.7809 9.94316C51.2958 9.29554 51.9434 9.61942 51.2958 8.81048C50.6481 7.99917 50.3243 8.32415 49.5142 7.83782C48.7053 7.35265 48.7053 6.54256 47.7339 6.70502C46.7624 6.86632 46.6011 6.86632 46.6011 7.67652C46.6011 8.48539 45.791 8.97178 46.7624 9.29548C47.7339 9.61936 48.3802 10.267 47.5713 10.267C46.7624 10.267 46.7624 10.1057 46.1135 9.78066C45.4672 9.45678 44.9808 8.97178 44.1707 8.64913C43.3618 8.3241 43.8481 9.61936 42.7154 9.1343C41.5814 8.64913 42.2291 8.4854 41.4189 7.83778C40.6101 7.19147 40.7726 7.02763 39.8011 6.70498C38.8297 6.38124 38.8297 6.05624 37.8583 6.54254C36.8868 7.02758 37.3732 6.86628 36.2392 7.19143C35.1053 7.5139 34.6201 7.3526 34.944 8.16282C35.2678 8.9717 35.4291 9.29551 34.6202 9.78068C33.8113 10.267 34.2963 11.2384 33.6474 10.9134C33.0011 10.5908 32.5147 11.0759 32.1922 10.1058C31.8671 9.13437 32.439 9.04746 32.0296 8.6492C31.4242 8.05622 31.2195 9.45681 30.0868 9.61943C28.9541 9.78072 29.6005 9.94318 28.9541 10.5908C28.3065 11.2384 30.5719 11.401 28.6302 12.2099C26.6874 13.0188 26.8487 12.2099 26.2011 13.0188C25.5535 13.8289 25.8773 13.9902 24.9058 14.3153C23.9344 14.6378 24.2583 14.1515 23.2868 15.1241C22.3153 16.0943 21.8303 15.933 21.8303 16.9045C21.8303 17.8759 22.4778 17.8759 21.6677 18.5235C20.8589 19.1711 21.0202 19.6563 21.5064 20.4663C21.9915 21.2765 23.1242 22.5717 21.8303 22.0855C20.535 21.6003 20.2112 21.114 20.0499 21.7616C19.8874 22.4092 19.2398 22.2479 18.916 23.3807C18.5922 24.5147 18.916 23.7044 19.0773 24.8384C19.2398 25.9712 20.1269 25.8609 18.1753 26.1709C17.2436 26.3185 17.782 26.7813 16.6493 27.1039C15.5154 27.4278 14.8677 27.1039 14.7065 27.9141C14.544 28.7241 15.1916 29.2093 14.3827 29.6943C13.5725 30.1806 13.7351 30.3419 13.2499 31.3134C12.7636 32.2848 11.9547 32.77 11.9547 33.7426C11.9547 34.714 12.9249 34.8766 12.116 35.8479C11.3071 36.8181 11.3071 36.8181 11.9547 37.7896C12.601 38.761 13.4112 38.9235 13.4112 39.8961C13.4112 40.8663 13.0874 41.3514 13.735 42.1616C14.3826 42.9704 16.0017 43.2942 15.0303 44.1031C14.0589 44.9133 14.544 44.5894 13.5725 45.2358C12.6011 45.8847 11.7922 45.3997 12.4398 46.5323C13.0874 47.6663 13.735 47.0175 13.735 48.3128C13.735 49.608 14.2214 49.608 15.3541 50.0943C16.4881 50.5793 16.8107 52.1996 17.6208 51.7133C18.4296 51.2269 18.4296 50.9044 19.0773 52.0371C19.7249 53.1711 20.2113 54.1424 20.6964 53.1711C21.1827 52.1996 21.5065 52.3609 22.1529 52.0371C22.8018 51.7133 22.1529 51.3895 23.2869 51.3895C24.4196 51.3895 24.4196 52.0371 25.2297 51.5509C26.0399 51.0657 25.3923 50.4181 26.3637 50.5794C27.3339 50.7419 27.4964 50.7419 27.659 51.3895C27.8202 52.0371 27.6676 52.3708 28.6391 52.3708C29.6105 52.3708 29.8885 51.0285 30.0497 51.8386C30.2123 52.6462 31.0212 53.4564 31.6688 53.2951C32.3164 53.1338 32.9641 53.7814 32.8015 52.6462C32.6402 51.5148 33.325 52.0371 33.4863 51.2269C33.6476 50.4181 33.4763 49.9404 33.9565 49.366C34.516 48.6948 36.078 48.6377 36.078 48.6377C36.078 48.6377 37.8583 48.3127 39.1536 49.933C40.4488 51.5508 40.5977 53.1152 40.6101 55.2752C40.6188 56.6808 40.7305 57.6113 40.0394 58.837C39.3931 59.9835 37.4948 61.0553 37.4948 61.0553C37.4948 61.0553 36.779 61.693 37.9998 61.7153C39.0904 61.734 42.0902 61.1458 42.7266 61.0391L42.7267 61.0387ZM35.819 47.0422C35.5746 46.8946 35.051 47.4678 34.2893 47.2593C33.6119 47.0745 33.4295 46.9194 33.159 47.2903C32.4779 48.2295 32.1169 47.4107 31.8464 47.2903C31.4146 46.9318 32.3439 46.3945 33.2322 45.9503C33.8785 45.6266 33.4542 44.3673 34.2384 44.3673C34.5336 44.3673 34.4691 45.1005 35.1168 44.8152C35.721 44.5473 35.4183 45.7209 35.4183 45.7209L35.6552 45.8946C35.8798 45.7519 36.0547 45.7035 36.2495 45.8437C36.4889 46.0174 36.7259 46.6699 37.3264 47.1079C37.4864 47.2196 37.6526 47.3152 37.8251 47.3946C38.0087 47.4778 36.6477 47.5398 35.819 47.0422L35.819 47.0422ZM39.6476 43.6007L40.0409 44.8661C40.2556 45.4232 40.3412 45.9827 39.7531 46.5496C39.1279 47.1538 38.3102 47.1365 37.7259 46.7122C36.8066 46.0447 37.2098 44.6391 37.9318 43.6887C37.9318 43.6887 37.4927 42.6105 37.5621 42.3699C37.6415 42.087 38.0646 40.9742 38.4244 41.6503C38.7854 42.329 39.3412 42.6106 39.6477 43.6007L39.6476 43.6007ZM46.6968 42.5212C46.4723 42.7434 46.2949 42.6851 46.0096 43.2681C45.7254 43.8525 45.3756 44.6775 45.3756 44.6775C45.3756 44.6775 46.4016 44.4034 46.8073 44.0349C47.0827 43.7831 47.6125 43.3328 47.9053 43.1913C48.2241 43.0362 48.4759 42.5909 48.1249 42.3986C47.7738 42.2026 47.7093 42.7299 47.3086 42.6293C47.0927 42.576 46.8892 42.3316 46.6969 42.5214L46.6968 42.5212ZM50.0616 46.958C51.7687 47.1614 52.0268 47.9729 52.8369 47.8103C53.6458 47.6477 55.42 46.8947 54.456 47.0002C52.9982 47.1615 51.9139 45.6851 51.9139 45.6851C51.2068 46.7074 50.0616 46.958 50.0616 46.958L50.0616 46.958ZM46.9476 47.3116C47.9401 46.4631 49.5505 45.9729 50.1336 45.9729C50.7167 45.9729 52.8233 44.6951 50.9114 44.6243C50.1832 44.5971 50.3221 43.2696 49.579 43.2633C48.8557 43.258 48.7539 44.0375 48.2068 44.5115C47.7055 44.9432 47.388 45.0399 46.8855 45.5759C46.45 46.0387 46.419 46.6193 46.5009 46.8526C46.7242 47.4827 46.7292 46.7533 46.9475 47.3116L46.9476 47.3116ZM0 34.0206C0 15.3499 18.978 0.216797 42.3884 0.216797C65.8003 0.216797 84.7778 15.3505 84.7778 34.0206C84.7778 52.6907 65.8009 67.8234 42.3884 67.8234C18.979 67.8234 0 52.6913 0 34.0206Z" fill="#fff"/>
<path d="M115.88 38.1283C115.29 39.6134 114.422 40.756 113.298 41.524C112.171 42.2869 110.859 42.6753 109.394 42.6753C107.18 42.6753 105.324 41.8367 103.874 40.1842C102.415 38.5156 101.676 35.9635 101.676 32.6002C101.676 30.8769 101.963 29.2318 102.53 27.7108C103.091 26.2282 103.97 25.0793 105.138 24.2991C106.319 23.5199 107.678 23.1254 109.174 23.1254C110.541 23.1254 111.784 23.4504 112.869 24.0907C113.96 24.7357 114.89 25.8213 115.632 27.3175C116.383 28.8224 116.766 30.7579 116.766 33.0689C116.766 34.91 116.467 36.6122 115.88 38.1282L115.88 38.1283ZM117.648 24.1102C115.706 22.135 113.066 21.1338 109.801 21.1338C106.293 21.1338 103.386 22.2616 101.157 24.4861C98.9213 26.7056 97.7874 29.5864 97.7874 33.0469C97.7874 36.7242 98.7737 39.6097 100.719 41.6251C102.666 43.6435 105.339 44.6659 108.666 44.6659C112.211 44.6659 115.112 43.543 117.291 41.3272C119.471 39.109 120.576 36.0582 120.576 32.258C120.576 28.8263 119.59 26.0848 117.648 24.1106" fill="#fff"/>
<path d="M131.962 35.0665C131.961 35.0665 129.643 35.0193 129.485 35.0156C129.548 34.8668 130.931 31.5741 130.931 31.5741C130.931 31.5741 132.651 27.4798 132.751 27.2417C132.848 27.4724 135.972 34.8616 136.037 35.0152C135.873 35.0163 131.965 35.0661 131.962 35.0661V35.0665ZM145.042 42.3048H145.04C143.274 41.7912 142.985 41.6548 142.938 41.6262C142.938 41.6225 142.513 41.1249 142.513 41.1249C142.513 41.1196 139.068 33.6096 139.068 33.6096C137.136 29.2933 135.48 25.3693 134.146 21.9458L134.086 21.7834L132.756 21.7461C132.703 21.7808 128.552 31.4061 128.552 31.4061C126.262 36.6923 124.819 39.8613 124.265 40.8265C124.019 41.2358 123.787 41.525 123.574 41.685C123.279 41.9034 122.696 42.1118 121.84 42.304C121.841 42.304 121.644 42.3438 121.644 42.3438L121.598 43.7458V43.8053L125.296 43.6266L129.115 43.7979C129.176 43.742 129.181 43.479 129.181 43.479V42.4157C129.14 42.3612 128.495 42.1714 128.495 42.1714C127.108 41.8761 126.889 41.7768 126.855 41.7545C126.842 41.7371 126.833 41.7147 126.833 41.6738C126.833 41.5597 126.905 41.3091 127.169 40.685C127.169 40.685 128.655 37.102 128.658 37.0971C128.659 37.1317 132.503 37.106 132.503 37.106C132.503 37.106 136.914 37.132 136.916 37.132C136.915 37.132 136.914 37.132 136.914 37.1331C136.914 37.22 138.309 40.5498 138.309 40.5498C138.567 41.1738 138.596 41.4134 138.596 41.4878C138.596 41.5485 138.577 41.6441 138.421 41.762C138.381 41.7905 138.098 41.9531 136.453 42.298L136.251 42.3438L136.205 43.7409C136.264 43.798 140.973 43.6267 140.973 43.6267L145.197 43.798C145.257 43.7421 145.262 43.4791 145.262 43.4791V42.4158C145.221 42.3613 145.042 42.3054 145.042 42.3054" fill="#fff"/>
<path d="M148.198 22.4103V23.4909C148.244 23.5468 149.116 23.7266 149.116 23.7266C150.66 23.9872 151.232 24.2006 151.441 24.3334C151.41 24.2849 151.524 24.4549 151.524 24.4549C151.52 24.4522 151.562 24.6101 151.562 25.5851C151.562 25.5862 151.637 33.6628 151.637 33.6628L151.523 40.7479C151.498 41.4737 151.372 41.6151 151.359 41.6288C151.317 41.6673 151.003 41.8794 149.172 42.1474C149.181 42.1474 148.239 42.3421 148.239 42.3421C148.193 42.3993 148.198 42.6027 148.198 42.6027V43.7392C148.257 43.7962 153.552 43.6249 153.552 43.6249L158.332 43.7962C158.392 43.7403 158.401 43.4773 158.401 43.4773V42.3979C158.355 42.342 158.15 42.2962 158.15 42.2962C157.473 42.1659 155.754 41.8148 155.495 41.7304C155.242 41.6387 155.149 41.5468 155.116 41.4848C155.093 41.4364 155.036 41.2478 155.036 40.5704C155.036 40.5704 155.004 34.3919 155 33.6876C155.175 33.8563 156.656 35.2818 156.656 35.2818C160.086 38.5249 162.274 40.671 162.984 41.4873C162.984 41.4883 163.19 41.806 163.19 41.806L163.111 41.8929C163.079 41.9153 162.865 42.0195 161.634 42.3023L161.439 42.3458L161.394 43.7391C161.452 43.7961 166.875 43.6249 166.875 43.6249L171.835 43.7961C171.895 43.7402 171.898 43.4772 171.898 43.4772V42.3978C171.853 42.3419 171.652 42.3023 171.652 42.3023C169.866 41.909 168.787 41.6423 168.442 41.5083C168.434 41.5006 168.291 41.4177 167.51 40.9587C167.517 40.964 162.766 36.594 162.766 36.594C160.695 34.6512 159.141 33.1389 158.146 32.1004C158.203 32.1253 159.771 30.7381 159.771 30.7381C159.775 30.7355 163.812 27.051 163.812 27.051C163.813 27.051 163.886 26.9827 166.433 24.5933C166.433 24.5933 166.418 24.5922 166.409 24.5906C166.468 24.5757 166.606 24.5 167.075 24.2333C167.232 24.1688 167.766 23.9951 169.484 23.5857L169.68 23.5423L169.726 22.1491C169.665 22.0919 164.956 22.2582 164.956 22.2582L161.071 22.0919C161.012 22.1478 161.003 22.4083 161.003 22.4083V23.4765C161.045 23.5324 161.575 23.6763 161.575 23.6763C162.768 23.9257 163 24.0447 163.044 24.0757C163.048 24.0907 163.049 24.1067 163.049 24.1266C163.049 24.2841 162.918 24.6043 162.176 25.3697C159.851 27.7704 157.438 30.001 155.006 32.0096C155.01 31.7651 155.074 27.413 155.074 27.413C155.11 24.887 155.156 24.5099 155.165 24.4602C155.116 24.5073 155.362 24.2035 155.362 24.2035C155.363 24.2072 155.584 24.0955 157.51 23.7209C157.498 23.7209 158.353 23.5459 158.353 23.5459L158.4 22.149C158.341 22.0918 154 22.2444 154 22.2444C153.999 22.2444 153.076 22.2581 153.076 22.2581L148.261 22.0918C148.202 22.1477 148.197 22.4094 148.197 22.4094" fill="#fff"/>
<path d="M174.058 22.3888L173.525 28.4986L173.864 28.5023H175.215C175.27 28.4576 175.315 28.2653 175.315 28.2653C175.653 26.8659 175.916 25.9143 176.074 25.5173C176.262 25.0446 176.474 24.7283 176.69 24.5992C176.765 24.5459 176.986 24.4614 177.644 24.4614L178.293 24.4486H181.573C181.556 24.4497 181.548 25.1868 181.548 26.1719C181.548 28.1656 181.574 31.1767 181.574 31.1767L181.512 38.2132C181.476 41.058 181.424 41.3855 181.414 41.424C181.412 41.424 181.3 41.6213 181.3 41.6213C181.275 41.634 180.979 41.8025 179.111 42.1151C179.108 42.1162 178.099 42.3434 178.099 42.3434C178.067 42.3855 178.063 42.5009 178.063 42.5629C178.063 42.5865 178.064 43.7366 178.064 43.7366C178.122 43.7937 182.859 43.6224 182.859 43.6224L188.36 43.7937C188.419 43.7378 188.428 43.4748 188.428 43.4748V42.3954C188.383 42.3395 187.527 42.1597 187.527 42.1597C185.534 41.7689 185.247 41.6089 185.21 41.5803C185.192 41.5655 185.119 41.4811 185.098 41.1932C185.021 39.9117 184.984 37.4565 184.984 33.8975L185.098 24.3689L188.091 24.426C189.484 24.426 189.851 24.5402 189.943 24.5898C190.14 24.6866 190.293 24.8565 190.411 25.1109C190.484 25.287 190.699 25.9334 191.3 28.2657L191.349 28.458L192.982 28.5015H193.044L192.557 22.1509L192.253 22.0976C192.252 22.0976 183.759 22.2563 183.759 22.2563L174.137 22.0938C174.078 22.1459 174.057 22.3879 174.057 22.3879" fill="#fff"/>
<path d="M206.129 32.2359C206.122 32.2359 204.015 32.0907 204.013 32.0907C204.067 32.0896 204.151 24.3853 204.151 24.3768C204.155 24.4276 206.929 24.2688 206.929 24.2688C208.285 24.2688 209.332 24.6062 210.035 25.27C210.731 25.9312 211.084 26.8507 211.084 28.002C211.084 29.3344 210.682 30.3828 209.889 31.116C209.097 31.8591 207.831 32.2363 206.129 32.2363L206.129 32.2359ZM219.141 42.3056H219.142C217.887 42.0289 216.94 41.7696 216.399 41.5576C216.038 41.4223 215.745 41.2597 215.527 41.0762C215.442 41.0017 215.185 40.7226 214.421 39.714C214.421 39.714 210.013 33.9811 209.749 33.6374C210.727 33.3384 211.465 33.0257 211.982 32.6833C212.85 32.099 213.522 31.3745 213.978 30.5296C214.44 29.6785 214.673 28.691 214.673 27.5954C214.673 25.9491 214.154 24.6179 213.131 23.6365C212.099 22.6738 210.563 22.1862 208.568 22.1862C208.567 22.1862 206.388 22.2359 206.388 22.2359L203.861 22.2619L197.328 22.1006C197.268 22.1565 197.265 22.4132 197.265 22.4132V23.4939C197.311 23.5497 198.191 23.7345 198.191 23.7345C199.235 23.9045 199.957 24.1055 200.401 24.3499C200.401 24.3563 200.547 24.5347 200.547 24.5347C200.55 24.5583 200.591 24.8189 200.604 26.2729L200.665 33.255C200.629 39.6875 200.601 40.7186 200.591 40.8622C200.57 41.2109 200.49 41.464 200.364 41.5768C200.314 41.6253 200.009 41.8064 198.149 42.1674C198.148 42.1674 197.309 42.3447 197.309 42.3447L197.265 43.7418C197.324 43.7988 202.48 43.6276 202.48 43.6276L207.44 43.7988C207.5 43.7429 207.507 43.4799 207.507 43.4799V42.4006C207.462 42.3447 206.429 42.1202 206.429 42.1202C204.856 41.8311 204.447 41.6387 204.341 41.5495C204.253 41.4689 204.197 41.3138 204.18 41.1028C204.18 41.0952 204.079 34.3451 204.073 33.9977C204.181 34.0066 206.274 34.1566 206.275 34.1566C206.275 34.1913 209.42 38.5076 209.42 38.5076C209.421 38.5086 209.719 38.8933 209.719 38.8933L211.088 40.8635L212.969 43.763C213.018 43.789 213.19 43.7853 213.19 43.7853C213.191 43.7853 215.677 43.6227 215.677 43.6227L219.32 43.8039C219.38 43.7469 219.384 43.48 219.384 43.48V42.4007C219.339 42.3448 219.141 42.3051 219.141 42.3051" fill="#fff"/>
<path d="M222.026 22.1457V23.488C222.071 23.5439 223.85 23.9422 223.85 23.9422C224.865 24.1766 225.074 24.2647 225.114 24.287C225.114 24.2907 225.27 24.4595 225.27 24.4595C225.27 24.4697 225.351 24.7213 225.378 26.5785L225.411 32.8621L225.392 36.8223L225.309 40.311V40.5838C225.309 41.2898 225.201 41.507 225.155 41.5665C225.155 41.5665 225.067 41.6521 224.613 41.78C224.594 41.7837 224.279 41.8519 222.231 42.3034L222.033 42.3432L221.988 43.7352C222.046 43.7923 229.188 43.626 229.188 43.626L239.236 43.7923C239.291 43.755 239.357 43.5752 239.357 43.5752C239.357 43.5741 241.332 37.6316 241.332 37.6316L240.905 37.6215H239.766C239.718 37.6499 239.284 38.3868 239.284 38.3868C238.494 39.7987 237.986 40.6113 237.728 40.8718C237.478 41.1361 237.189 41.3235 236.847 41.4412C236.784 41.4611 236.483 41.5257 235.332 41.5257C235.331 41.5257 234.774 41.5405 234.774 41.5405H228.764C228.779 41.5394 228.785 40.8606 228.785 39.8966C228.785 37.506 228.749 33.3538 228.749 33.3538L232.541 33.411C234.213 33.411 234.579 33.5151 234.651 33.5461C234.825 33.6206 234.941 33.7334 235.008 33.8935C235.027 33.9407 235.14 34.2843 235.531 36.2532L235.569 36.4542L237.09 36.5001C237.147 36.4405 236.981 32.4196 236.981 32.4196L237.147 28.3814C237.091 28.3218 236.822 28.3168 236.822 28.3168H235.639C235.583 28.3602 235.397 29.0748 235.397 29.0748C235.104 30.4742 234.936 30.8639 234.864 30.9718C234.747 31.1418 234.603 31.2522 234.421 31.3092C234.313 31.3378 233.861 31.406 232.031 31.406H228.664C228.719 31.4007 228.758 28.808 228.758 28.808L228.86 24.2908L234.614 24.3467C235.952 24.3467 236.486 24.441 236.698 24.5191C236.872 24.5886 237.03 24.7487 237.158 24.9794C237.398 25.3987 237.718 26.2709 238.111 27.5724L238.164 27.7511L239.729 27.7921H239.793L239.75 27.4372C239.533 25.7996 239.413 24.1073 239.394 22.4088L239.39 22.1545C239.332 22.0986 228.995 22.2612 228.995 22.2612C226.446 22.2612 224.212 22.2066 222.355 22.1023C222.354 22.1023 222.026 22.085 222.026 22.085V22.1458L222.026 22.1457Z" fill="#fff"/>
<path d="M244.693 22.1456V23.488C244.737 23.5439 246.516 23.9422 246.516 23.9422C247.576 24.1865 247.756 24.2709 247.781 24.2858C247.781 24.2895 247.939 24.4558 247.939 24.4558C247.943 24.4793 248.024 24.7783 248.05 26.5785L248.076 32.862L248.063 36.8234L247.98 40.311V40.5838C247.98 41.2935 247.871 41.5069 247.825 41.5653C247.825 41.5616 247.31 41.77 247.285 41.7799C247.272 41.7799 246.975 41.8469 244.899 42.3034C244.901 42.3034 244.7 42.3432 244.7 42.3432L244.654 43.7352C244.712 43.7922 251.857 43.6259 251.857 43.6259L261.908 43.7922C261.964 43.7549 262.027 43.5751 262.027 43.5751C262.027 43.5741 263.999 37.6316 263.999 37.6316L263.575 37.6214H262.439C262.39 37.6499 261.956 38.3818 261.956 38.3818C260.993 40.1063 260.576 40.6882 260.394 40.8731C260.139 41.1411 259.853 41.3272 259.518 41.4412C259.456 41.4611 259.153 41.5257 258.002 41.5257C258.001 41.5257 257.441 41.5405 257.441 41.5405H251.434C251.449 41.5394 251.455 40.8606 251.455 39.8966C251.455 37.506 251.419 33.3538 251.419 33.3538L255.208 33.411C256.879 33.411 257.251 33.5151 257.326 33.5461C257.496 33.6206 257.61 33.7323 257.683 33.8984C257.698 33.9381 257.801 34.2496 258.2 36.2532L258.241 36.4542L259.761 36.5001C259.818 36.4405 259.648 32.4196 259.648 32.4196L259.818 28.3814C259.762 28.3218 259.496 28.3168 259.496 28.3168H258.311C258.255 28.359 258.07 29.06 258.07 29.06C257.766 30.5227 257.591 30.8837 257.53 30.9706C257.419 31.1405 257.275 31.2509 257.091 31.3092C256.982 31.3378 256.524 31.406 254.708 31.406H251.331C251.387 31.4007 251.43 28.8081 251.43 28.8081L251.526 24.2908L257.28 24.3467C258.63 24.3467 259.156 24.441 259.36 24.5191C259.54 24.5874 259.693 24.7375 259.828 24.9794C260.073 25.4087 260.384 26.256 260.78 27.5725L260.832 27.7498L262.4 27.7921H262.466L262.417 27.4372C262.196 25.7822 262.079 24.0911 262.066 22.4125L262.063 22.1558C262.004 22.0986 251.664 22.2612 251.664 22.2612C249.119 22.2612 246.883 22.2066 245.021 22.1023L244.692 22.085V22.1458L244.693 22.1456Z" fill="#fff"/>
</svg>
