<svg width="49" height="49" viewBox="0 0 49 49" fill="none" xmlns="http://www.w3.org/2000/svg">
<circle cx="24.5" cy="24.5" r="23.5" stroke="white" stroke-width="2"/>
<path d="M33 19.5389C32.4118 19.8003 31.7788 19.9766 31.1146 20.0555C31.7928 19.6496 32.3127 19.0066 32.558 18.2396C31.9237 18.616 31.2215 18.8891 30.4735 19.0365C29.8749 18.3988 29.0217 18 28.0775 18C26.2649 18 24.7952 19.4694 24.7952 21.282C24.7952 21.5388 24.8241 21.7892 24.8803 22.0298C22.1521 21.8928 19.7331 20.5864 18.114 18.6007C17.8315 19.0852 17.6697 19.6489 17.6697 20.251C17.6697 21.3895 18.2491 22.3942 19.13 22.9826C18.5921 22.9654 18.0858 22.8176 17.6431 22.5718C17.6428 22.5854 17.6428 22.5994 17.6428 22.6134C17.6428 24.2032 18.7743 25.5294 20.2761 25.8314C20.0007 25.9061 19.7107 25.9463 19.4112 25.9463C19.1995 25.9463 18.9939 25.9259 18.7935 25.8872C19.2115 27.191 20.4236 28.1402 21.8598 28.1665C20.7364 29.0468 19.3213 29.5715 17.7831 29.5715C17.5184 29.5715 17.2569 29.556 17 29.5254C18.4531 30.4571 20.1784 31 22.0319 31C28.0701 31 31.3715 25.9993 31.3715 21.6622C31.3715 21.52 31.3686 21.3781 31.3624 21.2372C32.0036 20.7754 32.5602 20.1971 33 19.5389Z" fill="white"/>
</svg>
