<svg width="47" height="47" viewBox="0 0 47 47" fill="none" xmlns="http://www.w3.org/2000/svg">
<circle cx="23.5" cy="23.5" r="23.5" fill="white"/>
<path d="M32 18.5389C31.4118 18.8003 30.7788 18.9766 30.1146 19.0555C30.7928 18.6496 31.3127 18.0066 31.558 17.2396C30.9237 17.616 30.2215 17.8891 29.4735 18.0365C28.8749 17.3988 28.0217 17 27.0775 17C25.2649 17 23.7952 18.4694 23.7952 20.282C23.7952 20.5388 23.8241 20.7892 23.8803 21.0298C21.1521 20.8928 18.7331 19.5864 17.114 17.6007C16.8315 18.0852 16.6697 18.6489 16.6697 19.251C16.6697 20.3895 17.2491 21.3942 18.13 21.9826C17.5921 21.9654 17.0858 21.8176 16.6431 21.5718C16.6428 21.5854 16.6428 21.5994 16.6428 21.6134C16.6428 23.2032 17.7743 24.5294 19.2761 24.8314C19.0007 24.9061 18.7107 24.9463 18.4112 24.9463C18.1995 24.9463 17.9939 24.9259 17.7935 24.8872C18.2115 26.191 19.4236 27.1402 20.8598 27.1665C19.7364 28.0468 18.3213 28.5715 16.7831 28.5715C16.5184 28.5715 16.2569 28.556 16 28.5254C17.4531 29.4571 19.1784 30 21.0319 30C27.0701 30 30.3715 24.9993 30.3715 20.6622C30.3715 20.52 30.3686 20.3781 30.3624 20.2372C31.0036 19.7754 31.5602 19.1971 32 18.5389Z" fill="#388067"/>
</svg>
