<svg width="41" height="41" viewBox="0 0 41 41" fill="none" xmlns="http://www.w3.org/2000/svg">
<circle cx="20.5" cy="20.5" r="19.5" stroke="#E7E7E7" stroke-width="2"/>
<path d="M15.0144 15.5106C15.0144 17.2452 15.833 18.7826 17.0932 19.7871C15.2617 20.1613 13.7655 21.1129 12.7169 22.5263C11.6271 23.9953 11.025 25.9572 11.025 28.2766C11.025 28.6622 11.3378 28.975 11.7234 28.975C12.109 28.975 12.4218 28.6622 12.4218 28.2766C12.4218 26.5067 12.851 24.6848 13.8733 23.3081C14.8924 21.9357 16.5075 20.9963 18.9043 20.9963H22.0957C24.4925 20.9963 26.1076 21.9357 27.1267 23.3081C28.149 24.6848 28.5782 26.5067 28.5782 28.2766C28.5782 28.6622 28.891 28.975 29.2766 28.975C29.6622 28.975 29.975 28.6622 29.975 28.2766C29.975 25.9572 29.3729 23.9953 28.2831 22.5263C27.2345 21.1129 25.7383 20.1613 23.9068 19.7871C25.167 18.7826 25.9856 17.2452 25.9856 15.5106C25.9856 12.486 23.5247 10.025 20.5 10.025C17.4753 10.025 15.0144 12.486 15.0144 15.5106ZM16.4112 15.5106C16.4112 13.2564 18.2458 11.4218 20.5 11.4218C22.7542 11.4218 24.5888 13.2564 24.5888 15.5106C24.5888 17.7649 22.7542 19.5995 20.5 19.5995C18.2458 19.5995 16.4112 17.7649 16.4112 15.5106Z" fill="#388067" stroke="#388067" stroke-width="0.2"/>
</svg>
