<svg width="49" height="49" viewBox="0 0 49 49" fill="none" xmlns="http://www.w3.org/2000/svg">
<circle cx="24.5" cy="24.5" r="23.5" fill="#388067" stroke="#388067"/>
<path fill-rule="evenodd" clip-rule="evenodd" d="M33.6333 18.4774C34.2083 19.0595 34.3958 20.3808 34.3958 20.3808C34.3958 20.3808 34.5871 21.9324 34.5871 23.484V24.9389C34.5871 26.4904 34.3958 28.042 34.3958 28.042C34.3958 28.042 34.2083 29.3633 33.6333 29.9453C32.9763 30.6337 32.2474 30.7046 31.8356 30.7447C31.7905 30.749 31.7492 30.7531 31.7122 30.7575C29.0291 30.9513 25 30.9575 25 30.9575C25 30.9575 20.0149 30.9119 18.4807 30.7647C18.4077 30.751 18.3191 30.7404 18.2187 30.7283C17.7327 30.6699 16.9711 30.5784 16.3667 29.9453C15.7916 29.3633 15.6046 28.042 15.6046 28.042C15.6046 28.042 15.4128 26.4904 15.4128 24.9389V23.484C15.4128 21.9324 15.6046 20.3808 15.6046 20.3808C15.6046 20.3808 15.7916 19.0595 16.3667 18.4774C17.024 17.7892 17.7526 17.7184 18.1644 17.6783C18.2094 17.6739 18.2507 17.6699 18.2877 17.6655C20.971 17.4714 24.9957 17.4714 24.9957 17.4714H25.0042C25.0042 17.4714 29.0291 17.4714 31.7122 17.6655C31.7492 17.6699 31.7905 17.674 31.8356 17.6783C32.2475 17.7184 32.9764 17.7892 33.6333 18.4774ZM23.0197 21.3142L23.0205 26.7015L28.2006 24.0171L23.0197 21.3142Z" fill="white"/>
</svg>
