<svg width="49" height="49" viewBox="0 0 49 49" fill="none" xmlns="http://www.w3.org/2000/svg">
<circle cx="24.5" cy="24.5" r="23.5" stroke="white" stroke-width="2"/>
<path fill-rule="evenodd" clip-rule="evenodd" d="M33.6333 18.4777C34.2083 19.0597 34.3958 20.381 34.3958 20.381C34.3958 20.381 34.5871 21.9327 34.5871 23.4843V24.9392C34.5871 26.4906 34.3958 28.0422 34.3958 28.0422C34.3958 28.0422 34.2083 29.3635 33.6333 29.9456C32.9763 30.634 32.2474 30.7049 31.8356 30.7449C31.7905 30.7493 31.7492 30.7533 31.7122 30.7577C29.0291 30.9516 25 30.9578 25 30.9578C25 30.9578 20.0149 30.9122 18.4807 30.765C18.4077 30.7512 18.3191 30.7406 18.2187 30.7285C17.7327 30.6701 16.9711 30.5786 16.3667 29.9456C15.7916 29.3635 15.6046 28.0422 15.6046 28.0422C15.6046 28.0422 15.4128 26.4906 15.4128 24.9392V23.4843C15.4128 21.9327 15.6046 20.381 15.6046 20.381C15.6046 20.381 15.7916 19.0597 16.3667 18.4777C17.024 17.7895 17.7526 17.7186 18.1644 17.6786C18.2094 17.6742 18.2507 17.6702 18.2877 17.6658C20.971 17.4717 24.9957 17.4717 24.9957 17.4717H25.0042C25.0042 17.4717 29.0291 17.4717 31.7122 17.6658C31.7492 17.6702 31.7905 17.6742 31.8356 17.6786C32.2475 17.7186 32.9764 17.7895 33.6333 18.4777ZM23.0197 21.3144L23.0205 26.7017L28.2006 24.0173L23.0197 21.3144Z" fill="white"/>
</svg>
