<svg width="47" height="47" viewBox="0 0 47 47" fill="none" xmlns="http://www.w3.org/2000/svg">
<circle cx="23.5" cy="23.5" r="23.5" fill="white"/>
<path fill-rule="evenodd" clip-rule="evenodd" d="M32.6333 17.4777C33.2083 18.0597 33.3958 19.381 33.3958 19.381C33.3958 19.381 33.5871 20.9327 33.5871 22.4843V23.9392C33.5871 25.4906 33.3958 27.0422 33.3958 27.0422C33.3958 27.0422 33.2083 28.3635 32.6333 28.9456C31.9763 29.634 31.2474 29.7049 30.8356 29.7449C30.7905 29.7493 30.7492 29.7533 30.7122 29.7577C28.0291 29.9516 24 29.9578 24 29.9578C24 29.9578 19.0149 29.9122 17.4807 29.765C17.4077 29.7512 17.3191 29.7406 17.2187 29.7285C16.7327 29.6701 15.9711 29.5786 15.3667 28.9456C14.7916 28.3635 14.6046 27.0422 14.6046 27.0422C14.6046 27.0422 14.4128 25.4906 14.4128 23.9392V22.4843C14.4128 20.9327 14.6046 19.381 14.6046 19.381C14.6046 19.381 14.7916 18.0597 15.3667 17.4777C16.024 16.7895 16.7526 16.7186 17.1644 16.6786C17.2094 16.6742 17.2507 16.6702 17.2877 16.6658C19.971 16.4717 23.9957 16.4717 23.9957 16.4717H24.0042C24.0042 16.4717 28.0291 16.4717 30.7122 16.6658C30.7492 16.6702 30.7905 16.6742 30.8356 16.6786C31.2475 16.7186 31.9764 16.7895 32.6333 17.4777ZM22.0197 20.3144L22.0205 25.7017L27.2006 23.0173L22.0197 20.3144Z" fill="#388067"/>
</svg>
