<svg width="49" height="49" viewBox="0 0 49 49" fill="none" xmlns="http://www.w3.org/2000/svg">
<circle cx="24.5" cy="24.4995" r="23.5" fill="#388067" stroke="#388067"/>
<path fill-rule="evenodd" clip-rule="evenodd" d="M33.6333 18.4767C34.2083 19.0588 34.3958 20.3801 34.3958 20.3801C34.3958 20.3801 34.5871 21.9317 34.5871 23.4833V24.9382C34.5871 26.4896 34.3958 28.0412 34.3958 28.0412C34.3958 28.0412 34.2083 29.3626 33.6333 29.9446C32.9763 30.633 32.2474 30.7039 31.8356 30.7439C31.7905 30.7483 31.7492 30.7523 31.7122 30.7567C29.0291 30.9506 25 30.9568 25 30.9568C25 30.9568 20.0149 30.9112 18.4807 30.764C18.4077 30.7503 18.3191 30.7396 18.2187 30.7276C17.7327 30.6692 16.9711 30.5777 16.3667 29.9446C15.7916 29.3626 15.6046 28.0412 15.6046 28.0412C15.6046 28.0412 15.4128 26.4896 15.4128 24.9382V23.4833C15.4128 21.9317 15.6046 20.3801 15.6046 20.3801C15.6046 20.3801 15.7916 19.0588 16.3667 18.4767C17.024 17.7885 17.7526 17.7176 18.1644 17.6776C18.2094 17.6732 18.2507 17.6692 18.2877 17.6648C20.971 17.4707 24.9957 17.4707 24.9957 17.4707H25.0042C25.0042 17.4707 29.0291 17.4707 31.7122 17.6648C31.7492 17.6692 31.7905 17.6732 31.8356 17.6776C32.2475 17.7176 32.9764 17.7885 33.6333 18.4767ZM23.0197 21.3134L23.0205 26.7007L28.2006 24.0164L23.0197 21.3134Z" fill="white"/>
</svg>
