<svg width="32" height="32" viewBox="0 0 32 32" fill="none" xmlns="http://www.w3.org/2000/svg">
<path d="M5.99999 18C5.99999 19.9778 6.58648 21.9112 7.6853 23.5557C8.78411 25.2002 10.3459 26.4819 12.1732 27.2388C14.0004 27.9957 16.0111 28.1937 17.9509 27.8079C19.8907 27.422 21.6725 26.4696 23.0711 25.0711C24.4696 23.6725 25.422 21.8907 25.8078 19.9509C26.1937 18.0111 25.9957 16.0004 25.2388 14.1732C24.4819 12.3459 23.2002 10.7841 21.5557 9.6853C19.9112 8.58649 17.9778 8 16 8H12V13L5.99999 7L12 1V6H16C18.3734 6 20.6934 6.70379 22.6668 8.02236C24.6402 9.34094 26.1783 11.2151 27.0865 13.4078C27.9948 15.6005 28.2324 18.0133 27.7694 20.3411C27.3064 22.6689 26.1635 24.8071 24.4853 26.4853C22.807 28.1635 20.6688 29.3064 18.3411 29.7694C16.0133 30.2324 13.6005 29.9948 11.4078 29.0866C9.21508 28.1783 7.34094 26.6402 6.02236 24.6668C4.70378 22.6935 3.99999 20.3734 3.99999 18H5.99999Z" fill="black"/>
<path d="M18.9101 22.13C18.4683 22.1408 18.03 22.0484 17.6301 21.86C17.2751 21.6798 16.9695 21.4155 16.7401 21.09C16.4887 20.7103 16.3121 20.286 16.2201 19.84C16.102 19.288 16.045 18.7246 16.0501 18.16C16.0461 17.5955 16.1031 17.0323 16.2201 16.48C16.314 16.0346 16.4904 15.6106 16.7401 15.23C16.9695 14.9046 17.2751 14.6402 17.6301 14.46C18.03 14.2716 18.4683 14.1792 18.9101 14.19C19.3256 14.1584 19.7422 14.2337 20.1203 14.4088C20.4984 14.5838 20.8254 14.8528 21.0701 15.19C21.5858 16.0769 21.8292 17.0958 21.7701 18.12C21.8292 19.1442 21.5858 20.1631 21.0701 21.05C20.8347 21.402 20.5118 21.6866 20.1331 21.876C19.7544 22.0653 19.3329 22.1529 18.9101 22.13ZM18.9101 20.91C19.1117 20.9221 19.3126 20.8768 19.4896 20.7795C19.6665 20.6821 19.8123 20.5367 19.9101 20.36C20.1491 19.8923 20.2758 19.3753 20.2801 18.85V17.47C20.3018 16.9542 20.2024 16.4406 19.9901 15.97C19.8783 15.7988 19.7256 15.6581 19.5458 15.5607C19.3659 15.4633 19.1646 15.4123 18.9601 15.4123C18.7556 15.4123 18.5543 15.4633 18.3745 15.5607C18.1946 15.6581 18.0419 15.7988 17.9301 15.97C17.7178 16.4406 17.6185 16.9542 17.6401 17.47V18.85C17.6195 19.3689 17.7187 19.8856 17.9301 20.36C18.0255 20.5343 18.168 20.6783 18.3412 20.7756C18.5145 20.8728 18.7116 20.9194 18.9101 20.91Z" fill="black"/>
<path d="M9.91 22V20.82H11.91V15.63L10.05 16.63L9.5 15.57L11.82 14.27H13.28V20.77H15.06V22H9.91Z" fill="black"/>
</svg>
