<?xml version="1.0" encoding="UTF-8"?>
<svg xmlns="http://www.w3.org/2000/svg" xmlns:xlink="http://www.w3.org/1999/xlink" width="47pt" height="47pt" viewBox="0 0 47 47" version="1.1">
<g id="surface1">
<path style="fill:none;stroke-width:2;stroke-linecap:butt;stroke-linejoin:miter;stroke:rgb(100%,100%,100%);stroke-opacity:1;stroke-miterlimit:4;" d="M 47.998172 24.5 C 47.998172 37.478973 37.478973 47.998172 24.5 47.998172 C 11.521027 47.998172 1.001828 37.478973 1.001828 24.5 C 1.001828 11.521027 11.521027 1.001828 24.5 1.001828 C 37.478973 1.001828 47.998172 11.521027 47.998172 24.5 Z M 47.998172 24.5 " transform="matrix(0.959184,0,0,0.959184,0,0)"/>
<path style=" stroke:none;fill-rule:nonzero;fill:rgb(100%,100%,100%);fill-opacity:1;" d="M 26.855469 20.316406 L 24.570312 20.316406 L 24.570312 18.722656 C 24.570312 18.125 24.945312 17.984375 25.207031 17.984375 C 25.46875 17.984375 26.820312 17.984375 26.820312 17.984375 L 26.820312 15.355469 L 24.597656 15.347656 C 22.132812 15.347656 21.570312 17.308594 21.570312 18.5625 L 21.570312 20.316406 L 20.144531 20.316406 L 20.144531 23.027344 L 21.570312 23.027344 C 21.570312 26.503906 21.570312 30.695312 21.570312 30.695312 L 24.570312 30.695312 C 24.570312 30.695312 24.570312 26.460938 24.570312 23.027344 L 26.59375 23.027344 Z M 26.855469 20.316406 "/>
</g>
</svg>
