<svg width="32" height="32" viewBox="0 0 32 32" fill="none" xmlns="http://www.w3.org/2000/svg">
<path d="M26 18C26 19.9778 25.4135 21.9112 24.3147 23.5557C23.2159 25.2002 21.6541 26.4819 19.8268 27.2388C17.9996 27.9957 15.9889 28.1937 14.0491 27.8079C12.1093 27.422 10.3275 26.4696 8.92894 25.0711C7.53041 23.6725 6.578 21.8907 6.19215 19.9509C5.8063 18.0111 6.00433 16.0004 6.76121 14.1732C7.51809 12.3459 8.79981 10.7841 10.4443 9.6853C12.0888 8.58649 14.0222 8 16 8H20V13L26 7L20 1V6H16C13.6266 6 11.3066 6.70379 9.33316 8.02236C7.35977 9.34094 5.8217 11.2151 4.91345 13.4078C4.0052 15.6005 3.76756 18.0133 4.23058 20.3411C4.6936 22.6689 5.83649 24.8071 7.51472 26.4853C9.19295 28.1635 11.3312 29.3064 13.6589 29.7694C15.9867 30.2324 18.3995 29.9948 20.5922 29.0866C22.7849 28.1783 24.6591 26.6402 25.9776 24.6668C27.2962 22.6935 28 20.3734 28 18H26Z" fill="black"/>
<path d="M19.6403 22.13C19.1983 22.1419 18.7597 22.0494 18.3603 21.86C18.0033 21.6826 17.6971 21.4177 17.4703 21.09C17.2323 20.7086 17.0725 20.2837 17.0003 19.84C16.8772 19.2887 16.8201 18.7247 16.8303 18.16C16.8212 17.5953 16.8783 17.0314 17.0003 16.48C17.0896 16.0331 17.2663 15.6083 17.5203 15.23C17.7471 14.9023 18.0533 14.6374 18.4103 14.46C18.8097 14.2705 19.2483 14.178 19.6903 14.19C20.1057 14.1584 20.5224 14.2337 20.9005 14.4087C21.2786 14.5838 21.6056 14.8527 21.8503 15.19C22.3615 16.0786 22.6047 17.0962 22.5503 18.12C22.6047 19.1437 22.3615 20.1614 21.8503 21.05C21.6105 21.4096 21.2796 21.6991 20.8913 21.8888C20.503 22.0786 20.0713 22.1618 19.6403 22.13ZM19.6403 20.91C19.8431 20.9313 20.0477 20.89 20.2264 20.7916C20.4052 20.6933 20.5496 20.5427 20.6403 20.36C20.8601 19.8881 20.963 19.3701 20.9403 18.85V17.47C20.9642 16.953 20.8612 16.438 20.6403 15.97C20.5297 15.7987 20.3779 15.6578 20.1989 15.5603C20.0198 15.4627 19.8192 15.4116 19.6153 15.4116C19.4114 15.4116 19.2107 15.4627 19.0316 15.5603C18.8526 15.6578 18.7008 15.7987 18.5903 15.97C18.3731 16.439 18.2736 16.9538 18.3003 17.47V18.85C18.2748 19.3693 18.3742 19.8871 18.5903 20.36C18.6838 20.5516 18.8361 20.7084 19.025 20.8073C19.2139 20.9063 19.4295 20.9422 19.6403 20.91Z" fill="black"/>
<path d="M12.62 17.42C12.9751 17.4552 13.3309 17.3592 13.62 17.15C13.7206 17.0683 13.801 16.9643 13.8548 16.8464C13.9086 16.7284 13.9343 16.5996 13.93 16.47V16.39C13.9374 16.2522 13.9143 16.1145 13.8625 15.9866C13.8106 15.8587 13.7313 15.7438 13.63 15.65C13.397 15.459 13.1007 15.3626 12.8 15.38C12.4866 15.3738 12.1778 15.4571 11.91 15.62C11.6338 15.791 11.401 16.0238 11.23 16.3L10.3 15.47C10.4359 15.291 10.5828 15.1206 10.74 14.96C10.9026 14.8047 11.084 14.6703 11.28 14.56C11.4987 14.436 11.7346 14.345 11.98 14.29C12.2642 14.2176 12.5568 14.1839 12.85 14.19C13.2081 14.1883 13.5647 14.2354 13.91 14.33C14.207 14.408 14.4857 14.5439 14.73 14.73C14.954 14.8979 15.1383 15.113 15.27 15.36C15.3929 15.6192 15.4545 15.9032 15.45 16.19C15.4518 16.418 15.4146 16.6446 15.34 16.86C15.2634 17.0501 15.1552 17.2259 15.02 17.38C14.8844 17.5253 14.7256 17.6469 14.55 17.74C14.3698 17.8318 14.1781 17.899 13.98 17.94V18C14.1989 18.0397 14.4111 18.1104 14.61 18.21C14.8024 18.3035 14.9754 18.4324 15.12 18.59C15.2641 18.7524 15.3791 18.9385 15.46 19.14C15.5435 19.3741 15.5842 19.6214 15.58 19.87C15.5875 20.1882 15.5189 20.5036 15.38 20.79C15.2456 21.072 15.0469 21.3186 14.8 21.51C14.5344 21.7148 14.2324 21.8674 13.91 21.96C13.5373 22.0726 13.1493 22.1265 12.76 22.12C12.4234 22.1245 12.0876 22.0876 11.76 22.01C11.494 21.9408 11.2385 21.8366 11 21.7C10.7945 21.575 10.6063 21.4238 10.44 21.25C10.2783 21.0792 10.1311 20.8953 10 20.7L11.07 19.89C11.1516 20.0374 11.2453 20.1779 11.35 20.31C11.455 20.4382 11.576 20.5525 11.71 20.65C11.8473 20.7469 11.9992 20.8212 12.16 20.87C12.3456 20.9206 12.5376 20.9442 12.73 20.94C13.089 20.9676 13.4455 20.8607 13.73 20.64C13.8433 20.5303 13.9322 20.3978 13.9908 20.2513C14.0494 20.1048 14.0764 19.9476 14.07 19.79V19.71C14.0735 19.5572 14.042 19.4057 13.9779 19.267C13.9138 19.1284 13.8187 19.0062 13.7 18.91C13.3849 18.7075 13.014 18.6095 12.64 18.63H11.88V17.42H12.62Z" fill="black"/>
</svg>
