<?xml version="1.0" encoding="UTF-8"?>
<svg xmlns="http://www.w3.org/2000/svg" xmlns:xlink="http://www.w3.org/1999/xlink" width="38pt" height="38pt" viewBox="0 0 38 38" version="1.1">
<g id="surface1">
<path style=" stroke:none;fill-rule:nonzero;fill:rgb(21.960784%,50.196078%,40.392157%);fill-opacity:1;" d="M 38 19 C 38 29.492188 29.492188 38 19 38 C 8.507812 38 0 29.492188 0 19 C 0 8.507812 8.507812 0 19 0 C 29.492188 0 38 8.507812 38 19 Z M 38 19 "/>
<path style=" stroke:none;fill-rule:nonzero;fill:rgb(100%,100%,100%);fill-opacity:1;" d="M 11.632812 13.179688 C 11.632812 12.753906 11.976562 12.40625 12.402344 12.40625 L 24.820312 12.40625 C 25.246094 12.40625 25.59375 12.753906 25.59375 13.179688 L 25.59375 25.597656 C 25.589844 25.800781 25.511719 25.996094 25.367188 26.140625 C 25.222656 26.285156 25.027344 26.367188 24.820312 26.367188 L 12.402344 26.367188 C 12.199219 26.367188 12.003906 26.285156 11.859375 26.140625 C 11.714844 25.996094 11.632812 25.800781 11.632812 25.597656 Z M 17.542969 16.609375 C 17.496094 16.578125 17.441406 16.558594 17.386719 16.554688 C 17.332031 16.554688 17.273438 16.566406 17.226562 16.59375 C 17.175781 16.617188 17.132812 16.65625 17.105469 16.707031 C 17.078125 16.753906 17.0625 16.808594 17.0625 16.863281 L 17.0625 21.910156 C 17.0625 21.964844 17.078125 22.023438 17.105469 22.070312 C 17.132812 22.117188 17.175781 22.15625 17.226562 22.183594 C 17.273438 22.210938 17.332031 22.222656 17.386719 22.21875 C 17.441406 22.21875 17.496094 22.199219 17.542969 22.167969 L 21.328125 19.644531 C 21.371094 19.617188 21.40625 19.578125 21.429688 19.535156 C 21.453125 19.488281 21.464844 19.4375 21.464844 19.386719 C 21.464844 19.335938 21.453125 19.285156 21.429688 19.242188 C 21.40625 19.195312 21.371094 19.15625 21.328125 19.128906 Z M 17.542969 16.609375 "/>
</g>
</svg>
