<?xml version="1.0" encoding="UTF-8"?>
<svg xmlns="http://www.w3.org/2000/svg" xmlns:xlink="http://www.w3.org/1999/xlink" width="38pt" height="38pt" viewBox="0 0 38 38" version="1.1">
<g id="surface1">
<path style=" stroke:none;fill-rule:nonzero;fill:rgb(94.509804%,94.509804%,94.509804%);fill-opacity:1;" d="M 38 19 C 38 29.492188 29.492188 38 19 38 C 8.507812 38 0 29.492188 0 19 C 0 8.507812 8.507812 0 19 0 C 29.492188 0 38 8.507812 38 19 Z M 38 19 "/>
<path style=" stroke:none;fill-rule:nonzero;fill:rgb(21.960784%,50.196078%,40.392157%);fill-opacity:1;" d="M 18.613281 10.855469 C 19.121094 10.855469 19.625 10.957031 20.097656 11.152344 C 20.566406 11.347656 20.992188 11.632812 21.355469 11.992188 C 21.714844 12.351562 22 12.78125 22.195312 13.25 C 22.390625 13.722656 22.488281 14.226562 22.488281 14.734375 L 22.488281 17.835938 C 22.488281 18.863281 22.082031 19.851562 21.355469 20.578125 C 20.625 21.304688 19.640625 21.714844 18.613281 21.714844 C 17.582031 21.714844 16.597656 21.304688 15.871094 20.578125 C 15.144531 19.851562 14.734375 18.863281 14.734375 17.835938 L 14.734375 14.734375 C 14.734375 13.707031 15.144531 12.71875 15.871094 11.992188 C 16.597656 11.265625 17.582031 10.855469 18.613281 10.855469 Z M 11.675781 18.613281 L 13.238281 18.613281 C 13.425781 19.902344 14.070312 21.082031 15.058594 21.9375 C 16.046875 22.789062 17.308594 23.261719 18.613281 23.261719 C 19.917969 23.261719 21.175781 22.789062 22.164062 21.9375 C 23.152344 21.082031 23.796875 19.902344 23.984375 18.613281 L 25.546875 18.613281 C 25.371094 20.183594 24.667969 21.652344 23.546875 22.773438 C 22.425781 23.890625 20.960938 24.597656 19.386719 24.773438 L 19.386719 27.917969 L 17.835938 27.917969 L 17.835938 24.773438 C 16.261719 24.597656 14.796875 23.890625 13.675781 22.773438 C 12.558594 21.652344 11.851562 20.1875 11.675781 18.613281 Z M 11.675781 18.613281 "/>
</g>
</svg>
