<?xml version="1.0" encoding="UTF-8"?>
<svg xmlns="http://www.w3.org/2000/svg" xmlns:xlink="http://www.w3.org/1999/xlink" width="38pt" height="38pt" viewBox="0 0 38 38" version="1.1">
<g id="surface1">
<path style=" stroke:none;fill-rule:nonzero;fill:rgb(21.960784%,50.196078%,40.392157%);fill-opacity:1;" d="M 38 19 C 38 29.492188 29.492188 38 19 38 C 8.507812 38 0 29.492188 0 19 C 0 8.507812 8.507812 0 19 0 C 29.492188 0 38 8.507812 38 19 Z M 38 19 "/>
<path style=" stroke:none;fill-rule:nonzero;fill:rgb(100%,100%,100%);fill-opacity:1;" d="M 24.816406 26.367188 L 12.40625 26.367188 C 12.203125 26.367188 12.003906 26.285156 11.859375 26.140625 C 11.714844 25.996094 11.632812 25.796875 11.632812 25.59375 L 11.632812 11.632812 C 11.632812 11.425781 11.714844 11.230469 11.859375 11.085938 C 12.003906 10.9375 12.203125 10.855469 12.40625 10.855469 L 24.816406 10.855469 C 25.023438 10.855469 25.21875 10.9375 25.363281 11.085938 C 25.511719 11.230469 25.59375 11.425781 25.59375 11.632812 L 25.59375 25.59375 C 25.59375 25.796875 25.511719 25.996094 25.363281 26.140625 C 25.21875 26.285156 25.023438 26.367188 24.816406 26.367188 Z M 15.511719 14.734375 L 15.511719 16.285156 L 21.714844 16.285156 L 21.714844 14.734375 Z M 15.511719 17.835938 L 15.511719 19.386719 L 21.714844 19.386719 L 21.714844 17.835938 Z M 15.511719 20.9375 L 15.511719 22.488281 L 19.386719 22.488281 L 19.386719 20.9375 Z M 15.511719 20.9375 "/>
</g>
</svg>
