<svg width="16" height="16" viewBox="0 0 16 16" fill="none" xmlns="http://www.w3.org/2000/svg">
<path d="M8.70672 5.40715L9.65005 6.35048C10.0834 6.78383 10.4272 7.2983 10.6618 7.86451C10.8963 8.43073 11.0171 9.03761 11.0171 9.65048C11.0171 10.2634 10.8963 10.8702 10.6618 11.4364C10.4272 12.0027 10.0834 12.5171 9.65005 12.9505L9.41405 13.1858C8.53883 14.061 7.35179 14.5527 6.11405 14.5527C4.87631 14.5527 3.68926 14.061 2.81405 13.1858C1.93883 12.3106 1.44714 11.1236 1.44714 9.88581C1.44714 8.64807 1.93883 7.46103 2.81405 6.58581L3.75738 7.52915C3.44563 7.83818 3.19798 8.20575 3.02867 8.61075C2.85935 9.01575 2.7717 9.4502 2.77073 9.88917C2.76977 10.3281 2.85552 10.763 3.02307 11.1687C3.19061 11.5744 3.43664 11.9431 3.74704 12.2535C4.05743 12.5639 4.42608 12.8099 4.83182 12.9775C5.23756 13.145 5.67239 13.2308 6.11136 13.2298C6.55032 13.2288 6.98478 13.1412 7.38978 12.9719C7.79478 12.8025 8.16235 12.5549 8.47138 12.2431L8.70738 12.0071C9.33229 11.3821 9.68334 10.5344 9.68334 9.65048C9.68334 8.7666 9.33229 7.91891 8.70738 7.29381L7.76405 6.35048L8.70738 5.40781L8.70672 5.40715ZM13.1854 9.41448L12.2427 8.47181C12.5545 8.16278 12.8021 7.79521 12.9714 7.39021C13.1407 6.98521 13.2284 6.55076 13.2294 6.11179C13.2303 5.67282 13.1446 5.23799 12.977 4.83225C12.8095 4.42652 12.5635 4.05787 12.2531 3.74747C11.9427 3.43707 11.574 3.19104 11.1683 3.0235C10.7625 2.85596 10.3277 2.7702 9.88874 2.77117C9.44977 2.77213 9.01532 2.85978 8.61032 3.0291C8.20532 3.19842 7.83775 3.44606 7.52872 3.75781L7.29272 3.99381C6.66781 4.61891 6.31676 5.4666 6.31676 6.35048C6.31676 7.23436 6.66781 8.08205 7.29272 8.70715L8.23605 9.65048L7.29272 10.5931L6.35005 9.65048C5.91666 9.21713 5.57287 8.70266 5.33832 8.13645C5.10377 7.57023 4.98305 6.96336 4.98305 6.35048C4.98305 5.7376 5.10377 5.13073 5.33832 4.56451C5.57287 3.9983 5.91666 3.48383 6.35005 3.05048L6.58605 2.81515C7.46126 1.93993 8.64831 1.44824 9.88605 1.44824C11.1238 1.44824 12.3108 1.93993 13.186 2.81515C14.0613 3.69036 14.553 4.87741 14.553 6.11515C14.553 7.35289 14.0613 8.53993 13.186 9.41515L13.1854 9.41448Z" fill="#0C2F4B"/>
</svg>
