<?xml version="1.0" encoding="UTF-8"?>
<svg xmlns="http://www.w3.org/2000/svg" xmlns:xlink="http://www.w3.org/1999/xlink" width="47pt" height="47pt" viewBox="0 0 47 47" version="1.1">
<g id="surface1">
<path style="fill-rule:nonzero;fill:rgb(21.960784%,50.196078%,40.392157%);fill-opacity:1;stroke-width:1;stroke-linecap:butt;stroke-linejoin:miter;stroke:rgb(21.960784%,50.196078%,40.392157%);stroke-opacity:1;stroke-miterlimit:4;" d="M 47.998172 24.5 C 47.998172 37.478973 37.478973 47.998172 24.5 47.998172 C 11.521027 47.998172 1.001828 37.478973 1.001828 24.5 C 1.001828 11.521027 11.521027 1.001828 24.5 1.001828 C 37.478973 1.001828 47.998172 11.521027 47.998172 24.5 Z M 47.998172 24.5 " transform="matrix(0.959184,0,0,0.959184,0,0)"/>
<path style=" stroke:none;fill-rule:evenodd;fill:rgb(100%,100%,100%);fill-opacity:1;" d="M 19.503906 17.082031 C 19.503906 16.125 18.785156 15.347656 17.90625 15.347656 C 17.019531 15.347656 16.304688 16.125 16.304688 17.082031 C 16.304688 18.035156 17.019531 18.8125 17.90625 18.8125 C 18.785156 18.8125 19.503906 18.035156 19.503906 17.082031 Z M 19.277344 20.125 L 16.519531 20.125 L 16.519531 29.734375 L 19.277344 29.734375 Z M 19.277344 20.125 "/>
<path style=" stroke:none;fill-rule:nonzero;fill:rgb(100%,100%,100%);fill-opacity:1;" d="M 21.902344 20.371094 L 24.601562 20.371094 L 24.601562 21.652344 L 24.640625 21.652344 C 25.015625 20.917969 25.9375 20.144531 27.308594 20.144531 C 30.164062 20.144531 30.695312 22.082031 30.695312 24.601562 L 30.695312 29.734375 L 27.875 29.734375 L 27.875 25.183594 C 27.875 24.09375 27.859375 22.699219 26.414062 22.699219 C 24.945312 22.699219 24.722656 23.882812 24.722656 25.101562 L 24.722656 29.734375 L 21.90625 29.734375 Z M 21.902344 20.371094 "/>
</g>
</svg>
