<?xml version="1.0" encoding="UTF-8"?>
<svg xmlns="http://www.w3.org/2000/svg" xmlns:xlink="http://www.w3.org/1999/xlink" width="47pt" height="47pt" viewBox="0 0 47 47" version="1.1">
<g id="surface1">
<path style="fill-rule:nonzero;fill:rgb(21.960784%,50.196078%,40.392157%);fill-opacity:1;stroke-width:1;stroke-linecap:butt;stroke-linejoin:miter;stroke:rgb(21.960784%,50.196078%,40.392157%);stroke-opacity:1;stroke-miterlimit:4;" d="M 47.998172 24.5 C 47.998172 37.478973 37.478973 47.998172 24.5 47.998172 C 11.521027 47.998172 1.001828 37.478973 1.001828 24.5 C 1.001828 11.521027 11.521027 0.997756 24.5 0.997756 C 37.478973 0.997756 47.998172 11.521027 47.998172 24.5 Z M 47.998172 24.5 " transform="matrix(0.959184,0,0,0.959184,0,0)"/>
<path style=" stroke:none;fill-rule:nonzero;fill:rgb(100%,100%,100%);fill-opacity:1;" d="M 31.652344 15.347656 L 16.304688 15.347656 C 15.25 15.347656 14.398438 16.210938 14.398438 17.265625 L 14.386719 28.777344 C 14.386719 29.832031 15.25 30.695312 16.304688 30.695312 L 31.652344 30.695312 C 32.707031 30.695312 33.570312 29.832031 33.570312 28.777344 L 33.570312 17.265625 C 33.570312 16.210938 32.707031 15.347656 31.652344 15.347656 Z M 31.652344 19.183594 L 23.980469 23.980469 L 16.304688 19.183594 L 16.304688 17.265625 L 23.980469 22.0625 L 31.652344 17.265625 Z M 31.652344 19.183594 "/>
</g>
</svg>
