<?xml version="1.0" encoding="UTF-8"?>
<svg xmlns="http://www.w3.org/2000/svg" xmlns:xlink="http://www.w3.org/1999/xlink" width="47pt" height="47pt" viewBox="0 0 47 47" version="1.1">
<g id="surface1">
<path style="fill:none;stroke-width:2;stroke-linecap:butt;stroke-linejoin:miter;stroke:rgb(100%,100%,100%);stroke-opacity:1;stroke-miterlimit:4;" d="M 47.998172 24.5 C 47.998172 37.478973 37.478973 47.998172 24.5 47.998172 C 11.521027 47.998172 1.001828 37.478973 1.001828 24.5 C 1.001828 11.521027 11.521027 1.001828 24.5 1.001828 C 37.478973 1.001828 47.998172 11.521027 47.998172 24.5 Z M 47.998172 24.5 " transform="matrix(0.959184,0,0,0.959184,0,0)"/>
<path style=" stroke:none;fill-rule:nonzero;fill:rgb(100%,100%,100%);fill-opacity:1;" d="M 31.652344 18.742188 C 31.089844 18.992188 30.480469 19.160156 29.84375 19.238281 C 30.496094 18.847656 30.992188 18.230469 31.230469 17.496094 C 30.621094 17.855469 29.945312 18.117188 29.230469 18.257812 C 28.65625 17.648438 27.835938 17.265625 26.929688 17.265625 C 25.191406 17.265625 23.78125 18.675781 23.78125 20.414062 C 23.78125 20.660156 23.8125 20.898438 23.863281 21.128906 C 21.246094 21 18.925781 19.746094 17.375 17.839844 C 17.105469 18.304688 16.949219 18.847656 16.949219 19.425781 C 16.949219 20.515625 17.503906 21.480469 18.347656 22.042969 C 17.832031 22.027344 17.347656 21.886719 16.921875 21.652344 C 16.921875 21.664062 16.921875 21.675781 16.921875 21.691406 C 16.921875 23.214844 18.007812 24.488281 19.449219 24.777344 C 19.183594 24.847656 18.90625 24.886719 18.617188 24.886719 C 18.414062 24.886719 18.21875 24.867188 18.027344 24.832031 C 18.425781 26.082031 19.589844 26.992188 20.96875 27.015625 C 19.890625 27.859375 18.53125 28.363281 17.058594 28.363281 C 16.804688 28.363281 16.550781 28.351562 16.304688 28.320312 C 17.699219 29.214844 19.355469 29.734375 21.132812 29.734375 C 26.925781 29.734375 30.089844 24.9375 30.089844 20.777344 C 30.089844 20.640625 30.089844 20.503906 30.082031 20.371094 C 30.699219 19.925781 31.230469 19.371094 31.652344 18.742188 Z M 31.652344 18.742188 "/>
</g>
</svg>
