<svg width="23" height="23" viewBox="0 0 23 23" fill="none" xmlns="http://www.w3.org/2000/svg">
<rect width="23" height="23" fill="transparent"/>
<rect width="1440" height="3796" transform="translate(-871 -2365)" fill="transparent"/>
<circle cx="11.5" cy="11.5" r="11.5" fill="#388067"/>
<mask id="path-2-outside-1" maskUnits="userSpaceOnUse" x="8.1825" y="5.16406" width="8" height="13" fill="black">
<rect fill="transparent" x="8.1825" y="5.16406" width="8" height="13"/>
<path d="M9.60064 17.3062C9.51792 17.3062 9.43706 17.2817 9.36829 17.2357C9.29952 17.1897 9.24593 17.1244 9.21429 17.0479C9.18265 16.9715 9.17439 16.8874 9.19056 16.8063C9.20672 16.7251 9.24658 16.6506 9.30509 16.5922L14.1647 11.7325L9.30509 6.87286C9.2289 6.79397 9.18675 6.68833 9.1877 6.57867C9.18865 6.46901 9.23264 6.36411 9.31018 6.28656C9.38773 6.20902 9.49263 6.16503 9.60229 6.16408C9.71195 6.16313 9.8176 6.20528 9.89648 6.28147L15.052 11.4369C15.1304 11.5154 15.1744 11.6217 15.1744 11.7326C15.1744 11.8435 15.1304 11.9499 15.052 12.0283L9.89648 17.1838C9.85762 17.2227 9.8115 17.2534 9.76074 17.2745C9.70998 17.2955 9.65558 17.3062 9.60064 17.3062Z"/>
</mask>
<path d="M9.60064 17.3062C9.51792 17.3062 9.43706 17.2817 9.36829 17.2357C9.29952 17.1897 9.24593 17.1244 9.21429 17.0479C9.18265 16.9715 9.17439 16.8874 9.19056 16.8063C9.20672 16.7251 9.24658 16.6506 9.30509 16.5922L14.1647 11.7325L9.30509 6.87286C9.2289 6.79397 9.18675 6.68833 9.1877 6.57867C9.18865 6.46901 9.23264 6.36411 9.31018 6.28656C9.38773 6.20902 9.49263 6.16503 9.60229 6.16408C9.71195 6.16313 9.8176 6.20528 9.89648 6.28147L15.052 11.4369C15.1304 11.5154 15.1744 11.6217 15.1744 11.7326C15.1744 11.8435 15.1304 11.9499 15.052 12.0283L9.89648 17.1838C9.85762 17.2227 9.8115 17.2534 9.76074 17.2745C9.70998 17.2955 9.65558 17.3062 9.60064 17.3062Z" fill="white"/>
<path d="M9.60064 17.3062C9.51792 17.3062 9.43706 17.2817 9.36829 17.2357C9.29952 17.1897 9.24593 17.1244 9.21429 17.0479C9.18265 16.9715 9.17439 16.8874 9.19056 16.8063C9.20672 16.7251 9.24658 16.6506 9.30509 16.5922L14.1647 11.7325L9.30509 6.87286C9.2289 6.79397 9.18675 6.68833 9.1877 6.57867C9.18865 6.46901 9.23264 6.36411 9.31018 6.28656C9.38773 6.20902 9.49263 6.16503 9.60229 6.16408C9.71195 6.16313 9.8176 6.20528 9.89648 6.28147L15.052 11.4369C15.1304 11.5154 15.1744 11.6217 15.1744 11.7326C15.1744 11.8435 15.1304 11.9499 15.052 12.0283L9.89648 17.1838C9.85762 17.2227 9.8115 17.2534 9.76074 17.2745C9.70998 17.2955 9.65558 17.3062 9.60064 17.3062Z" stroke="white" stroke-width="0.6" mask="url(#path-2-outside-1)"/>
</svg>
