<?xml version="1.0" encoding="UTF-8"?>
<svg xmlns="http://www.w3.org/2000/svg" xmlns:xlink="http://www.w3.org/1999/xlink" width="47pt" height="47pt" viewBox="0 0 47 47" version="1.1">
<g id="surface1">
<path style="fill:none;stroke-width:1;stroke-linecap:butt;stroke-linejoin:miter;stroke:rgb(21.960784%,50.196078%,40.392157%);stroke-opacity:1;stroke-miterlimit:4;" d="M 47.998172 24.5 C 47.998172 37.478973 37.478973 47.998172 24.5 47.998172 C 11.521027 47.998172 1.001828 37.478973 1.001828 24.5 C 1.001828 11.521027 11.521027 1.001828 24.5 1.001828 C 37.478973 1.001828 47.998172 11.521027 47.998172 24.5 Z M 47.998172 24.5 " transform="matrix(0.959184,0,0,0.959184,0,0)"/>
<path style=" stroke:none;fill-rule:evenodd;fill:rgb(21.960784%,50.196078%,40.392157%);fill-opacity:1;" d="M 32.261719 17.722656 C 32.8125 18.28125 32.992188 19.550781 32.992188 19.550781 C 32.992188 19.550781 33.175781 21.039062 33.175781 22.527344 L 33.175781 23.921875 C 33.175781 25.410156 32.992188 26.898438 32.992188 26.898438 C 32.992188 26.898438 32.8125 28.164062 32.261719 28.722656 C 31.628906 29.382812 30.929688 29.453125 30.535156 29.488281 C 30.492188 29.492188 30.453125 29.496094 30.417969 29.503906 C 27.84375 29.6875 23.980469 29.695312 23.980469 29.695312 C 23.980469 29.695312 19.199219 29.648438 17.726562 29.507812 C 17.65625 29.496094 17.570312 29.484375 17.476562 29.472656 C 17.007812 29.417969 16.277344 29.332031 15.699219 28.722656 C 15.148438 28.164062 14.96875 26.898438 14.96875 26.898438 C 14.96875 26.898438 14.785156 25.410156 14.785156 23.921875 L 14.785156 22.527344 C 14.785156 21.039062 14.96875 19.550781 14.96875 19.550781 C 14.96875 19.550781 15.148438 18.28125 15.699219 17.722656 C 16.328125 17.0625 17.027344 16.996094 17.421875 16.957031 C 17.464844 16.953125 17.503906 16.949219 17.542969 16.945312 C 20.113281 16.757812 23.976562 16.757812 23.976562 16.757812 L 23.984375 16.757812 C 23.984375 16.757812 27.84375 16.757812 30.417969 16.945312 C 30.453125 16.949219 30.492188 16.953125 30.535156 16.957031 C 30.929688 16.996094 31.628906 17.0625 32.261719 17.722656 Z M 22.082031 20.445312 L 22.082031 25.613281 L 27.050781 23.035156 Z M 22.082031 20.445312 "/>
</g>
</svg>
