<?xml version="1.0" encoding="utf-8"?><svg width="337" height="302" viewBox="0 0 337 302" xmlns="http://www.w3.org/2000/svg" xmlns:xlink="http://www.w3.org/1999/xlink"><svg width="24" height="24" fill="none" viewBox="0 0 24 24" id="archived-memo" x="144" y="278" xmlns="http://www.w3.org/2000/svg"><path d="M21 15l-6 5.996L4.002 21A.998.998 0 013 20.007V3.993C3 3.445 3.445 3 3.993 3h16.014c.548 0 .993.456.993 1.002V15zM19 5H5v14h8v-5a1 1 0 01.883-.993L14 13l5-.001V5zm-.829 9.999L15 15v3.169l3.171-3.17z" fill="#fff"/></svg><svg width="24" height="24" fill="none" viewBox="0 0 24 24" id="archived-memo-blue" x="287" y="248" xmlns="http://www.w3.org/2000/svg"><path d="M21 15l-6 5.996L4.002 21A.998.998 0 013 20.007V3.993C3 3.445 3.445 3 3.993 3h16.014c.548 0 .993.456.993 1.002V15zM19 5H5v14h8v-5a1 1 0 01.883-.993L14 13l5-.001V5zm-.829 9.999L15 15v3.169l3.171-3.17z" fill="#0C2F4B"/></svg><svg width="16" height="16" fill="none" viewBox="0 0 16 16" id="arrow-down" x="317" y="108" xmlns="http://www.w3.org/2000/svg"><path d="M13.527 5.03h0a.618.618 0 01.875.874l-.002.002h0l-5.778 5.778h0a.619.619 0 01-.875 0h0L1.969 5.906h0a.619.619 0 01-.181-.437l11.739-.44zm0 0l-.002.001m.002-.001l-.002.001m0 0l-5.34 5.34-5.341-5.34s0 0 0 0a.619.619 0 00-1.056.438l11.737-.438z" fill="#fff" stroke="#fff" stroke-width=".3"/></svg><svg width="18" height="18" fill="none" viewBox="0 0 18 18" id="arrow-down-blue" x="317" y="56" xmlns="http://www.w3.org/2000/svg"><path d="M3.352 5.977c.2-.2.512-.218.733-.054l.063.054L9 10.83l4.852-4.852c.2-.2.512-.218.733-.054l.063.054c.2.2.218.512.054.733l-.054.063-5.25 5.25c-.2.2-.512.218-.733.054l-.063-.054-5.25-5.25a.563.563 0 010-.796z" fill="#0C2F4B" stroke="#0C2F4B"/></svg><svg width="18" height="18" fill="none" viewBox="0 0 18 18" id="arrow-down-green" x="317" y="38" xmlns="http://www.w3.org/2000/svg"><path d="M3.352 5.977c.2-.2.512-.218.733-.054l.063.054L9 10.83l4.852-4.852c.2-.2.512-.218.733-.054l.063.054c.2.2.218.512.054.733l-.054.063-5.25 5.25c-.2.2-.512.218-.733.054l-.063-.054-5.25-5.25a.563.563 0 010-.796z" fill="#388067" stroke="#388067"/></svg><svg width="18" height="18" fill="none" viewBox="0 0 18 18" id="arrow-down-light-green" x="317" y="74" xmlns="http://www.w3.org/2000/svg"><path d="M3.352 5.977c.2-.2.512-.218.733-.054l.063.054L9 10.83l4.852-4.852c.2-.2.512-.218.733-.054l.063.054c.2.2.218.512.054.733l-.054.063-5.25 5.25c-.2.2-.512.218-.733.054l-.063-.054-5.25-5.25a.563.563 0 010-.796z" fill="#43997B" stroke="#43997B"/></svg><svg width="48" height="48" fill="none" viewBox="0 0 48 48" id="arrow-left-black" x="50" xmlns="http://www.w3.org/2000/svg"><path d="M32.06 8.94a1.5 1.5 0 01.146 1.952l-.145.169L19.122 24l12.939 12.94a1.5 1.5 0 01.145 1.952l-.145.169a1.5 1.5 0 01-1.953.145l-.169-.145-14-14a1.5 1.5 0 01-.145-1.953l.145-.169 14-14a1.5 1.5 0 012.122 0z" fill="#000"/></svg><svg width="48" height="48" fill="none" viewBox="0 0 48 48" id="arrow-left-green" y="50" xmlns="http://www.w3.org/2000/svg"><path d="M32.06 8.94a1.5 1.5 0 01.146 1.952l-.145.169L19.122 24l12.939 12.94a1.5 1.5 0 01.145 1.952l-.145.169a1.5 1.5 0 01-1.953.145l-.169-.145-14-14a1.5 1.5 0 01-.145-1.953l.145-.169 14-14a1.5 1.5 0 012.122 0z" fill="#388067"/></svg><svg width="48" height="48" fill="none" viewBox="0 0 48 48" id="arrow-left-white" x="48" y="50" xmlns="http://www.w3.org/2000/svg"><path d="M32.06 8.94a1.5 1.5 0 01.146 1.952l-.145.169L19.122 24l12.939 12.94a1.5 1.5 0 01.145 1.952l-.145.169a1.5 1.5 0 01-1.953.145l-.169-.145-14-14a1.5 1.5 0 01-.145-1.953l.145-.169 14-14a1.5 1.5 0 012.122 0z" fill="#fff"/></svg><svg width="48" height="48" fill="none" viewBox="0 0 48 48" id="arrow-right-black" x="98" xmlns="http://www.w3.org/2000/svg"><path d="M15.94 39.06a1.5 1.5 0 01-.146-1.952l.145-.169L28.878 24 15.939 11.06a1.5 1.5 0 01-.145-1.952l.145-.169a1.5 1.5 0 011.953-.145l.169.145 14 14a1.5 1.5 0 01.145 1.953l-.145.169-14 14a1.5 1.5 0 01-2.122 0z" fill="#000"/></svg><svg width="48" height="48" fill="none" viewBox="0 0 48 48" id="arrow-right-green" x="98" y="48" xmlns="http://www.w3.org/2000/svg"><path d="M15.94 39.06a1.5 1.5 0 01-.146-1.952l.145-.169L28.878 24 15.939 11.06a1.5 1.5 0 01-.145-1.952l.145-.169a1.5 1.5 0 011.953-.145l.169.145 14 14a1.5 1.5 0 01.145 1.953l-.145.169-14 14a1.5 1.5 0 01-2.122 0z" fill="#388067"/></svg><svg width="48" height="48" fill="none" viewBox="0 0 48 48" id="arrow-right-light-green" y="98" xmlns="http://www.w3.org/2000/svg"><path d="M15.94 39.06a1.5 1.5 0 01-.146-1.952l.145-.169L28.878 24 15.939 11.06a1.5 1.5 0 01-.145-1.952l.145-.169a1.5 1.5 0 011.953-.145l.169.145 14 14a1.5 1.5 0 01.145 1.953l-.145.169-14 14a1.5 1.5 0 01-2.122 0z" fill="#43997B"/></svg><svg width="48" height="48" fill="none" viewBox="0 0 48 48" id="arrow-right-white" x="48" y="98" xmlns="http://www.w3.org/2000/svg"><path d="M15.94 39.06a1.5 1.5 0 01-.146-1.952l.145-.169L28.878 24 15.939 11.06a1.5 1.5 0 01-.145-1.952l.145-.169a1.5 1.5 0 011.953-.145l.169.145 14 14a1.5 1.5 0 01.145 1.953l-.145.169-14 14a1.5 1.5 0 01-2.122 0z" fill="#fff"/></svg><svg width="16" height="16" fill="none" viewBox="0 0 16 16" id="arrow-up" x="317" y="92" xmlns="http://www.w3.org/2000/svg"><path d="M2.473 9.97h0a.619.619 0 01-.875-.874l.002-.002h0l5.778-5.778h0a.619.619 0 01.875 0h0l5.778 5.778h0a.62.62 0 01.181.437l-11.739.44zm0 0l.002-.001m-.002.001l.002-.001m0 0l5.34-5.34 5.341 5.34s0 0 0 0a.618.618 0 001.056-.438L2.476 9.97z" fill="#fff" stroke="#fff" stroke-width=".3"/></svg><svg width="25" height="16" fill="none" viewBox="0 0 25 16" id="burger" x="287" y="112" xmlns="http://www.w3.org/2000/svg"><rect width="25" height="2" rx="1" fill="#000"/><rect y="14" width="25" height="2" rx="1" fill="#000"/><rect y="7" width="12.5" height="2" rx="1" fill="#000"/></svg><svg width="20" height="20" fill="none" viewBox="0 0 20 20" id="checkbox" x="211" y="278" xmlns="http://www.w3.org/2000/svg"><rect x=".5" y=".5" width="19" height="19" rx="2.5" fill="#F1F1F1" stroke="#388067"/></svg><svg width="20" height="20" fill="none" viewBox="0 0 20 20" id="checkbox-checked" x="191" y="278" xmlns="http://www.w3.org/2000/svg"><rect x=".5" y=".5" width="19" height="19" rx="2.5" fill="#F1F1F1" stroke="#388067"/><path d="M13.712 6.212a.938.938 0 011.338 1.313l-4.988 6.237a.936.936 0 01-1.35.025L5.405 10.48A.937.937 0 116.73 9.155l2.617 2.616L13.69 6.24a.322.322 0 01.025-.028h-.002z" fill="#388067"/></svg><svg width="24" height="24" fill="none" viewBox="0 0 24 24" id="chevron" x="258" y="240" xmlns="http://www.w3.org/2000/svg"><path d="M12.707 15.293a1 1 0 01-1.414 0l-3.586-3.586c-.63-.63-.184-1.707.707-1.707h7.172c.89 0 1.337 1.077.707 1.707l-3.586 3.586z" fill="#09121F"/></svg><svg width="24" height="24" fill="none" viewBox="0 0 24 24" id="chevron-green" x="48" y="278" xmlns="http://www.w3.org/2000/svg"><path d="M12.707 15.293a1 1 0 01-1.414 0l-3.586-3.586c-.63-.63-.184-1.707.707-1.707h7.172c.89 0 1.337 1.077.707 1.707l-3.586 3.586z" fill="#388067"/></svg><svg width="30" height="30" fill="none" viewBox="0 0 30 30" id="close" x="287" y="30" xmlns="http://www.w3.org/2000/svg"><path d="M15 12.917l6.25-6.25 2.083 2.083-6.25 6.25 6.25 6.25-2.083 2.083-6.25-6.25-6.25 6.25-2.083-2.083 6.25-6.25-6.25-6.25L8.75 6.667l6.25 6.25z" fill="#388067"/></svg><svg width="30" height="30" fill="none" viewBox="0 0 30 30" id="close-black" x="287" xmlns="http://www.w3.org/2000/svg"><path d="M15 12.917l6.25-6.25 2.083 2.083-6.25 6.25 6.25 6.25-2.083 2.083-6.25-6.25-6.25 6.25-2.083-2.083 6.25-6.25-6.25-6.25L8.75 6.667l6.25 6.25z" fill="#000"/></svg><svg width="30" height="30" fill="none" viewBox="0 0 30 30" id="close-blue" x="228" y="240" xmlns="http://www.w3.org/2000/svg"><path d="M22.5 7.5l-15 15M7.5 7.5l15 15" stroke="#0C2F4B" stroke-width="2" stroke-linecap="round" stroke-linejoin="round"/></svg><svg width="24" height="24" fill="none" viewBox="0 0 24 24" id="download" x="287" y="224" xmlns="http://www.w3.org/2000/svg"><path d="M13 10h5l-6 6-6-6h5V3h2v7zm-9 9h16v-7h2v8a1 1 0 01-1 1H3a1 1 0 01-1-1v-8h2v7z" fill="#388067"/></svg><svg width="24" height="24" fill="none" viewBox="0 0 24 24" id="download-blue" x="287" y="152" xmlns="http://www.w3.org/2000/svg"><path d="M13 10h5l-6 6-6-6h5V3h2v7zm-9 9h16v-7h2v8a1 1 0 01-1 1H3a1 1 0 01-1-1v-8h2v7z" fill="#0C2F4B"/></svg><svg width="6" height="6" fill="none" viewBox="0 0 6 6" id="ellipse" x="317" y="124" xmlns="http://www.w3.org/2000/svg"><circle cx="3" cy="3" r="3" fill="#fff"/></svg><svg width="24" height="24" fill="none" viewBox="0 0 24 24" id="ellipse-empty" x="24" y="278" xmlns="http://www.w3.org/2000/svg"><circle cx="12" cy="12" r="11" stroke="#fff" stroke-width="2"/></svg><svg width="24" height="24" fill="none" viewBox="0 0 24 24" id="ellipse-selected" y="278" xmlns="http://www.w3.org/2000/svg"><circle cx="12" cy="12" r="11" stroke="#fff" stroke-width="2"/><circle cx="12" cy="12" r="3" fill="#fff"/></svg><svg width="47" height="47" viewBox="0 0 47 47" id="facebook" x="193" y="94" xmlns="http://www.w3.org/2000/svg"><path d="M46.04 23.5c0 12.45-10.09 22.54-22.54 22.54S.96 35.95.96 23.5 11.05.96 23.5.96 46.04 11.05 46.04 23.5zm0 0" fill="none" stroke-width="1.91836" stroke="#fff"/><path d="M26.855 20.316H24.57v-1.593c0-.598.375-.739.637-.739h1.613v-2.629l-2.222-.007c-2.465 0-3.028 1.96-3.028 3.214v1.754h-1.425v2.711h1.425v7.668h3v-7.668h2.024zm0 0" fill="#fff"/></svg><svg width="47" height="47" viewBox="0 0 47 47" id="facebook-green-fill" x="47" y="146" xmlns="http://www.w3.org/2000/svg"><path d="M46.04 23.5c0 12.45-10.09 22.54-22.54 22.54S.96 35.95.96 23.5 11.05.96 23.5.96 46.04 11.05 46.04 23.5zm0 0" fill="#388067" stroke="#388067" stroke-width=".95918"/><path d="M26.855 20.316H24.57v-1.593c0-.598.375-.739.637-.739h1.613v-2.629l-2.222-.007c-2.465 0-3.028 1.96-3.028 3.214v1.754h-1.425v2.711h1.425v7.668h3v-7.668h2.024zm0 0" fill="#fff"/></svg><svg width="47" height="47" viewBox="0 0 47 47" id="facebook-green-outline" y="146" xmlns="http://www.w3.org/2000/svg"><path d="M46.04 23.5c0 12.45-10.09 22.54-22.54 22.54S.96 35.95.96 23.5 11.05.96 23.5.96 46.04 11.05 46.04 23.5zm0 0" fill="none" stroke="#388067" stroke-width=".95918"/><path d="M26.855 20.316H24.57v-1.593c0-.598.375-.739.637-.739h1.613v-2.629l-2.222-.007c-2.465 0-3.028 1.96-3.028 3.214v1.754h-1.425v2.711h1.425v7.668h3v-7.668h2.024zm0 0" fill="#388067"/></svg><svg width="47" height="47" viewBox="0 0 47 47" id="facebook-white" x="240" xmlns="http://www.w3.org/2000/svg"><path d="M46.04 23.5c0 12.45-10.09 22.54-22.54 22.54S.96 35.95.96 23.5 11.05.96 23.5.96 46.04 11.05 46.04 23.5zm0 0" fill="#fff" stroke="#fff" stroke-width=".95918"/><path d="M26.855 20.316H24.57v-1.593c0-.598.375-.739.637-.739h1.613v-2.629l-2.222-.007c-2.465 0-3.028 1.96-3.028 3.214v1.754h-1.425v2.711h1.425v7.668h3v-7.668h2.024zm0 0" fill="#388067"/></svg><svg width="20" height="18" fill="none" viewBox="0 0 20 18" id="folder" x="317" y="20" xmlns="http://www.w3.org/2000/svg"><path d="M2 2v14h16V4H9.586l-2-2H2zm8.414 0H19a1 1 0 011 1v14a1 1 0 01-1 1H1a1 1 0 01-1-1V1a1 1 0 011-1h7.414l2 2z" fill="#388067"/></svg><svg width="20" height="18" fill="none" viewBox="0 0 20 18" id="folder-blue" x="231" y="278" xmlns="http://www.w3.org/2000/svg"><path d="M2 2v14h16V4H9.586l-2-2H2zm8.414 0H19a1 1 0 011 1v14a1 1 0 01-1 1H1a1 1 0 01-1-1V1a1 1 0 011-1h7.414l2 2z" fill="#0C2F4B"/></svg><svg width="20" height="20" fill="none" viewBox="0 0 20 20" id="info" x="317" xmlns="http://www.w3.org/2000/svg"><path d="M10 20C4.477 20 0 15.523 0 10S4.477 0 10 0s10 4.477 10 10-4.477 10-10 10zM9 9v6h2V9H9zm0-4v2h2V5H9z" fill="#388067"/></svg><svg width="38" height="38" viewBox="0 0 38 38" id="insights-article" x="152" y="240" xmlns="http://www.w3.org/2000/svg"><path d="M38 19c0 10.492-8.508 19-19 19S0 29.492 0 19 8.508 0 19 0s19 8.508 19 19zm0 0" fill="#f1f1f1"/><path d="M24.816 26.367h-12.41a.778.778 0 01-.547-.226.778.778 0 01-.226-.547V11.633c0-.207.082-.403.226-.547a.766.766 0 01.547-.23h12.41a.76.76 0 01.547.23.76.76 0 01.23.547v13.96a.766.766 0 01-.23.548.771.771 0 01-.547.226zm-9.304-11.633v1.551h6.203v-1.55zm0 3.102v1.55h6.203v-1.55zm0 3.102v1.55h3.875v-1.55zm0 0" fill="#388067"/></svg><svg width="38" height="38" viewBox="0 0 38 38" id="insights-article-hover" y="240" xmlns="http://www.w3.org/2000/svg"><path d="M38 19c0 10.492-8.508 19-19 19S0 29.492 0 19 8.508 0 19 0s19 8.508 19 19zm0 0" fill="#388067"/><path d="M24.816 26.367h-12.41a.778.778 0 01-.547-.226.778.778 0 01-.226-.547V11.633c0-.207.082-.403.226-.547a.766.766 0 01.547-.23h12.41a.76.76 0 01.547.23.76.76 0 01.23.547v13.96a.766.766 0 01-.23.548.771.771 0 01-.547.226zm-9.304-11.633v1.551h6.203v-1.55zm0 3.102v1.55h6.203v-1.55zm0 3.102v1.55h3.875v-1.55zm0 0" fill="#fff"/></svg><svg width="38" height="38" viewBox="0 0 38 38" id="insights-audio" x="190" y="240" xmlns="http://www.w3.org/2000/svg"><path d="M38 19c0 10.492-8.508 19-19 19S0 29.492 0 19 8.508 0 19 0s19 8.508 19 19zm0 0" fill="#f1f1f1"/><path d="M18.613 10.855a3.887 3.887 0 013.582 2.395c.196.473.293.977.293 1.484v3.102a3.879 3.879 0 01-1.133 2.742 3.876 3.876 0 01-5.484 0 3.883 3.883 0 01-1.137-2.742v-3.102a3.883 3.883 0 013.88-3.879zm-6.937 7.758h1.562a5.429 5.429 0 0010.746 0h1.563a6.982 6.982 0 01-2 4.16 6.994 6.994 0 01-4.16 2v3.145h-1.551v-3.145a6.994 6.994 0 01-4.16-2 6.994 6.994 0 01-2-4.16zm0 0" fill="#388067"/></svg><svg width="38" height="38" viewBox="0 0 38 38" id="insights-audio-hover" x="114" y="240" xmlns="http://www.w3.org/2000/svg"><path d="M38 19c0 10.492-8.508 19-19 19S0 29.492 0 19 8.508 0 19 0s19 8.508 19 19zm0 0" fill="#388067"/><path d="M18.613 10.855a3.887 3.887 0 013.582 2.395c.196.473.293.977.293 1.484v3.102a3.879 3.879 0 01-1.133 2.742 3.876 3.876 0 01-5.484 0 3.883 3.883 0 01-1.137-2.742v-3.102a3.883 3.883 0 013.88-3.879zm-6.937 7.758h1.562a5.448 5.448 0 001.82 3.325 5.45 5.45 0 003.555 1.324 5.429 5.429 0 005.371-4.648h1.563a6.982 6.982 0 01-2 4.16 6.994 6.994 0 01-4.16 2v3.144h-1.551v-3.145a6.994 6.994 0 01-4.16-2 6.994 6.994 0 01-2-4.16zm0 0" fill="#fff"/></svg><svg width="38" height="38" viewBox="0 0 38 38" id="insights-video" x="76" y="240" xmlns="http://www.w3.org/2000/svg"><path d="M38 19c0 10.492-8.508 19-19 19S0 29.492 0 19 8.508 0 19 0s19 8.508 19 19zm0 0" fill="#f1f1f1"/><path d="M11.633 13.18c0-.426.344-.774.77-.774H24.82c.426 0 .774.348.774.774v12.418a.771.771 0 01-.773.77H12.401a.77.77 0 01-.543-.227.77.77 0 01-.226-.543zm5.91 3.43a.327.327 0 00-.156-.055.324.324 0 00-.16.039.261.261 0 00-.122.113.313.313 0 00-.043.156v5.047c0 .055.016.113.043.16a.308.308 0 00.282.149c.054 0 .11-.02.156-.051l3.785-2.523a.302.302 0 00.102-.11.332.332 0 00.035-.148.304.304 0 00-.137-.258zm0 0" fill="#388067"/></svg><svg width="38" height="38" viewBox="0 0 38 38" id="insights-video-hover" x="38" y="240" xmlns="http://www.w3.org/2000/svg"><path d="M38 19c0 10.492-8.508 19-19 19S0 29.492 0 19 8.508 0 19 0s19 8.508 19 19zm0 0" fill="#388067"/><path d="M11.633 13.18c0-.426.344-.774.77-.774H24.82c.426 0 .774.348.774.774v12.418a.771.771 0 01-.773.77H12.401a.77.77 0 01-.543-.227.77.77 0 01-.226-.543zm5.91 3.43a.327.327 0 00-.156-.055.324.324 0 00-.16.039.261.261 0 00-.122.113.313.313 0 00-.043.156v5.047c0 .055.016.113.043.16a.308.308 0 00.282.149c.054 0 .11-.02.156-.051l3.785-2.523a.302.302 0 00.102-.11.332.332 0 00.035-.148.304.304 0 00-.137-.258zm0 0" fill="#fff"/></svg><svg width="47" height="47" viewBox="0 0 47 47" id="linkedin" x="193" y="141" xmlns="http://www.w3.org/2000/svg"><path d="M46.04 23.5c0 12.45-10.09 22.54-22.54 22.54S.96 35.95.96 23.5 11.05.96 23.5.96 46.04 11.05 46.04 23.5zm0 0" fill="none" stroke-width="1.91836" stroke="#fff"/><path d="M19.504 17.082c0-.957-.719-1.734-1.598-1.734-.886 0-1.601.777-1.601 1.734 0 .953.715 1.73 1.601 1.73.88 0 1.598-.777 1.598-1.73zm-.227 3.043H16.52v9.61h2.757zm0 0" fill-rule="evenodd" fill="#fff"/><path d="M21.902 20.371h2.7v1.281h.039c.375-.734 1.297-1.507 2.668-1.507 2.855 0 3.386 1.937 3.386 4.457v5.132h-2.82v-4.55c0-1.09-.016-2.485-1.46-2.485-1.47 0-1.692 1.184-1.692 2.403v4.632h-2.817zm0 0" fill="#fff"/></svg><svg width="47" height="47" viewBox="0 0 47 47" id="linkedin-green-fill" x="188" y="193" xmlns="http://www.w3.org/2000/svg"><path d="M46.04 23.5c0 12.45-10.09 22.54-22.54 22.54S.96 35.95.96 23.5 11.05.96 23.5.96 46.04 11.05 46.04 23.5zm0 0" fill="#388067" stroke="#388067" stroke-width=".95918"/><path d="M19.504 17.082c0-.957-.719-1.734-1.598-1.734-.886 0-1.601.777-1.601 1.734 0 .953.715 1.73 1.601 1.73.88 0 1.598-.777 1.598-1.73zm-.227 3.043H16.52v9.61h2.757zm0 0" fill-rule="evenodd" fill="#fff"/><path d="M21.902 20.371h2.7v1.281h.039c.375-.734 1.297-1.507 2.668-1.507 2.855 0 3.386 1.937 3.386 4.457v5.132h-2.82v-4.55c0-1.09-.016-2.485-1.46-2.485-1.47 0-1.692 1.184-1.692 2.403v4.632h-2.817zm0 0" fill="#fff"/></svg><svg width="47" height="47" viewBox="0 0 47 47" id="linkedin-green-outline" x="141" y="193" xmlns="http://www.w3.org/2000/svg"><path d="M46.04 23.5c0 12.45-10.09 22.54-22.54 22.54S.96 35.95.96 23.5 11.05.96 23.5.96 46.04 11.05 46.04 23.5zm0 0" fill="none" stroke="#388067" stroke-width=".95918"/><path d="M19.504 17.082c0-.957-.719-1.734-1.598-1.734-.886 0-1.601.777-1.601 1.734 0 .953.715 1.73 1.601 1.73.88 0 1.598-.777 1.598-1.73zm-.227 3.043H16.52v9.61h2.757zm0 0" fill-rule="evenodd" fill="#388067"/><path d="M21.902 20.371h2.7v1.281h.039c.375-.734 1.297-1.507 2.668-1.507 2.855 0 3.386 1.937 3.386 4.457v5.132h-2.82v-4.55c0-1.09-.016-2.485-1.46-2.485-1.47 0-1.692 1.184-1.692 2.403v4.632h-2.817zm0 0" fill="#388067"/></svg><svg width="47" height="47" viewBox="0 0 47 47" id="linkedin-white" x="94" y="193" xmlns="http://www.w3.org/2000/svg"><path d="M46.04 23.5c0 12.45-10.09 22.54-22.54 22.54S.96 35.95.96 23.5 11.05.96 23.5.96 46.04 11.05 46.04 23.5zm0 0" fill="#fff" stroke="#fff" stroke-width=".95918"/><path d="M19.504 17.082c0-.957-.719-1.734-1.598-1.734-.886 0-1.601.777-1.601 1.734 0 .953.715 1.73 1.601 1.73.88 0 1.598-.777 1.598-1.73zm-.227 3.043H16.52v9.61h2.757zm0 0" fill-rule="evenodd" fill="#388067"/><path d="M21.902 20.371h2.7v1.281h.039c.375-.734 1.297-1.507 2.668-1.507 2.855 0 3.386 1.937 3.386 4.457v5.132h-2.82v-4.55c0-1.09-.016-2.485-1.46-2.485-1.47 0-1.692 1.184-1.692 2.403v4.632h-2.817zm0 0" fill="#388067"/></svg><svg width="24" height="24" fill="none" viewBox="0 0 24 24" id="listen" x="287" y="176" xmlns="http://www.w3.org/2000/svg"><path d="M3 3.993C3 3.445 3.445 3 3.993 3h16.014c.548 0 .993.445.993.993v16.014a.994.994 0 01-.993.993H3.993A.994.994 0 013 20.007V3.993zM5 5v14h14V5H5zm5.622 3.415l4.879 3.252a.4.4 0 010 .666l-4.88 3.252a.4.4 0 01-.621-.332V8.747a.4.4 0 01.622-.332z" fill="#388067"/></svg><svg width="24" height="24" fill="none" viewBox="0 0 24 24" id="listen-blue" x="287" y="200" xmlns="http://www.w3.org/2000/svg"><path d="M3 3.993C3 3.445 3.445 3 3.993 3h16.014c.548 0 .993.445.993.993v16.014a.994.994 0 01-.993.993H3.993A.994.994 0 013 20.007V3.993zM5 5v14h14V5H5zm5.622 3.415l4.879 3.252a.4.4 0 010 .666l-4.88 3.252a.4.4 0 01-.621-.332V8.747a.4.4 0 01.622-.332z" fill="#0C2F4B"/></svg><svg width="47" height="47" viewBox="0 0 47 47" id="mail-green-fill" x="47" y="193" xmlns="http://www.w3.org/2000/svg"><path d="M46.04 23.5c0 12.45-10.09 22.54-22.54 22.54S.96 35.95.96 23.5 11.05.957 23.5.957 46.04 11.051 46.04 23.5zm0 0" fill="#388067" stroke="#388067" stroke-width=".95918"/><path d="M31.652 15.348H16.305a1.914 1.914 0 00-1.907 1.918l-.011 11.511c0 1.055.863 1.918 1.918 1.918h15.347a1.924 1.924 0 001.918-1.918V17.266a1.924 1.924 0 00-1.918-1.918zm0 3.836L23.98 23.98l-7.675-4.796v-1.918l7.675 4.797 7.672-4.797zm0 0" fill="#fff"/></svg><svg width="47" height="47" viewBox="0 0 47 47" id="mail-green-outline" y="193" xmlns="http://www.w3.org/2000/svg"><path d="M46.04 23.5c0 12.45-10.09 22.54-22.54 22.54S.96 35.95.96 23.5 11.05.957 23.5.957 46.04 11.051 46.04 23.5zm0 0" fill="none" stroke="#388067" stroke-width=".95918"/><path d="M31.652 15.348H16.305a1.914 1.914 0 00-1.907 1.918l-.011 11.511c0 1.055.863 1.918 1.918 1.918h15.347a1.924 1.924 0 001.918-1.918V17.266a1.924 1.924 0 00-1.918-1.918zm0 3.836L23.98 23.98l-7.675-4.796v-1.918l7.675 4.797 7.672-4.797zm0 0" fill="#388067"/></svg><svg width="24" height="24" fill="none" viewBox="0 0 24 24" id="map-icon" x="240" y="211" xmlns="http://www.w3.org/2000/svg"><path d="M18.364 17.364L12 23.728l-6.364-6.364a9 9 0 1112.728 0zM12 13a2 2 0 100-4 2 2 0 000 4z" fill="#388067"/></svg><svg width="26" height="26" viewBox="0 0 26 26" id="search" x="287" y="60" xmlns="http://www.w3.org/2000/svg"><g fill="none" stroke-width="2" stroke-linecap="round" stroke-linejoin="round" stroke="#388067"><path d="M11.918 20.582a8.664 8.664 0 008.664-8.664 8.665 8.665 0 00-8.664-8.668 8.666 8.666 0 00-8.668 8.668 8.665 8.665 0 008.668 8.664zm0 0M22.75 22.75l-4.71-4.71" stroke-width="1.73334"/></g></svg><svg width="26" height="26" viewBox="0 0 26 26" id="search-blue" x="287" y="86" xmlns="http://www.w3.org/2000/svg"><g fill="none" stroke-width="2" stroke-linecap="round" stroke-linejoin="round" stroke="#0c2f4b"><path d="M11.918 20.582a8.664 8.664 0 008.664-8.664 8.665 8.665 0 00-8.664-8.668 8.666 8.666 0 00-8.668 8.668 8.665 8.665 0 008.668 8.664zm0 0M22.75 22.75l-4.71-4.71" stroke-width="1.73334"/></g></svg><svg width="41" height="41" fill="none" viewBox="0 0 41 41" id="search-icon" x="240" y="47" xmlns="http://www.w3.org/2000/svg"><circle cx="20.5" cy="20.5" r="19.5" stroke="#E7E7E7" stroke-width="2"/><path d="M20.083 26.417a7.333 7.333 0 100-14.667 7.333 7.333 0 000 14.667zM29.25 28.25l-3.988-3.987" stroke="#388067" stroke-width="2" stroke-linecap="round" stroke-linejoin="round"/></svg><svg width="41" height="41" fill="none" viewBox="0 0 41 41" id="search-icon-hover" x="240" y="88" xmlns="http://www.w3.org/2000/svg"><circle cx="20.5" cy="20.5" r="19.5" fill="#388067"/><path d="M20.083 26.417a7.333 7.333 0 100-14.667 7.333 7.333 0 000 14.667zM29.25 28.25l-3.988-3.987" stroke="#fff" stroke-width="2" stroke-linecap="round" stroke-linejoin="round"/></svg><svg width="24" height="24" fill="none" viewBox="0 0 24 24" id="search-type-all" x="287" y="128" xmlns="http://www.w3.org/2000/svg"><path d="M20.083 10.5l1.202.72a.5.5 0 010 .859L12 17.649l-9.285-5.57a.5.5 0 010-.858l1.202-.721L12 15.35l8.083-4.85zm0 4.7l1.202.72a.5.5 0 010 .859l-8.77 5.262a1 1 0 01-1.03 0l-8.77-5.262a.5.5 0 010-.858l1.202-.721L12 20.05l8.083-4.85zm-7.57-13.891l8.772 5.262a.5.5 0 010 .858L12 12.999 2.715 7.43a.5.5 0 010-.858l8.77-5.262a1 1 0 011.03 0h-.001z" fill="#388067"/></svg><svg width="24" height="24" fill="none" viewBox="0 0 24 24" id="search-type-insights" x="96" y="278" xmlns="http://www.w3.org/2000/svg"><path d="M19 22H5a3 3 0 01-3-3V3a1 1 0 011-1h14a1 1 0 011 1v12h4v4a3 3 0 01-3 3zm-1-5v2a1 1 0 002 0v-2h-2zM6 7v2h8V7H6zm0 4v2h8v-2H6zm0 4v2h5v-2H6z" fill="#388067"/></svg><svg width="24" height="24" fill="none" viewBox="0 0 24 24" id="search-type-people" x="120" y="278" xmlns="http://www.w3.org/2000/svg"><path d="M3 4.995C3 3.893 3.893 3 4.995 3h14.01C20.107 3 21 3.893 21 4.995v14.01A1.995 1.995 0 0119.005 21H4.995A1.995 1.995 0 013 19.005V4.995zM6.357 18h11.49a6.992 6.992 0 00-5.745-3 6.992 6.992 0 00-5.745 3zM12 13a3.5 3.5 0 100-7 3.5 3.5 0 000 7z" fill="#388067"/></svg><svg width="24" height="24" fill="none" viewBox="0 0 24 24" id="search-type-strategies" x="72" y="278" xmlns="http://www.w3.org/2000/svg"><path d="M3 3h8v8H3V3zm0 10h8v8H3v-8zM13 3h8v8h-8V3zm0 10h8v8h-8v-8z" fill="#388067"/></svg><svg width="47" height="47" viewBox="0 0 47 47" id="twitter" x="193" y="47" xmlns="http://www.w3.org/2000/svg"><path d="M46.04 23.5c0 12.45-10.09 22.54-22.54 22.54S.96 35.95.96 23.5 11.05.96 23.5.96 46.04 11.05 46.04 23.5zm0 0" fill="none" stroke-width="1.91836" stroke="#fff"/><path d="M31.652 18.742a6.358 6.358 0 01-1.808.496 3.173 3.173 0 001.386-1.742c-.609.36-1.285.621-2 .762a3.157 3.157 0 00-2.3-.992 3.15 3.15 0 00-3.067 3.863 8.917 8.917 0 01-6.488-3.29 3.156 3.156 0 00.973 4.204c-.516-.016-1-.156-1.426-.39v.038a3.15 3.15 0 002.527 3.086 3.24 3.24 0 01-1.422.055 3.144 3.144 0 002.942 2.184 6.328 6.328 0 01-3.91 1.347c-.254 0-.508-.011-.754-.043a8.912 8.912 0 004.828 1.414c5.793 0 8.957-4.797 8.957-8.957 0-.136 0-.273-.008-.406.617-.445 1.148-1 1.57-1.629zm0 0" fill="#fff"/></svg><svg width="47" height="47" viewBox="0 0 47 47" id="twitter-green-fill" x="193" xmlns="http://www.w3.org/2000/svg"><path d="M46.04 23.5c0 12.45-10.09 22.54-22.54 22.54S.96 35.95.96 23.5 11.05.96 23.5.96 46.04 11.05 46.04 23.5zm0 0" fill="#388067" stroke="#388067" stroke-width=".95918"/><path d="M31.652 18.742a6.358 6.358 0 01-1.808.496 3.173 3.173 0 001.386-1.742c-.609.36-1.285.621-2 .762a3.157 3.157 0 00-2.3-.992 3.15 3.15 0 00-3.067 3.863 8.917 8.917 0 01-6.488-3.29 3.156 3.156 0 00.973 4.204c-.516-.016-1-.156-1.426-.39v.038a3.15 3.15 0 002.527 3.086 3.24 3.24 0 01-1.422.055 3.144 3.144 0 002.942 2.184 6.328 6.328 0 01-3.91 1.347c-.254 0-.508-.011-.754-.043a8.912 8.912 0 004.828 1.414c5.793 0 8.957-4.797 8.957-8.957 0-.136 0-.273-.008-.406.617-.445 1.148-1 1.57-1.629zm0 0" fill="#fff"/></svg><svg width="47" height="47" viewBox="0 0 47 47" id="twitter-green-outline" x="96" y="98" xmlns="http://www.w3.org/2000/svg"><path d="M46.04 23.5c0 12.45-10.09 22.54-22.54 22.54S.96 35.95.96 23.5 11.05.96 23.5.96 46.04 11.05 46.04 23.5zm0 0" fill="none" stroke="#388067" stroke-width=".95918"/><path d="M31.652 18.742a6.358 6.358 0 01-1.808.496 3.173 3.173 0 001.386-1.742c-.609.36-1.285.621-2 .762a3.157 3.157 0 00-2.3-.992 3.15 3.15 0 00-3.067 3.863 8.917 8.917 0 01-6.488-3.29 3.156 3.156 0 00.973 4.204c-.516-.016-1-.156-1.426-.39v.038a3.15 3.15 0 002.527 3.086 3.24 3.24 0 01-1.422.055 3.144 3.144 0 002.942 2.184 6.328 6.328 0 01-3.91 1.347c-.254 0-.508-.011-.754-.043a8.912 8.912 0 004.828 1.414c5.793 0 8.957-4.797 8.957-8.957 0-.136 0-.273-.008-.406.617-.445 1.148-1 1.57-1.629zm0 0" fill="#388067"/></svg><svg width="47" height="47" viewBox="0 0 47 47" id="twitter-white" x="94" y="146" xmlns="http://www.w3.org/2000/svg"><path d="M46.04 23.5c0 12.45-10.09 22.54-22.54 22.54S.96 35.95.96 23.5 11.05.96 23.5.96 46.04 11.05 46.04 23.5zm0 0" fill="#fff" stroke-width="1.91836" stroke="#fff"/><path d="M31.652 18.742a6.358 6.358 0 01-1.808.496 3.173 3.173 0 001.386-1.742c-.609.36-1.285.621-2 .762a3.157 3.157 0 00-2.3-.992 3.15 3.15 0 00-3.067 3.863 8.917 8.917 0 01-6.488-3.29 3.156 3.156 0 00.973 4.204c-.516-.016-1-.156-1.426-.39v.038a3.15 3.15 0 002.527 3.086 3.24 3.24 0 01-1.422.055 3.144 3.144 0 002.942 2.184 6.328 6.328 0 01-3.91 1.347c-.254 0-.508-.011-.754-.043a8.912 8.912 0 004.828 1.414c5.793 0 8.957-4.797 8.957-8.957 0-.136 0-.273-.008-.406.617-.445 1.148-1 1.57-1.629zm0 0" fill="#388067"/></svg><svg width="41" height="41" fill="none" viewBox="0 0 41 41" id="user" x="240" y="129" xmlns="http://www.w3.org/2000/svg"><circle cx="20.5" cy="20.5" r="19.5" stroke="#E7E7E7" stroke-width="2"/><path d="M15.014 15.51c0 1.735.819 3.273 2.08 4.277-1.832.374-3.329 1.326-4.377 2.74-1.09 1.468-1.692 3.43-1.692 5.75a.699.699 0 001.397 0c0-1.77.429-3.592 1.451-4.969 1.02-1.372 2.635-2.312 5.031-2.312h3.192c2.396 0 4.012.94 5.03 2.312 1.023 1.377 1.452 3.199 1.452 4.969a.699.699 0 001.397 0c0-2.32-.602-4.282-1.692-5.75-1.049-1.414-2.545-2.366-4.376-2.74 1.26-1.004 2.079-2.542 2.079-4.276a5.492 5.492 0 00-5.486-5.486 5.492 5.492 0 00-5.486 5.486zm1.397 0a4.094 4.094 0 014.089-4.088 4.094 4.094 0 014.089 4.089 4.094 4.094 0 01-4.089 4.088 4.094 4.094 0 01-4.089-4.088z" fill="#388067" stroke="#388067" stroke-width=".2"/></svg><svg width="41" height="41" fill="none" viewBox="0 0 41 41" id="user-hover" x="240" y="170" xmlns="http://www.w3.org/2000/svg"><circle cx="20.5" cy="20.5" r="20.5" fill="#388067"/><path d="M15.014 15.51c0 1.735.819 3.273 2.08 4.277-1.832.374-3.329 1.326-4.377 2.74-1.09 1.468-1.692 3.43-1.692 5.75a.699.699 0 001.397 0c0-1.77.429-3.592 1.451-4.969 1.02-1.372 2.635-2.312 5.031-2.312h3.192c2.396 0 4.012.94 5.03 2.312 1.023 1.377 1.452 3.199 1.452 4.969a.699.699 0 001.397 0c0-2.32-.602-4.282-1.692-5.75-1.049-1.414-2.545-2.366-4.376-2.74 1.26-1.004 2.079-2.542 2.079-4.276a5.492 5.492 0 00-5.486-5.486 5.492 5.492 0 00-5.486 5.486zm1.397 0a4.094 4.094 0 014.089-4.088 4.094 4.094 0 014.089 4.089 4.094 4.094 0 01-4.089 4.088 4.094 4.094 0 01-4.089-4.088z" fill="#fff" stroke="#fff" stroke-width=".2"/></svg><svg width="50" height="50" fill="none" viewBox="0 0 50 50" id="video-close" xmlns="http://www.w3.org/2000/svg"><circle cx="25" cy="25" r="21" fill="#fff"/><path d="M25 22.917l6.25-6.25 2.083 2.083-6.25 6.25 6.25 6.25-2.083 2.083-6.25-6.25-6.25 6.25-2.083-2.083 6.25-6.25-6.25-6.25 2.083-2.083 6.25 6.25z" fill="#388067"/></svg><svg width="23" height="23" fill="none" viewBox="0 0 23 23" id="view-all-blue" x="168" y="278" xmlns="http://www.w3.org/2000/svg"><path fill="transparent" d="M0 0h23v23H0z"/><path fill="transparent" d="M-871-2365H569v3796H-871z"/><circle cx="11.5" cy="11.5" r="11.5" fill="#0C2F4B"/><mask id="cma" maskUnits="userSpaceOnUse" x="8.182" y="5.164" width="8" height="13" fill="#000"><path fill="#fff" d="M8.182 5.164h8v13h-8z"/><path d="M9.6 17.306a.418.418 0 01-.295-.714l4.86-4.86-4.86-4.86a.418.418 0 01.591-.59l5.156 5.155a.418.418 0 010 .591l-5.156 5.156a.419.419 0 01-.295.122z"/></mask><path d="M9.6 17.306a.418.418 0 01-.295-.714l4.86-4.86-4.86-4.86a.418.418 0 01.591-.59l5.156 5.155a.418.418 0 010 .591l-5.156 5.156a.419.419 0 01-.295.122z" fill="#fff"/><path d="M9.6 17.306a.418.418 0 01-.295-.714l4.86-4.86-4.86-4.86a.418.418 0 01.591-.59l5.156 5.155a.418.418 0 010 .591l-5.156 5.156a.419.419 0 01-.295.122z" stroke="#fff" stroke-width=".6" mask="url(#cma)"/></svg><svg width="23" height="23" fill="none" viewBox="0 0 23 23" id="view-all-green" x="264" y="211" xmlns="http://www.w3.org/2000/svg"><path fill="transparent" d="M0 0h23v23H0z"/><path fill="transparent" d="M-871-2365H569v3796H-871z"/><circle cx="11.5" cy="11.5" r="11.5" fill="#388067"/><mask id="cna" maskUnits="userSpaceOnUse" x="8.182" y="5.164" width="8" height="13" fill="#000"><path fill="transparent" d="M8.182 5.164h8v13h-8z"/><path d="M9.6 17.306a.418.418 0 01-.295-.714l4.86-4.86-4.86-4.86a.418.418 0 01.591-.59l5.156 5.155a.418.418 0 010 .591l-5.156 5.156a.419.419 0 01-.295.122z"/></mask><path d="M9.6 17.306a.418.418 0 01-.295-.714l4.86-4.86-4.86-4.86a.418.418 0 01.591-.59l5.156 5.155a.418.418 0 010 .591l-5.156 5.156a.419.419 0 01-.295.122z" fill="#fff"/><path d="M9.6 17.306a.418.418 0 01-.295-.714l4.86-4.86-4.86-4.86a.418.418 0 01.591-.59l5.156 5.155a.418.418 0 010 .591l-5.156 5.156a.419.419 0 01-.295.122z" stroke="#fff" stroke-width=".6" mask="url(#cna)"/></svg><svg width="47" height="47" viewBox="0 0 47 47" id="youtube" x="146" xmlns="http://www.w3.org/2000/svg"><path d="M46.04 23.5c0 12.45-10.09 22.54-22.54 22.54S.96 35.95.96 23.5 11.05.96 23.5.96 46.04 11.05 46.04 23.5zm0 0" fill="none" stroke-width="1.91836" stroke="#fff"/><path d="M32.262 17.723c.55.558.73 1.828.73 1.828s.184 1.488.184 2.976v1.395c0 1.488-.184 2.976-.184 2.976s-.18 1.266-.73 1.825c-.633.66-1.332.73-1.727.765-.043.008-.082.012-.117.016-2.574.183-6.438.191-6.438.191s-4.78-.043-6.253-.187a6.481 6.481 0 00-.25-.035c-.47-.055-1.2-.141-1.778-.75-.55-.559-.73-1.825-.73-1.825s-.184-1.488-.184-2.976v-1.395c0-1.488.184-2.976.184-2.976s.18-1.27.73-1.828c.63-.66 1.328-.727 1.723-.766l.121-.012c2.57-.187 6.434-.187 6.434-.187h.007s3.86 0 6.434.187l.117.012c.395.04 1.094.105 1.727.766zm-10.18 2.722v5.168l4.969-2.578zm0 0" fill-rule="evenodd" fill="#fff"/></svg><svg width="47" height="47" viewBox="0 0 47 47" id="youtube-green-fill" x="146" y="94" xmlns="http://www.w3.org/2000/svg"><path d="M46.04 23.5c0 12.45-10.09 22.54-22.54 22.54S.96 35.95.96 23.5 11.05.96 23.5.96 46.04 11.05 46.04 23.5zm0 0" fill="#388067" stroke="#388067" stroke-width=".95918"/><path d="M32.262 17.723c.55.558.73 1.828.73 1.828s.184 1.488.184 2.976v1.395c0 1.488-.184 2.976-.184 2.976s-.18 1.266-.73 1.825c-.633.66-1.332.73-1.727.765a.95.95 0 00-.117.016c-2.574.183-6.438.191-6.438.191s-4.78-.047-6.253-.187a6.481 6.481 0 00-.25-.035c-.47-.055-1.2-.141-1.778-.75-.55-.559-.73-1.825-.73-1.825s-.184-1.488-.184-2.976v-1.395c0-1.488.184-2.976.184-2.976s.18-1.27.73-1.828c.63-.66 1.328-.727 1.723-.766l.121-.012c2.57-.187 6.434-.187 6.434-.187h.007s3.86 0 6.434.187l.117.012c.395.04 1.094.105 1.727.766zm-10.18 2.722v5.168l4.969-2.578zm0 0" fill-rule="evenodd" fill="#fff"/></svg><svg width="47" height="47" viewBox="0 0 47 47" id="youtube-green-outline" x="141" y="146" xmlns="http://www.w3.org/2000/svg"><path d="M46.04 23.5c0 12.45-10.09 22.54-22.54 22.54S.96 35.95.96 23.5 11.05.96 23.5.96 46.04 11.05 46.04 23.5zm0 0" fill="none" stroke="#388067" stroke-width=".95918"/><path d="M32.262 17.723c.55.558.73 1.828.73 1.828s.184 1.488.184 2.976v1.395c0 1.488-.184 2.976-.184 2.976s-.18 1.266-.73 1.825c-.633.66-1.332.73-1.727.765a.95.95 0 00-.117.016c-2.574.183-6.438.191-6.438.191s-4.78-.047-6.253-.187a6.481 6.481 0 00-.25-.035c-.47-.055-1.2-.141-1.778-.75-.55-.559-.73-1.825-.73-1.825s-.184-1.488-.184-2.976v-1.395c0-1.488.184-2.976.184-2.976s.18-1.27.73-1.828c.63-.66 1.328-.727 1.723-.766l.121-.012c2.57-.187 6.434-.187 6.434-.187h.007s3.86 0 6.434.187l.117.012c.395.04 1.094.105 1.727.766zm-10.18 2.722v5.168l4.969-2.578zm0 0" fill-rule="evenodd" fill="#388067"/></svg><svg width="47" height="47" viewBox="0 0 47 47" id="youtube-white" x="146" y="47" xmlns="http://www.w3.org/2000/svg"><path d="M46.04 23.5c0 12.45-10.09 22.54-22.54 22.54S.96 35.95.96 23.5 11.05.96 23.5.96 46.04 11.05 46.04 23.5zm0 0" fill="#fff" stroke="#fff" stroke-width=".95918"/><path d="M32.262 17.723c.55.558.73 1.828.73 1.828s.184 1.488.184 2.976v1.395c0 1.488-.184 2.976-.184 2.976s-.18 1.266-.73 1.825c-.633.66-1.332.73-1.727.765-.043.008-.082.012-.117.016-2.574.183-6.438.191-6.438.191s-4.78-.043-6.253-.187a6.481 6.481 0 00-.25-.035c-.47-.055-1.2-.141-1.778-.75-.55-.559-.73-1.825-.73-1.825s-.184-1.488-.184-2.976v-1.395c0-1.488.184-2.976.184-2.976s.18-1.27.73-1.828c.63-.66 1.328-.727 1.723-.766l.121-.012c2.57-.187 6.434-.187 6.434-.187h.007s3.86 0 6.434.187l.117.012c.395.04 1.094.105 1.727.766zm-10.18 2.722v5.168l4.969-2.578zm0 0" fill-rule="evenodd" fill="#388067"/></svg></svg>