<?xml version="1.0" encoding="utf-8"?><svg width="313" height="270" viewBox="0 0 313 270" xmlns="http://www.w3.org/2000/svg" xmlns:xlink="http://www.w3.org/1999/xlink"><svg width="16" height="16" fill="none" viewBox="0 0 16 16" id="arrow-down" x="289" y="121" xmlns="http://www.w3.org/2000/svg"><path d="M13.527 5.03h0a.618.618 0 01.875.874l-.002.002h0l-5.778 5.778h0a.619.619 0 01-.875 0h0L1.969 5.906h0a.619.619 0 01-.181-.437l11.739-.44zm0 0l-.002.001m.002-.001l-.002.001m0 0l-5.34 5.34-5.341-5.34s0 0 0 0a.619.619 0 00-1.056.438l11.737-.438z" fill="#fff" stroke="#fff" stroke-width=".3"/></svg><svg width="48" height="48" fill="none" viewBox="0 0 48 48" id="arrow-left" x="96" y="98" xmlns="http://www.w3.org/2000/svg"><path d="M32.06 8.94a1.5 1.5 0 01.146 1.952l-.145.169L19.122 24l12.939 12.94a1.5 1.5 0 01.145 1.952l-.145.169a1.5 1.5 0 01-1.953.145l-.169-.145-14-14a1.5 1.5 0 01-.145-1.953l.145-.169 14-14a1.5 1.5 0 012.122 0z" fill="#fff"/></svg><svg width="48" height="48" fill="none" viewBox="0 0 48 48" id="arrow-left-hover" x="147" xmlns="http://www.w3.org/2000/svg"><path d="M32.06 8.94a1.5 1.5 0 01.146 1.952l-.145.169L19.122 24l12.939 12.94a1.5 1.5 0 01.145 1.952l-.145.169a1.5 1.5 0 01-1.953.145l-.169-.145-14-14a1.5 1.5 0 01-.145-1.953l.145-.169 14-14a1.5 1.5 0 012.122 0z" fill="#388067"/></svg><svg width="48" height="48" fill="none" viewBox="0 0 48 48" id="arrow-right" y="98" xmlns="http://www.w3.org/2000/svg"><path d="M15.94 39.06a1.5 1.5 0 01-.146-1.952l.145-.169L28.878 24 15.939 11.06a1.5 1.5 0 01-.145-1.952l.145-.169a1.5 1.5 0 011.953-.145l.169.145 14 14a1.5 1.5 0 01.145 1.953l-.145.169-14 14a1.5 1.5 0 01-2.122 0z" fill="#fff"/></svg><svg width="48" height="48" fill="none" viewBox="0 0 48 48" id="arrow-right-hover" x="48" y="98" xmlns="http://www.w3.org/2000/svg"><path d="M15.94 39.06a1.5 1.5 0 01-.146-1.952l.145-.169L28.878 24 15.939 11.06a1.5 1.5 0 01-.145-1.952l.145-.169a1.5 1.5 0 011.953-.145l.169.145 14 14a1.5 1.5 0 01.145 1.953l-.145.169-14 14a1.5 1.5 0 01-2.122 0z" fill="#388067"/></svg><svg width="16" height="16" fill="none" viewBox="0 0 16 16" id="arrow-up" x="289" y="137" xmlns="http://www.w3.org/2000/svg"><path d="M2.473 9.97h0a.619.619 0 01-.875-.874l.002-.002h0l5.778-5.778h0a.619.619 0 01.875 0h0l5.778 5.778h0a.62.62 0 01.181.437l-11.739.44zm0 0l.002-.001m-.002.001l.002-.001m0 0l5.34-5.34 5.341 5.34s0 0 0 0a.618.618 0 001.056-.438L2.476 9.97z" fill="#fff" stroke="#fff" stroke-width=".3"/></svg><svg width="25" height="16" fill="none" viewBox="0 0 25 16" id="burger" x="242" y="211" xmlns="http://www.w3.org/2000/svg"><rect width="25" height="2" rx="1" fill="#000"/><rect y="14" width="25" height="2" rx="1" fill="#000"/><rect y="7" width="12.5" height="2" rx="1" fill="#000"/></svg><svg width="24" height="24" fill="none" viewBox="0 0 24 24" id="chevron" x="150" y="240" xmlns="http://www.w3.org/2000/svg"><path d="M12.707 15.293a1 1 0 01-1.414 0l-3.586-3.586c-.63-.63-.184-1.707.707-1.707h7.172c.89 0 1.337 1.077.707 1.707l-3.586 3.586z" fill="#09121F"/></svg><svg width="30" height="30" fill="none" viewBox="0 0 30 30" id="close" x="120" y="240" xmlns="http://www.w3.org/2000/svg"><path d="M22.5 7.5l-15 15M7.5 7.5l15 15" stroke="#388067" stroke-width="2" stroke-linecap="round" stroke-linejoin="round"/></svg><svg width="30" height="30" fill="none" viewBox="0 0 30 30" id="close-black" x="90" y="240" xmlns="http://www.w3.org/2000/svg"><path d="M22.5 7.5l-15 15M7.5 7.5l15 15" stroke="#000" stroke-width="2" stroke-linecap="round" stroke-linejoin="round"/></svg><svg width="30" height="30" fill="none" viewBox="0 0 30 30" id="close-blue" x="60" y="240" xmlns="http://www.w3.org/2000/svg"><path d="M22.5 7.5l-15 15M7.5 7.5l15 15" stroke="#0C2F4B" stroke-width="2" stroke-linecap="round" stroke-linejoin="round"/></svg><svg width="6" height="6" fill="none" viewBox="0 0 6 6" id="ellipse" x="305" y="105" xmlns="http://www.w3.org/2000/svg"><circle cx="3" cy="3" r="3" fill="#fff"/></svg><svg width="24" height="24" fill="none" viewBox="0 0 24 24" id="ellipse-empty" x="289" y="24" xmlns="http://www.w3.org/2000/svg"><circle cx="12" cy="12" r="11" stroke="#fff" stroke-width="2"/></svg><svg width="24" height="24" fill="none" viewBox="0 0 24 24" id="ellipse-selected" x="174" y="240" xmlns="http://www.w3.org/2000/svg"><circle cx="12" cy="12" r="11" stroke="#fff" stroke-width="2"/><circle cx="12" cy="12" r="3" fill="#fff"/></svg><svg width="47" height="47" viewBox="0 0 47 47" id="facebook" x="94" y="146" xmlns="http://www.w3.org/2000/svg"><path d="M46.04 23.5c0 12.45-10.09 22.54-22.54 22.54S.96 35.95.96 23.5 11.05.96 23.5.96 46.04 11.05 46.04 23.5zm0 0" fill="none" stroke-width="1.91836" stroke="#fff"/><path d="M26.855 20.316H24.57v-1.593c0-.598.375-.739.637-.739h1.613v-2.629l-2.222-.007c-2.465 0-3.028 1.96-3.028 3.214v1.754h-1.425v2.711h1.425v7.668h3v-7.668h2.024zm0 0" fill="#fff"/></svg><svg width="47" height="47" viewBox="0 0 47 47" id="facebook-green-fill" x="141" y="146" xmlns="http://www.w3.org/2000/svg"><path d="M46.04 23.5c0 12.45-10.09 22.54-22.54 22.54S.96 35.95.96 23.5 11.05.96 23.5.96 46.04 11.05 46.04 23.5zm0 0" fill="#388067" stroke="#388067" stroke-width=".95918"/><path d="M26.855 20.316H24.57v-1.593c0-.598.375-.739.637-.739h1.613v-2.629l-2.222-.007c-2.465 0-3.028 1.96-3.028 3.214v1.754h-1.425v2.711h1.425v7.668h3v-7.668h2.024zm0 0" fill="#fff"/></svg><svg width="47" height="47" viewBox="0 0 47 47" id="facebook-green-outline" x="195" xmlns="http://www.w3.org/2000/svg"><path d="M46.04 23.5c0 12.45-10.09 22.54-22.54 22.54S.96 35.95.96 23.5 11.05.96 23.5.96 46.04 11.05 46.04 23.5zm0 0" fill="none" stroke="#388067" stroke-width=".95918"/><path d="M26.855 20.316H24.57v-1.593c0-.598.375-.739.637-.739h1.613v-2.629l-2.222-.007c-2.465 0-3.028 1.96-3.028 3.214v1.754h-1.425v2.711h1.425v7.668h3v-7.668h2.024zm0 0" fill="#388067"/></svg><svg width="47" height="47" viewBox="0 0 47 47" id="facebook-white" x="195" y="47" xmlns="http://www.w3.org/2000/svg"><path d="M46.04 23.5c0 12.45-10.09 22.54-22.54 22.54S.96 35.95.96 23.5 11.05.96 23.5.96 46.04 11.05 46.04 23.5zm0 0" fill="#fff" stroke="#fff" stroke-width=".95918"/><path d="M26.855 20.316H24.57v-1.593c0-.598.375-.739.637-.739h1.613v-2.629l-2.222-.007c-2.465 0-3.028 1.96-3.028 3.214v1.754h-1.425v2.711h1.425v7.668h3v-7.668h2.024zm0 0" fill="#388067"/></svg><svg width="49" height="49" fill="none" viewBox="0 0 49 49" id="insights-article" x="49" xmlns="http://www.w3.org/2000/svg"><circle cx="24.5" cy="24.5" r="24.5" fill="#F1F1F1"/><path d="M32 34H16a1 1 0 01-1-1V15a1 1 0 011-1h16a1 1 0 011 1v18a1 1 0 01-1 1zM20 19v2h8v-2h-8zm0 4v2h8v-2h-8zm0 4v2h5v-2h-5z" fill="#388067"/></svg><svg width="49" height="49" fill="none" viewBox="0 0 49 49" id="insights-article-hover" xmlns="http://www.w3.org/2000/svg"><circle cx="24.5" cy="24.5" r="24.5" fill="#388067"/><path d="M32 34H16a1 1 0 01-1-1V15a1 1 0 011-1h16a1 1 0 011 1v18a1 1 0 01-1 1zM20 19v2h8v-2h-8zm0 4v2h8v-2h-8zm0 4v2h5v-2h-5z" fill="#fff"/></svg><svg width="49" height="49" fill="none" viewBox="0 0 49 49" id="insights-audio" y="49" xmlns="http://www.w3.org/2000/svg"><circle cx="24.5" cy="24.5" r="24.5" fill="#F1F1F1"/><path d="M24 14a5 5 0 015 5v4a5 5 0 11-10 0v-4a5 5 0 015-5zm-8.945 10h2.015a7.002 7.002 0 0013.858 0h2.016A9.003 9.003 0 0125 31.945V36h-2v-4.055A9.004 9.004 0 0115.055 24z" fill="#388067"/></svg><svg width="49" height="49" fill="none" viewBox="0 0 49 49" id="insights-audio-hover" x="49" y="49" xmlns="http://www.w3.org/2000/svg"><circle cx="24.5" cy="24.5" r="24.5" fill="#388067"/><path d="M24 14a5 5 0 015 5v4a5 5 0 11-10 0v-4a5 5 0 015-5zm-8.945 10h2.015a7.002 7.002 0 0013.858 0h2.016A9.004 9.004 0 0125 31.945V36h-2v-4.055A9.004 9.004 0 0115.055 24z" fill="#fff"/></svg><svg width="49" height="49" fill="none" viewBox="0 0 49 49" id="insights-video" x="98" xmlns="http://www.w3.org/2000/svg"><circle cx="24.5" cy="24.5" r="24.5" fill="#F1F1F1"/><path d="M15 16.993c0-.548.445-.993.993-.993h16.014c.548 0 .993.445.993.993v16.014a.994.994 0 01-.993.993H15.993a.994.994 0 01-.993-.993V16.993zm7.622 4.422a.4.4 0 00-.622.332v6.506a.4.4 0 00.622.332l4.879-3.252a.4.4 0 000-.666l-4.88-3.252h.001z" fill="#388067"/></svg><svg width="49" height="49" fill="none" viewBox="0 0 49 49" id="insights-video-hover" x="98" y="49" xmlns="http://www.w3.org/2000/svg"><circle cx="24.5" cy="24.5" r="24.5" fill="#388067"/><path d="M15 16.993c0-.548.445-.993.993-.993h16.014c.548 0 .993.445.993.993v16.014a.994.994 0 01-.993.993H15.993a.994.994 0 01-.993-.993V16.993zm7.622 4.422a.4.4 0 00-.622.332v6.506a.4.4 0 00.622.332l4.879-3.252a.4.4 0 000-.666l-4.88-3.252h.001z" fill="#fff"/></svg><svg width="47" height="47" viewBox="0 0 47 47" id="linkedin" x="188" y="193" xmlns="http://www.w3.org/2000/svg"><path d="M46.04 23.5c0 12.45-10.09 22.54-22.54 22.54S.96 35.95.96 23.5 11.05.96 23.5.96 46.04 11.05 46.04 23.5zm0 0" fill="none" stroke-width="1.91836" stroke="#fff"/><path d="M19.504 17.082c0-.957-.719-1.734-1.598-1.734-.886 0-1.601.777-1.601 1.734 0 .953.715 1.73 1.601 1.73.88 0 1.598-.777 1.598-1.73zm-.227 3.043H16.52v9.61h2.757zm0 0" fill-rule="evenodd" fill="#fff"/><path d="M21.902 20.371h2.7v1.281h.039c.375-.734 1.297-1.507 2.668-1.507 2.855 0 3.386 1.937 3.386 4.457v5.132h-2.82v-4.55c0-1.09-.016-2.485-1.46-2.485-1.47 0-1.692 1.184-1.692 2.403v4.632h-2.817zm0 0" fill="#fff"/></svg><svg width="47" height="47" viewBox="0 0 47 47" id="linkedin-green-fill" x="147" y="48" xmlns="http://www.w3.org/2000/svg"><path d="M46.04 23.5c0 12.45-10.09 22.54-22.54 22.54S.96 35.95.96 23.5 11.05.96 23.5.96 46.04 11.05 46.04 23.5zm0 0" fill="#388067" stroke="#388067" stroke-width=".95918"/><path d="M19.504 17.082c0-.957-.719-1.734-1.598-1.734-.886 0-1.601.777-1.601 1.734 0 .953.715 1.73 1.601 1.73.88 0 1.598-.777 1.598-1.73zm-.227 3.043H16.52v9.61h2.757zm0 0" fill-rule="evenodd" fill="#fff"/><path d="M21.902 20.371h2.7v1.281h.039c.375-.734 1.297-1.507 2.668-1.507 2.855 0 3.386 1.937 3.386 4.457v5.132h-2.82v-4.55c0-1.09-.016-2.485-1.46-2.485-1.47 0-1.692 1.184-1.692 2.403v4.632h-2.817zm0 0" fill="#fff"/></svg><svg width="47" height="47" viewBox="0 0 47 47" id="linkedin-green-outline" x="47" y="146" xmlns="http://www.w3.org/2000/svg"><path d="M46.04 23.5c0 12.45-10.09 22.54-22.54 22.54S.96 35.95.96 23.5 11.05.96 23.5.96 46.04 11.05 46.04 23.5zm0 0" fill="none" stroke="#388067" stroke-width=".95918"/><path d="M19.504 17.082c0-.957-.719-1.734-1.598-1.734-.886 0-1.601.777-1.601 1.734 0 .953.715 1.73 1.601 1.73.88 0 1.598-.777 1.598-1.73zm-.227 3.043H16.52v9.61h2.757zm0 0" fill-rule="evenodd" fill="#388067"/><path d="M21.902 20.371h2.7v1.281h.039c.375-.734 1.297-1.507 2.668-1.507 2.855 0 3.386 1.937 3.386 4.457v5.132h-2.82v-4.55c0-1.09-.016-2.485-1.46-2.485-1.47 0-1.692 1.184-1.692 2.403v4.632h-2.817zm0 0" fill="#388067"/></svg><svg width="47" height="47" viewBox="0 0 47 47" id="linkedin-white" y="146" xmlns="http://www.w3.org/2000/svg"><path d="M46.04 23.5c0 12.45-10.09 22.54-22.54 22.54S.96 35.95.96 23.5 11.05.96 23.5.96 46.04 11.05 46.04 23.5zm0 0" fill="#fff" stroke="#fff" stroke-width=".95918"/><path d="M19.504 17.082c0-.957-.719-1.734-1.598-1.734-.886 0-1.601.777-1.601 1.734 0 .953.715 1.73 1.601 1.73.88 0 1.598-.777 1.598-1.73zm-.227 3.043H16.52v9.61h2.757zm0 0" fill-rule="evenodd" fill="#388067"/><path d="M21.902 20.371h2.7v1.281h.039c.375-.734 1.297-1.507 2.668-1.507 2.855 0 3.386 1.937 3.386 4.457v5.132h-2.82v-4.55c0-1.09-.016-2.485-1.46-2.485-1.47 0-1.692 1.184-1.692 2.403v4.632h-2.817zm0 0" fill="#388067"/></svg><svg width="16" height="16" fill="none" viewBox="0 0 16 16" id="links" x="289" y="105" xmlns="http://www.w3.org/2000/svg"><path d="M8.707 5.407l.943.943a4.668 4.668 0 010 6.6l-.236.236a4.667 4.667 0 01-6.6-6.6l.943.943a3.333 3.333 0 104.714 4.714l.236-.236a3.333 3.333 0 000-4.713l-.943-.944.943-.942zm4.478 4.007l-.942-.942a3.332 3.332 0 10-4.714-4.714l-.236.236a3.333 3.333 0 000 4.713l.943.943-.943.943-.943-.943a4.667 4.667 0 010-6.6l.236-.235a4.667 4.667 0 116.6 6.6z" fill="#0C2F4B"/></svg><svg width="19" height="11" fill="none" viewBox="0 0 19 11" id="retweet" x="289" y="94" xmlns="http://www.w3.org/2000/svg"><path d="M15.2 11a.653.653 0 00.496-.222.723.723 0 00.206-.506V4.61H19L14.787.08l-4.254 4.53h3.139v4.166h-3.346L8.137 11H15.2zM0 6.39h3.098V.728c0-.189.069-.357.206-.506A.653.653 0 013.8 0h7.063l-2.19 2.224H5.329V6.39h3.14l-4.255 4.57L0 6.39z" fill="#979797"/></svg><svg width="30" height="30" fill="none" viewBox="0 0 30 30" id="search" y="240" xmlns="http://www.w3.org/2000/svg"><path d="M13.75 23.75c5.523 0 10-4.477 10-10s-4.477-10-10-10-10 4.477-10 10 4.477 10 10 10zM26.25 26.25l-5.438-5.438" stroke="#388067" stroke-width="2" stroke-linecap="round" stroke-linejoin="round"/></svg><svg width="30" height="30" fill="none" viewBox="0 0 30 30" id="search-blue" x="30" y="240" xmlns="http://www.w3.org/2000/svg"><path d="M13.75 23.75c5.523 0 10-4.477 10-10s-4.477-10-10-10-10 4.477-10 10 4.477 10 10 10zM26.25 26.25l-5.438-5.438" stroke="#0C2F4B" stroke-width="2" stroke-linecap="round" stroke-linejoin="round"/></svg><svg width="41" height="41" fill="none" viewBox="0 0 41 41" id="search-icon" x="242" y="47" xmlns="http://www.w3.org/2000/svg"><circle cx="20.5" cy="20.5" r="19.5" stroke="#E7E7E7" stroke-width="2"/><path d="M20.083 26.417a7.333 7.333 0 100-14.667 7.333 7.333 0 000 14.667zM29.25 28.25l-3.988-3.987" stroke="#388067" stroke-width="2" stroke-linecap="round" stroke-linejoin="round"/></svg><svg width="41" height="41" fill="none" viewBox="0 0 41 41" id="search-icon-hover" x="242" y="88" xmlns="http://www.w3.org/2000/svg"><circle cx="20.5" cy="20.5" r="20.5" fill="#388067"/><path d="M20.083 26.417a7.333 7.333 0 100-14.667 7.333 7.333 0 000 14.667zM29.25 28.25l-3.987-3.987" stroke="#fff" stroke-width="2" stroke-linecap="round" stroke-linejoin="round"/></svg><svg width="24" height="24" fill="none" viewBox="0 0 24 24" id="search-type-all" x="198" y="240" xmlns="http://www.w3.org/2000/svg"><path d="M20.083 10.5l1.202.72a.5.5 0 010 .859L12 17.649l-9.285-5.57a.5.5 0 010-.858l1.202-.721L12 15.35l8.083-4.85zm0 4.7l1.202.72a.5.5 0 010 .859l-8.77 5.262a1 1 0 01-1.03 0l-8.77-5.262a.5.5 0 010-.858l1.202-.721L12 20.05l8.083-4.85zm-7.57-13.891l8.772 5.262a.5.5 0 010 .858L12 12.999 2.715 7.43a.5.5 0 010-.858l8.77-5.262a1 1 0 011.03 0h-.001z" fill="#388067"/></svg><svg width="24" height="24" fill="none" viewBox="0 0 24 24" id="search-type-insights" x="222" y="240" xmlns="http://www.w3.org/2000/svg"><path d="M19 22H5a3 3 0 01-3-3V3a1 1 0 011-1h14a1 1 0 011 1v12h4v4a3 3 0 01-3 3zm-1-5v2a1 1 0 002 0v-2h-2zM6 7v2h8V7H6zm0 4v2h8v-2H6zm0 4v2h5v-2H6z" fill="#388067"/></svg><svg width="24" height="24" fill="none" viewBox="0 0 24 24" id="search-type-people" x="246" y="240" xmlns="http://www.w3.org/2000/svg"><path d="M3 4.995C3 3.893 3.893 3 4.995 3h14.01C20.107 3 21 3.893 21 4.995v14.01A1.995 1.995 0 0119.005 21H4.995A1.995 1.995 0 013 19.005V4.995zM6.357 18h11.49a6.992 6.992 0 00-5.745-3 6.992 6.992 0 00-5.745 3zM12 13a3.5 3.5 0 100-7 3.5 3.5 0 000 7z" fill="#388067"/></svg><svg width="24" height="24" fill="none" viewBox="0 0 24 24" id="search-type-strategies" x="289" xmlns="http://www.w3.org/2000/svg"><path d="M3 3h8v8H3V3zm0 10h8v8H3v-8zM13 3h8v8h-8V3zm0 10h8v8h-8v-8z" fill="#388067"/></svg><svg width="47" height="47" viewBox="0 0 47 47" id="twitter" x="147" y="95" xmlns="http://www.w3.org/2000/svg"><path d="M46.04 23.5c0 12.45-10.09 22.54-22.54 22.54S.96 35.95.96 23.5 11.05.96 23.5.96 46.04 11.05 46.04 23.5zm0 0" fill="none" stroke-width="1.91836" stroke="#fff"/><path d="M31.652 18.742a6.358 6.358 0 01-1.808.496 3.173 3.173 0 001.386-1.742c-.609.36-1.285.621-2 .762a3.157 3.157 0 00-2.3-.992 3.15 3.15 0 00-3.067 3.863 8.917 8.917 0 01-6.488-3.29 3.156 3.156 0 00.973 4.204c-.516-.016-1-.156-1.426-.39v.038a3.15 3.15 0 002.527 3.086 3.24 3.24 0 01-1.422.055 3.144 3.144 0 002.942 2.184 6.328 6.328 0 01-3.91 1.347c-.254 0-.508-.011-.754-.043a8.912 8.912 0 004.828 1.414c5.793 0 8.957-4.797 8.957-8.957 0-.136 0-.273-.008-.406.617-.445 1.148-1 1.57-1.629zm0 0" fill="#fff"/></svg><svg width="47" height="47" viewBox="0 0 47 47" id="twitter-green-fill" x="242" xmlns="http://www.w3.org/2000/svg"><path d="M46.04 23.5c0 12.45-10.09 22.54-22.54 22.54S.96 35.95.96 23.5 11.05.96 23.5.96 46.04 11.05 46.04 23.5zm0 0" fill="#388067" stroke="#388067" stroke-width=".95918"/><path d="M31.652 18.742a6.358 6.358 0 01-1.808.496 3.173 3.173 0 001.386-1.742c-.609.36-1.285.621-2 .762a3.157 3.157 0 00-2.3-.992 3.15 3.15 0 00-3.067 3.863 8.917 8.917 0 01-6.488-3.29 3.156 3.156 0 00.973 4.204c-.516-.016-1-.156-1.426-.39v.038a3.15 3.15 0 002.527 3.086 3.24 3.24 0 01-1.422.055 3.144 3.144 0 002.942 2.184 6.328 6.328 0 01-3.91 1.347c-.254 0-.508-.011-.754-.043a8.912 8.912 0 004.828 1.414c5.793 0 8.957-4.797 8.957-8.957 0-.136 0-.273-.008-.406.617-.445 1.148-1 1.57-1.629zm0 0" fill="#fff"/></svg><svg width="47" height="47" viewBox="0 0 47 47" id="twitter-green-outline" x="141" y="193" xmlns="http://www.w3.org/2000/svg"><path d="M46.04 23.5c0 12.45-10.09 22.54-22.54 22.54S.96 35.95.96 23.5 11.05.96 23.5.96 46.04 11.05 46.04 23.5zm0 0" fill="none" stroke="#388067" stroke-width=".95918"/><path d="M31.652 18.742a6.358 6.358 0 01-1.808.496 3.173 3.173 0 001.386-1.742c-.609.36-1.285.621-2 .762a3.157 3.157 0 00-2.3-.992 3.15 3.15 0 00-3.067 3.863 8.917 8.917 0 01-6.488-3.29 3.156 3.156 0 00.973 4.204c-.516-.016-1-.156-1.426-.39v.038a3.15 3.15 0 002.527 3.086 3.24 3.24 0 01-1.422.055 3.144 3.144 0 002.942 2.184 6.328 6.328 0 01-3.91 1.347c-.254 0-.508-.011-.754-.043a8.912 8.912 0 004.828 1.414c5.793 0 8.957-4.797 8.957-8.957 0-.136 0-.273-.008-.406.617-.445 1.148-1 1.57-1.629zm0 0" fill="#388067"/></svg><svg width="47" height="47" viewBox="0 0 47 47" id="twitter-white" x="94" y="193" xmlns="http://www.w3.org/2000/svg"><path d="M46.04 23.5c0 12.45-10.09 22.54-22.54 22.54S.96 35.95.96 23.5 11.05.96 23.5.96 46.04 11.05 46.04 23.5zm0 0" fill="#fff" stroke-width="1.91836" stroke="#fff"/><path d="M31.652 18.742a6.358 6.358 0 01-1.808.496 3.173 3.173 0 001.386-1.742c-.609.36-1.285.621-2 .762a3.157 3.157 0 00-2.3-.992 3.15 3.15 0 00-3.067 3.863 8.917 8.917 0 01-6.488-3.29 3.156 3.156 0 00.973 4.204c-.516-.016-1-.156-1.426-.39v.038a3.15 3.15 0 002.527 3.086 3.24 3.24 0 01-1.422.055 3.144 3.144 0 002.942 2.184 6.328 6.328 0 01-3.91 1.347c-.254 0-.508-.011-.754-.043a8.912 8.912 0 004.828 1.414c5.793 0 8.957-4.797 8.957-8.957 0-.136 0-.273-.008-.406.617-.445 1.148-1 1.57-1.629zm0 0" fill="#388067"/></svg><svg width="41" height="41" fill="none" viewBox="0 0 41 41" id="user" x="242" y="129" xmlns="http://www.w3.org/2000/svg"><circle cx="20.5" cy="20.5" r="19.5" stroke="#E7E7E7" stroke-width="2"/><path d="M15.014 15.51c0 1.735.819 3.273 2.08 4.277-1.832.374-3.329 1.326-4.377 2.74-1.09 1.468-1.692 3.43-1.692 5.75a.699.699 0 001.397 0c0-1.77.429-3.592 1.451-4.969 1.02-1.372 2.635-2.312 5.031-2.312h3.192c2.396 0 4.012.94 5.03 2.312 1.023 1.377 1.452 3.199 1.452 4.969a.699.699 0 001.397 0c0-2.32-.602-4.282-1.692-5.75-1.049-1.414-2.545-2.366-4.376-2.74 1.26-1.004 2.079-2.542 2.079-4.276a5.492 5.492 0 00-5.486-5.486 5.492 5.492 0 00-5.486 5.486zm1.397 0a4.094 4.094 0 014.089-4.088 4.094 4.094 0 014.089 4.089 4.094 4.094 0 01-4.089 4.088 4.094 4.094 0 01-4.089-4.088z" fill="#388067" stroke="#388067" stroke-width=".2"/></svg><svg width="41" height="41" fill="none" viewBox="0 0 41 41" id="user-hover" x="242" y="170" xmlns="http://www.w3.org/2000/svg"><circle cx="20.5" cy="20.5" r="20.5" fill="#388067"/><path d="M15.014 15.51c0 1.735.819 3.273 2.08 4.277-1.832.374-3.329 1.326-4.377 2.74-1.09 1.468-1.692 3.43-1.692 5.75a.699.699 0 001.397 0c0-1.77.429-3.592 1.451-4.969 1.02-1.372 2.635-2.312 5.031-2.312h3.192c2.396 0 4.012.94 5.03 2.312 1.023 1.377 1.452 3.199 1.452 4.969a.699.699 0 001.397 0c0-2.32-.602-4.282-1.692-5.75-1.049-1.414-2.545-2.366-4.376-2.74 1.26-1.004 2.079-2.542 2.079-4.276a5.492 5.492 0 00-5.486-5.486 5.492 5.492 0 00-5.486 5.486zm1.397 0a4.094 4.094 0 014.089-4.088 4.094 4.094 0 014.089 4.089 4.094 4.094 0 01-4.089 4.088 4.094 4.094 0 01-4.089-4.088z" fill="#fff" stroke="#fff" stroke-width=".2"/></svg><svg width="23" height="23" fill="none" viewBox="0 0 23 23" id="view-all-blue" x="289" y="48" xmlns="http://www.w3.org/2000/svg"><path fill="transparent" d="M0 0h23v23H0z"/><path fill="transparent" d="M-871-2365H569v3796H-871z"/><circle cx="11.5" cy="11.5" r="11.5" fill="#0C2F4B"/><mask id="bsa" maskUnits="userSpaceOnUse" x="8.182" y="5.164" width="8" height="13" fill="#000"><path fill="#fff" d="M8.182 5.164h8v13h-8z"/><path d="M9.6 17.306a.418.418 0 01-.295-.714l4.86-4.86-4.86-4.86a.418.418 0 01.591-.59l5.156 5.155a.418.418 0 010 .591l-5.156 5.156a.419.419 0 01-.295.122z"/></mask><path d="M9.6 17.306a.418.418 0 01-.295-.714l4.86-4.86-4.86-4.86a.418.418 0 01.591-.59l5.156 5.155a.418.418 0 010 .591l-5.156 5.156a.419.419 0 01-.295.122z" fill="#fff"/><path d="M9.6 17.306a.418.418 0 01-.295-.714l4.86-4.86-4.86-4.86a.418.418 0 01.591-.59l5.156 5.155a.418.418 0 010 .591l-5.156 5.156a.419.419 0 01-.295.122z" stroke="#fff" stroke-width=".6" mask="url(#bsa)"/></svg><svg width="23" height="23" fill="none" viewBox="0 0 23 23" id="view-all-green" x="289" y="71" xmlns="http://www.w3.org/2000/svg"><path fill="transparent" d="M0 0h23v23H0z"/><path fill="transparent" d="M-871-2365H569v3796H-871z"/><circle cx="11.5" cy="11.5" r="11.5" fill="#388067"/><mask id="bta" maskUnits="userSpaceOnUse" x="8.182" y="5.164" width="8" height="13" fill="#000"><path fill="transparent" d="M8.182 5.164h8v13h-8z"/><path d="M9.6 17.306a.418.418 0 01-.295-.714l4.86-4.86-4.86-4.86a.418.418 0 01.591-.59l5.156 5.155a.418.418 0 010 .591l-5.156 5.156a.419.419 0 01-.295.122z"/></mask><path d="M9.6 17.306a.418.418 0 01-.295-.714l4.86-4.86-4.86-4.86a.418.418 0 01.591-.59l5.156 5.155a.418.418 0 010 .591l-5.156 5.156a.419.419 0 01-.295.122z" fill="#fff"/><path d="M9.6 17.306a.418.418 0 01-.295-.714l4.86-4.86-4.86-4.86a.418.418 0 01.591-.59l5.156 5.155a.418.418 0 010 .591l-5.156 5.156a.419.419 0 01-.295.122z" stroke="#fff" stroke-width=".6" mask="url(#bta)"/></svg><svg width="47" height="47" viewBox="0 0 47 47" id="youtube" x="47" y="193" xmlns="http://www.w3.org/2000/svg"><path d="M46.04 23.5c0 12.45-10.09 22.54-22.54 22.54S.96 35.95.96 23.5 11.05.96 23.5.96 46.04 11.05 46.04 23.5zm0 0" fill="none" stroke-width="1.91836" stroke="#fff"/><path d="M32.262 17.723c.55.558.73 1.828.73 1.828s.184 1.488.184 2.976v1.395c0 1.488-.184 2.976-.184 2.976s-.18 1.266-.73 1.825c-.633.66-1.332.73-1.727.765-.043.008-.082.012-.117.016-2.574.183-6.438.191-6.438.191s-4.78-.043-6.253-.187a6.481 6.481 0 00-.25-.035c-.47-.055-1.2-.141-1.778-.75-.55-.559-.73-1.825-.73-1.825s-.184-1.488-.184-2.976v-1.395c0-1.488.184-2.976.184-2.976s.18-1.27.73-1.828c.63-.66 1.328-.727 1.723-.766l.121-.012c2.57-.187 6.434-.187 6.434-.187h.007s3.86 0 6.434.187l.117.012c.395.04 1.094.105 1.727.766zm-10.18 2.722v5.168l4.969-2.578zm0 0" fill-rule="evenodd" fill="#fff"/></svg><svg width="47" height="47" viewBox="0 0 47 47" id="youtube-green-fill" y="193" xmlns="http://www.w3.org/2000/svg"><path d="M46.04 23.5c0 12.45-10.09 22.54-22.54 22.54S.96 35.95.96 23.5 11.05.96 23.5.96 46.04 11.05 46.04 23.5zm0 0" fill="#388067" stroke="#388067" stroke-width=".95918"/><path d="M32.262 17.723c.55.558.73 1.828.73 1.828s.184 1.488.184 2.976v1.395c0 1.488-.184 2.976-.184 2.976s-.18 1.266-.73 1.825c-.633.66-1.332.73-1.727.765a.95.95 0 00-.117.016c-2.574.183-6.438.191-6.438.191s-4.78-.047-6.253-.187a6.481 6.481 0 00-.25-.035c-.47-.055-1.2-.141-1.778-.75-.55-.559-.73-1.825-.73-1.825s-.184-1.488-.184-2.976v-1.395c0-1.488.184-2.976.184-2.976s.18-1.27.73-1.828c.63-.66 1.328-.727 1.723-.766l.121-.012c2.57-.187 6.434-.187 6.434-.187h.007s3.86 0 6.434.187l.117.012c.395.04 1.094.105 1.727.766zm-10.18 2.722v5.168l4.969-2.578zm0 0" fill-rule="evenodd" fill="#fff"/></svg><svg width="47" height="47" viewBox="0 0 47 47" id="youtube-green-outline" x="195" y="141" xmlns="http://www.w3.org/2000/svg"><path d="M46.04 23.5c0 12.45-10.09 22.54-22.54 22.54S.96 35.95.96 23.5 11.05.96 23.5.96 46.04 11.05 46.04 23.5zm0 0" fill="none" stroke="#388067" stroke-width=".95918"/><path d="M32.262 17.723c.55.558.73 1.828.73 1.828s.184 1.488.184 2.976v1.395c0 1.488-.184 2.976-.184 2.976s-.18 1.266-.73 1.825c-.633.66-1.332.73-1.727.765a.95.95 0 00-.117.016c-2.574.183-6.438.191-6.438.191s-4.78-.047-6.253-.187a6.481 6.481 0 00-.25-.035c-.47-.055-1.2-.141-1.778-.75-.55-.559-.73-1.825-.73-1.825s-.184-1.488-.184-2.976v-1.395c0-1.488.184-2.976.184-2.976s.18-1.27.73-1.828c.63-.66 1.328-.727 1.723-.766l.121-.012c2.57-.187 6.434-.187 6.434-.187h.007s3.86 0 6.434.187l.117.012c.395.04 1.094.105 1.727.766zm-10.18 2.722v5.168l4.969-2.578zm0 0" fill-rule="evenodd" fill="#388067"/></svg><svg width="47" height="47" viewBox="0 0 47 47" id="youtube-white" x="195" y="94" xmlns="http://www.w3.org/2000/svg"><path d="M46.04 23.5c0 12.45-10.09 22.54-22.54 22.54S.96 35.95.96 23.5 11.05.96 23.5.96 46.04 11.05 46.04 23.5zm0 0" fill="#fff" stroke="#fff" stroke-width=".95918"/><path d="M32.262 17.723c.55.558.73 1.828.73 1.828s.184 1.488.184 2.976v1.395c0 1.488-.184 2.976-.184 2.976s-.18 1.266-.73 1.825c-.633.66-1.332.73-1.727.765-.043.008-.082.012-.117.016-2.574.183-6.438.191-6.438.191s-4.78-.043-6.253-.187a6.481 6.481 0 00-.25-.035c-.47-.055-1.2-.141-1.778-.75-.55-.559-.73-1.825-.73-1.825s-.184-1.488-.184-2.976v-1.395c0-1.488.184-2.976.184-2.976s.18-1.27.73-1.828c.63-.66 1.328-.727 1.723-.766l.121-.012c2.57-.187 6.434-.187 6.434-.187h.007s3.86 0 6.434.187l.117.012c.395.04 1.094.105 1.727.766zm-10.18 2.722v5.168l4.969-2.578zm0 0" fill-rule="evenodd" fill="#388067"/></svg></svg>